SplineFontDB: 3.0
FontName: Kameron
FullName: Kameron
FamilyName: Kameron
Weight: Book
Copyright: Copyright (c) 2011 by vernon adams. All rights reserved.
Version: 1.000
ItalicAngle: 0
UnderlinePosition: -103
UnderlineWidth: 102
Ascent: 1638
Descent: 410
sfntRevision: 0x00010000
LayerCount: 2
Layer: 0 1 "Back"  1
Layer: 1 1 "Fore"  0
XUID: [1021 759 1887733602 2139507]
FSType: 0
OS2Version: 2
OS2_WeightWidthSlopeOnly: 0
OS2_UseTypoMetrics: 1
CreationTime: 1306270140
ModificationTime: 1306415015
PfmFamily: 17
TTFWeight: 400
TTFWidth: 5
LineGap: 25
VLineGap: 0
Panose: 2 0 5 3 4 0 0 2 0 3
OS2TypoAscent: -342
OS2TypoAOffset: 1
OS2TypoDescent: 7
OS2TypoDOffset: 1
OS2TypoLinegap: 102
OS2WinAscent: 0
OS2WinAOffset: 1
OS2WinDescent: 312
OS2WinDOffset: 1
HheadAscent: 0
HheadAOffset: 1
HheadDescent: 159
HheadDOffset: 1
OS2SubXSize: 2726
OS2SubYSize: 2517
OS2SubXOff: 0
OS2SubYOff: 315
OS2SupXSize: 2726
OS2SupYSize: 2517
OS2SupXOff: 0
OS2SupYOff: 1468
OS2StrikeYSize: 102
OS2StrikeYPos: 512
OS2Vendor: 'newt'
OS2CodePages: 20000111.40000000
OS2UnicodeRanges: 800000af.4000204a.00000000.00000000
Lookup: 258 0 0 "'kern' Horizontal Kerning in Latin lookup 0"  {"'kern' Horizontal Kerning in Latin lookup 0 per glyph data 0"  "'kern' Horizontal Kerning in Latin lookup 0 kerning class 1"  } ['kern' ('latn' <'dflt' > ) ]
MarkAttachClasses: 1
DEI: 91125
KernClass2: 17+ 15 "'kern' Horizontal Kerning in Latin lookup 0 kerning class 1" 
 58 .notdef A Aacute Acircumflex Adieresis Agrave Aring Atilde
 10 C Ccedilla
 5 D Eth
 8 L Lslash
 8 N Ntilde
 54 O Oslash OE Oacute Ocircumflex Odieresis Ograve Otilde
 37 U Uacute Ucircumflex Udieresis Ugrave
 18 Y Ydieresis Yacute
 53 a ae aacute acircumflex adieresis agrave aring atilde
 7 b thorn
 10 d dotlessi
 37 e eacute ecircumflex edieresis egrave
 1 f
 8 l lslash
 8 n ntilde
 54 o oslash oe oacute ocircumflex odieresis ograve otilde
 18 y yacute ydieresis
 10 C Ccedilla
 54 O Oslash OE Oacute Ocircumflex Odieresis Ograve Otilde

StartChar: exclam
Encoding: 33 33 2
Width: 596
Flags: W
LayerCount: 2
Fore
SplineSet
288 172 m 0,0,1
 316 172 316 172 336.5 164.5 c 128,-1,2
 357 157 357 157 370 144.5 c 128,-1,3
 383 132 383 132 389 116 c 128,-1,4
 395 100 395 100 395 82 c 0,5,6
 395 46 395 46 370.5 18.5 c 128,-1,7
 346 -9 346 -9 288 -9 c 256,8,9
 230 -9 230 -9 205 17.5 c 128,-1,10
 180 44 180 44 180 82 c 0,11,12
 180 100 180 100 186 116 c 128,-1,13
 192 132 192 132 205 144.5 c 128,-1,14
 218 157 218 157 238.5 164.5 c 128,-1,15
 259 172 259 172 288 172 c 0,0,1
379 1290 m 1,16,17
 379 1288 379 1288 379.5 1268.5 c 128,-1,18
 380 1249 380 1249 380 1225 c 128,-1,19
 380 1201 380 1201 380 1181 c 128,-1,20
 380 1161 380 1161 380 1159 c 0,21,22
 380 1154 380 1154 378 1118.5 c 128,-1,23
 376 1083 376 1083 372.5 1028.5 c 128,-1,24
 369 974 369 974 365 905 c 128,-1,25
 361 836 361 836 356 765 c 128,-1,26
 351 694 351 694 346.5 625 c 128,-1,27
 342 556 342 556 338 501.5 c 128,-1,28
 334 447 334 447 331.5 411.5 c 128,-1,29
 329 376 329 376 328 371 c 1,30,-1
 257 371 l 1,31,32
 256 376 256 376 253.5 411.5 c 128,-1,33
 251 447 251 447 247 501.5 c 128,-1,34
 243 556 243 556 239 624.5 c 128,-1,35
 235 693 235 693 230.5 764.5 c 128,-1,36
 226 836 226 836 221.5 905 c 128,-1,37
 217 974 217 974 214 1028.5 c 128,-1,38
 211 1083 211 1083 209 1119 c 128,-1,39
 207 1155 207 1155 207 1160 c 0,40,41
 207 1161 207 1161 207 1181 c 128,-1,42
 207 1201 207 1201 207 1225 c 128,-1,43
 207 1249 207 1249 207.5 1268.5 c 128,-1,44
 208 1288 208 1288 208 1290 c 1,45,-1
 379 1290 l 1,16,17
EndSplineSet
EndChar

StartChar: numbersign
Encoding: 35 35 3
Width: 1471
Flags: W
LayerCount: 2
Fore
SplineSet
654 980 m 1,0,-1
 983 980 l 1,1,-1
 1109 1407 l 1,2,-1
 1236 1407 l 1,3,-1
 1112 980 l 1,4,-1
 1344 980 l 1,5,-1
 1323 864 l 1,6,-1
 1077 864 l 1,7,-1
 990 544 l 1,8,-1
 1284 544 l 1,9,-1
 1261 426 l 1,10,-1
 956 426 l 1,11,-1
 829 2 l 1,12,-1
 700 2 l 1,13,-1
 826 426 l 1,14,-1
 499 426 l 1,15,-1
 373 2 l 1,16,-1
 245 2 l 1,17,-1
 372 426 l 1,18,-1
 128 426 l 1,19,-1
 150 544 l 1,20,-1
 403 544 l 1,21,-1
 491 864 l 1,22,-1
 187 864 l 1,23,-1
 210 980 l 1,24,-1
 526 980 l 1,25,-1
 650 1407 l 1,26,-1
 780 1407 l 1,27,-1
 654 980 l 1,0,-1
620 864 m 1,28,-1
 532 544 l 1,29,-1
 862 544 l 1,30,-1
 950 864 l 1,31,-1
 620 864 l 1,28,-1
EndSplineSet
EndChar

StartChar: dollar
Encoding: 36 36 4
Width: 1110
Flags: W
LayerCount: 2
Fore
SplineSet
609 1408 m 1,0,-1
 609 1278 l 1,1,2
 709 1269 709 1269 796.5 1241.5 c 128,-1,3
 884 1214 884 1214 963 1166 c 1,4,-1
 964 957 l 1,5,-1
 848 957 l 1,6,7
 848 1011 848 1011 835.5 1052 c 128,-1,8
 823 1093 823 1093 794.5 1120.5 c 128,-1,9
 766 1148 766 1148 720.5 1163.5 c 128,-1,10
 675 1179 675 1179 609 1184 c 1,11,-1
 609 720 l 1,12,13
 720 693 720 693 797.5 657 c 128,-1,14
 875 621 875 621 923.5 575 c 128,-1,15
 972 529 972 529 994 472.5 c 128,-1,16
 1016 416 1016 416 1016 348 c 0,17,18
 1016 273 1016 273 988.5 210 c 128,-1,19
 961 147 961 147 908.5 100 c 128,-1,20
 856 53 856 53 780.5 24.5 c 128,-1,21
 705 -4 705 -4 608 -11 c 1,22,-1
 608 -184 l 1,23,-1
 514 -184 l 1,24,-1
 514 -11 l 1,25,26
 252 0 252 0 114 109 c 1,27,-1
 114 331 l 1,28,-1
 231 331 l 1,29,30
 235 268 235 268 252 222.5 c 128,-1,31
 269 177 269 177 302.5 146.5 c 128,-1,32
 336 116 336 116 388 100 c 128,-1,33
 440 84 440 84 514 81 c 1,34,-1
 514 604 l 1,35,36
 328 648 328 648 233 737 c 128,-1,37
 138 826 138 826 138 954 c 0,38,39
 138 1023 138 1023 163.5 1080 c 128,-1,40
 189 1137 189 1137 238 1178.5 c 128,-1,41
 287 1220 287 1220 357 1245 c 128,-1,42
 427 1270 427 1270 516 1276 c 1,43,-1
 516 1408 l 1,44,-1
 609 1408 l 1,0,-1
516 1186 m 1,45,46
 407 1175 407 1175 345.5 1119.5 c 128,-1,47
 284 1064 284 1064 284 973 c 0,48,49
 284 889 284 889 339.5 835.5 c 128,-1,50
 395 782 395 782 516 746 c 1,51,-1
 516 1186 l 1,45,46
608 82 m 1,52,53
 668 88 668 88 716.5 107 c 128,-1,54
 765 126 765 126 798.5 157.5 c 128,-1,55
 832 189 832 189 850.5 232.5 c 128,-1,56
 869 276 869 276 869 330 c 0,57,58
 869 419 869 419 806.5 483 c 128,-1,59
 744 547 744 547 608 578 c 1,60,-1
 608 82 l 1,52,53
EndSplineSet
EndChar

StartChar: percent
Encoding: 37 37 5
Width: 1715
Flags: W
LayerCount: 2
Fore
SplineSet
382 1315 m 0,0,1
 453 1315 453 1315 508.5 1291 c 128,-1,2
 564 1267 564 1267 602 1222 c 128,-1,3
 640 1177 640 1177 659.5 1112 c 128,-1,4
 679 1047 679 1047 679 964 c 0,5,6
 679 792 679 792 601 701 c 128,-1,7
 523 610 523 610 377 610 c 0,8,9
 234 610 234 610 156.5 701.5 c 128,-1,10
 79 793 79 793 79 963 c 0,11,12
 79 1131 79 1131 157.5 1223 c 128,-1,13
 236 1315 236 1315 382 1315 c 0,0,1
1362 1304 m 1,14,-1
 462 -14 l 1,15,-1
 353 -14 l 1,16,-1
 1253 1304 l 1,17,-1
 1362 1304 l 1,14,-1
377 1243 m 0,18,19
 210 1243 210 1243 210 960 c 0,20,21
 210 822 210 822 252.5 752 c 128,-1,22
 295 682 295 682 380 682 c 0,23,24
 464 682 464 682 508 752 c 128,-1,25
 552 822 552 822 552 961 c 0,26,27
 552 1105 552 1105 509 1174 c 128,-1,28
 466 1243 466 1243 377 1243 c 0,18,19
1339 685 m 0,29,30
 1483 685 1483 685 1559 593 c 128,-1,31
 1635 501 1635 501 1635 327 c 0,32,33
 1635 162 1635 162 1556.5 71 c 128,-1,34
 1478 -20 1478 -20 1332 -20 c 0,35,36
 1189 -20 1189 -20 1112 71 c 128,-1,37
 1035 162 1035 162 1035 332 c 0,38,39
 1035 501 1035 501 1113.5 593 c 128,-1,40
 1192 685 1192 685 1339 685 c 0,29,30
1333 613 m 0,41,42
 1248 613 1248 613 1206 541.5 c 128,-1,43
 1164 470 1164 470 1164 329 c 0,44,45
 1164 192 1164 192 1207 122.5 c 128,-1,46
 1250 53 1250 53 1335 53 c 256,47,48
 1420 53 1420 53 1464 122 c 128,-1,49
 1508 191 1508 191 1508 329 c 0,50,51
 1508 474 1508 474 1465 543.5 c 128,-1,52
 1422 613 1422 613 1333 613 c 0,41,42
EndSplineSet
EndChar

StartChar: ampersand
Encoding: 38 38 6
Width: 1540
Flags: W
LayerCount: 2
Fore
SplineSet
1226 1126 m 1,0,-1
 1226 895 l 1,1,-1
 1466 895 l 1,2,-1
 1466 800 l 1,3,-1
 1228 800 l 1,4,-1
 1228 305 l 2,5,6
 1228 254 1228 254 1229 213.5 c 128,-1,7
 1230 173 1230 173 1238.5 144 c 128,-1,8
 1247 115 1247 115 1266 99.5 c 128,-1,9
 1285 84 1285 84 1320 84 c 0,10,11
 1335 84 1335 84 1348.5 89.5 c 128,-1,12
 1362 95 1362 95 1372.5 108 c 128,-1,13
 1383 121 1383 121 1389.5 141.5 c 128,-1,14
 1396 162 1396 162 1396 192 c 1,15,-1
 1488 201 l 1,16,17
 1488 142 1488 142 1471.5 100 c 128,-1,18
 1455 58 1455 58 1427 30.5 c 128,-1,19
 1399 3 1399 3 1362 -10 c 128,-1,20
 1325 -23 1325 -23 1284 -23 c 0,21,22
 1206 -23 1206 -23 1160 4.5 c 128,-1,23
 1114 32 1114 32 1091 83 c 1,24,25
 983 31 983 31 870.5 5.5 c 128,-1,26
 758 -20 758 -20 649 -20 c 0,27,28
 518 -20 518 -20 418 18 c 128,-1,29
 318 56 318 56 249.5 119.5 c 128,-1,30
 181 183 181 183 146 265 c 128,-1,31
 111 347 111 347 111 435 c 0,32,33
 111 494 111 494 127.5 553.5 c 128,-1,34
 144 613 144 613 177 669.5 c 128,-1,35
 210 726 210 726 260.5 776.5 c 128,-1,36
 311 827 311 827 379 868 c 1,37,38
 346 918 346 918 330.5 966.5 c 128,-1,39
 315 1015 315 1015 315 1062 c 0,40,41
 315 1126 315 1126 343 1182 c 128,-1,42
 371 1238 371 1238 423 1280 c 128,-1,43
 475 1322 475 1322 549 1346 c 128,-1,44
 623 1370 623 1370 715 1370 c 0,45,46
 809 1370 809 1370 884.5 1352 c 128,-1,47
 960 1334 960 1334 1018 1305 c 1,48,-1
 1031 1125 l 1,49,-1
 940 1115 l 1,50,51
 937 1157 937 1157 920 1187 c 128,-1,52
 903 1217 903 1217 875 1236.5 c 128,-1,53
 847 1256 847 1256 811.5 1265 c 128,-1,54
 776 1274 776 1274 737 1274 c 0,55,56
 666 1274 666 1274 612.5 1256.5 c 128,-1,57
 559 1239 559 1239 523 1208 c 128,-1,58
 487 1177 487 1177 468.5 1135.5 c 128,-1,59
 450 1094 450 1094 450 1045 c 0,60,61
 450 974 450 974 488 895 c 1,62,-1
 1078 895 l 1,63,64
 1078 900 1078 900 1079 912 c 128,-1,65
 1080 924 1080 924 1081.5 939.5 c 128,-1,66
 1083 955 1083 955 1084.5 973.5 c 128,-1,67
 1086 992 1086 992 1088 1010 c 0,68,69
 1092 1052 1092 1052 1097 1103 c 1,70,-1
 1226 1126 l 1,0,-1
479 800 m 1,71,72
 426 767 426 767 387 725 c 128,-1,73
 348 683 348 683 322 636.5 c 128,-1,74
 296 590 296 590 283 540.5 c 128,-1,75
 270 491 270 491 270 442 c 0,76,77
 270 373 270 373 295 310 c 128,-1,78
 320 247 320 247 370.5 198 c 128,-1,79
 421 149 421 149 496 120 c 128,-1,80
 571 91 571 91 670 91 c 0,81,82
 759 91 759 91 858.5 115 c 128,-1,83
 958 139 958 139 1064 191 c 1,84,85
 1062 215 1062 215 1061 244 c 128,-1,86
 1060 273 1060 273 1060 302 c 2,87,-1
 1060 800 l 1,88,-1
 479 800 l 1,71,72
EndSplineSet
EndChar

StartChar: parenleft
Encoding: 40 40 7
Width: 700
Flags: W
LayerCount: 2
Fore
SplineSet
640 1247 m 1,0,1
 480 1109 480 1109 403 921 c 128,-1,2
 326 733 326 733 326 483 c 0,3,4
 326 358 326 358 344.5 249.5 c 128,-1,5
 363 141 363 141 401 46.5 c 128,-1,6
 439 -48 439 -48 498 -130 c 128,-1,7
 557 -212 557 -212 638 -284 c 1,8,-1
 561 -338 l 1,9,10
 447 -266 447 -266 369.5 -171.5 c 128,-1,11
 292 -77 292 -77 244.5 29.5 c 128,-1,12
 197 136 197 136 176 249.5 c 128,-1,13
 155 363 155 363 155 473 c 0,14,15
 155 593 155 593 176.5 711.5 c 128,-1,16
 198 830 198 830 246 938.5 c 128,-1,17
 294 1047 294 1047 372 1140 c 128,-1,18
 450 1233 450 1233 563 1302 c 1,19,-1
 640 1247 l 1,0,1
EndSplineSet
EndChar

StartChar: parenright
Encoding: 41 41 8
Width: 700
Flags: W
LayerCount: 2
Fore
SplineSet
148 1302 m 1,0,1
 256 1227 256 1227 331.5 1133.5 c 128,-1,2
 407 1040 407 1040 454.5 935 c 128,-1,3
 502 830 502 830 523.5 718 c 128,-1,4
 545 606 545 606 545 493 c 0,5,6
 545 376 545 376 524 258.5 c 128,-1,7
 503 141 503 141 455 33 c 128,-1,8
 407 -75 407 -75 328.5 -170 c 128,-1,9
 250 -265 250 -265 135 -338 c 1,10,-1
 57 -284 l 1,11,12
 220 -142 220 -142 297 47.5 c 128,-1,13
 374 237 374 237 374 490 c 0,14,15
 374 614 374 614 355 722 c 128,-1,16
 336 830 336 830 297 924.5 c 128,-1,17
 258 1019 258 1019 198.5 1101.5 c 128,-1,18
 139 1184 139 1184 57 1257 c 1,19,20
 80 1268 80 1268 102.5 1279.5 c 128,-1,21
 125 1291 125 1291 148 1302 c 1,0,1
EndSplineSet
EndChar

StartChar: asterisk
Encoding: 42 42 9
Width: 946
Flags: W
LayerCount: 2
Fore
SplineSet
407 551 m 1,0,1
 425 589 425 589 434.5 632 c 128,-1,2
 444 675 444 675 447 740 c 1,3,4
 402 707 402 707 370.5 674 c 128,-1,5
 339 641 339 641 315 597 c 1,6,-1
 206 514 l 1,7,-1
 126 628 l 1,8,-1
 244 699 l 1,9,10
 286 707 286 707 328.5 725.5 c 128,-1,11
 371 744 371 744 426 778 c 1,12,13
 370 813 370 813 328 830.5 c 128,-1,14
 286 848 286 848 244 855 c 1,15,-1
 126 927 l 1,16,-1
 206 1041 l 1,17,-1
 315 958 l 1,18,19
 339 915 339 915 371 882 c 128,-1,20
 403 849 403 849 447 818 c 1,21,22
 444 880 444 880 434 923.5 c 128,-1,23
 424 967 424 967 407 1005 c 1,24,-1
 400 1140 l 1,25,-1
 542 1140 l 1,26,-1
 534 1006 l 1,27,28
 511 961 511 961 502.5 918 c 128,-1,29
 494 875 494 875 491 822 c 1,30,31
 543 860 543 860 574 892 c 128,-1,32
 605 924 605 924 626 958 c 1,33,-1
 736 1041 l 1,34,-1
 816 927 l 1,35,-1
 698 855 l 1,36,37
 644 849 644 849 599.5 829.5 c 128,-1,38
 555 810 555 810 505 778 c 1,39,40
 554 746 554 746 599.5 726 c 128,-1,41
 645 706 645 706 699 699 c 1,42,-1
 816 628 l 1,43,-1
 736 514 l 1,44,-1
 626 597 l 1,45,46
 605 632 605 632 574.5 664 c 128,-1,47
 544 696 544 696 491 735 c 1,48,49
 493 682 493 682 502 638 c 128,-1,50
 511 594 511 594 534 550 c 1,51,-1
 542 415 l 1,52,-1
 407 415 l 1,53,-1
 407 551 l 1,0,1
EndSplineSet
EndChar

StartChar: plus
Encoding: 43 43 10
Width: 1536
Flags: W
LayerCount: 2
Fore
SplineSet
830 680 m 1,0,-1
 1338 680 l 1,1,-1
 1338 560 l 1,2,-1
 830 560 l 1,3,-1
 830 58 l 1,4,-1
 707 58 l 1,5,-1
 707 560 l 1,6,-1
 197 560 l 1,7,-1
 197 680 l 1,8,-1
 707 680 l 1,9,-1
 707 1181 l 1,10,-1
 830 1181 l 1,11,-1
 830 680 l 1,0,-1
EndSplineSet
EndChar

StartChar: comma
Encoding: 44 44 11
Width: 560
Flags: W
LayerCount: 2
Fore
SplineSet
401 190 m 1,0,-1
 361 -1 l 2,1,2
 343 -88 343 -88 305 -151.5 c 128,-1,3
 267 -215 267 -215 205 -242 c 1,4,-1
 147 -188 l 1,5,6
 183 -163 183 -163 197 -114.5 c 128,-1,7
 211 -66 211 -66 219 4 c 1,8,-1
 152 9 l 1,9,-1
 175 190 l 1,10,-1
 401 190 l 1,0,-1
EndSplineSet
EndChar

StartChar: hyphen
Encoding: 45 45 12
Width: 759
Flags: W
LayerCount: 2
Fore
SplineSet
682 526 m 1,0,-1
 682 380 l 1,1,-1
 76 380 l 1,2,-1
 76 526 l 1,3,-1
 682 526 l 1,0,-1
EndSplineSet
EndChar

StartChar: period
Encoding: 46 46 13
Width: 560
Flags: W
LayerCount: 2
Fore
SplineSet
271 172 m 0,0,1
 299 172 299 172 319.5 164.5 c 128,-1,2
 340 157 340 157 353.5 144.5 c 128,-1,3
 367 132 367 132 373 116 c 128,-1,4
 379 100 379 100 379 82 c 0,5,6
 379 46 379 46 354 18.5 c 128,-1,7
 329 -9 329 -9 271 -9 c 256,8,9
 213 -9 213 -9 188.5 17.5 c 128,-1,10
 164 44 164 44 164 82 c 0,11,12
 164 100 164 100 170 116 c 128,-1,13
 176 132 176 132 189 144.5 c 128,-1,14
 202 157 202 157 222 164.5 c 128,-1,15
 242 172 242 172 271 172 c 0,0,1
EndSplineSet
EndChar

StartChar: slash
Encoding: 47 47 14
Width: 559
Flags: W
LayerCount: 2
Fore
SplineSet
583 1304 m 1,0,-1
 86 -105 l 1,1,-1
 -38 -105 l 1,2,-1
 459 1304 l 1,3,-1
 583 1304 l 1,0,-1
EndSplineSet
EndChar

StartChar: zero
Encoding: 48 48 15
Width: 1142
Flags: W
LayerCount: 2
Fore
SplineSet
571 1315 m 256,0,1
 804 1315 804 1315 924.5 1146.5 c 128,-1,2
 1045 978 1045 978 1045 646 c 0,3,4
 1045 313 1045 313 922.5 145 c 128,-1,5
 800 -23 800 -23 571 -23 c 0,6,7
 338 -23 338 -23 217 146 c 128,-1,8
 96 315 96 315 96 646 c 0,9,10
 96 974 96 974 217 1144.5 c 128,-1,11
 338 1315 338 1315 571 1315 c 256,0,1
571 1214 m 0,12,13
 264 1214 264 1214 264 649 c 0,14,15
 264 510 264 510 281.5 404 c 128,-1,16
 299 298 299 298 336 226.5 c 128,-1,17
 373 155 373 155 431.5 118.5 c 128,-1,18
 490 82 490 82 571 82 c 0,19,20
 731 82 731 82 804.5 227 c 128,-1,21
 878 372 878 372 878 647 c 0,22,23
 878 933 878 933 801.5 1073.5 c 128,-1,24
 725 1214 725 1214 571 1214 c 0,12,13
EndSplineSet
EndChar

StartChar: one
Encoding: 49 49 16
Width: 1142
Flags: W
LayerCount: 2
Fore
SplineSet
672 1258 m 1,0,-1
 672 154 l 2,1,2
 672 137 672 137 674 126.5 c 128,-1,3
 676 116 676 116 688.5 109.5 c 128,-1,4
 701 103 701 103 728 100.5 c 128,-1,5
 755 98 755 98 804 98 c 2,6,-1
 870 98 l 1,7,-1
 870 0 l 1,8,9
 838 0 838 0 807 0 c 128,-1,10
 776 0 776 0 743 0 c 128,-1,11
 710 0 710 0 673 0.5 c 128,-1,12
 636 1 636 1 592 2 c 1,13,14
 541 2 541 2 502.5 1.5 c 128,-1,15
 464 1 464 1 431 1 c 128,-1,16
 398 1 398 1 367 0.5 c 128,-1,17
 336 0 336 0 301 0 c 1,18,-1
 301 98 l 1,19,-1
 402 98 l 2,20,21
 442 98 442 98 464 102.5 c 128,-1,22
 486 107 486 107 496 115 c 128,-1,23
 506 123 506 123 508 134 c 128,-1,24
 510 145 510 145 510 157 c 2,25,-1
 510 1151 l 1,26,27
 450 1121 450 1121 389.5 1100 c 128,-1,28
 329 1079 329 1079 270 1066 c 1,29,-1
 270 1190 l 1,30,31
 347 1204 347 1204 421 1230 c 128,-1,32
 495 1256 495 1256 570 1293 c 1,33,-1
 672 1258 l 1,0,-1
EndSplineSet
EndChar

StartChar: two
Encoding: 50 50 17
Width: 1142
Flags: W
LayerCount: 2
Fore
SplineSet
130 0 m 1,0,1
 129 10 129 10 129 21 c 128,-1,2
 129 32 129 32 129 43 c 0,3,4
 129 178 129 178 168.5 275 c 128,-1,5
 208 372 208 372 276 447.5 c 128,-1,6
 344 523 344 523 434.5 586.5 c 128,-1,7
 525 650 525 650 628 718 c 0,8,9
 675 749 675 749 710 778.5 c 128,-1,10
 745 808 745 808 768 839.5 c 128,-1,11
 791 871 791 871 802.5 907 c 128,-1,12
 814 943 814 943 814 987 c 0,13,14
 814 1039 814 1039 795 1081 c 128,-1,15
 776 1123 776 1123 741.5 1152.5 c 128,-1,16
 707 1182 707 1182 659 1198 c 128,-1,17
 611 1214 611 1214 554 1214 c 0,18,19
 473 1214 473 1214 419 1196 c 128,-1,20
 365 1178 365 1178 333 1144 c 128,-1,21
 301 1110 301 1110 287 1060 c 128,-1,22
 273 1010 273 1010 273 947 c 1,23,-1
 159 950 l 1,24,-1
 159 1195 l 1,25,26
 196 1224 196 1224 239 1246.5 c 128,-1,27
 282 1269 282 1269 333.5 1284 c 128,-1,28
 385 1299 385 1299 446.5 1306.5 c 128,-1,29
 508 1314 508 1314 582 1314 c 0,30,31
 676 1314 676 1314 749.5 1291 c 128,-1,32
 823 1268 823 1268 873.5 1223.5 c 128,-1,33
 924 1179 924 1179 950.5 1115 c 128,-1,34
 977 1051 977 1051 977 970 c 0,35,36
 977 895 977 895 953 840.5 c 128,-1,37
 929 786 929 786 881 738 c 128,-1,38
 833 690 833 690 760 640.5 c 128,-1,39
 687 591 687 591 589 526 c 0,40,41
 499 466 499 466 440 411 c 128,-1,42
 381 356 381 356 346.5 305 c 128,-1,43
 312 254 312 254 298 206.5 c 128,-1,44
 284 159 284 159 284 115 c 1,45,-1
 804 115 l 2,46,47
 829 115 829 115 842.5 124.5 c 128,-1,48
 856 134 856 134 862.5 162.5 c 128,-1,49
 869 191 869 191 870.5 243.5 c 128,-1,50
 872 296 872 296 872 381 c 1,51,-1
 977 381 l 1,52,-1
 977 0 l 1,53,-1
 130 0 l 1,0,1
EndSplineSet
EndChar

StartChar: three
Encoding: 51 51 18
Width: 1142
Flags: W
LayerCount: 2
Fore
SplineSet
237 387 m 1,0,1
 237 235 237 235 314.5 161.5 c 128,-1,2
 392 88 392 88 544 88 c 0,3,4
 599 88 599 88 651 104 c 128,-1,5
 703 120 703 120 743.5 153 c 128,-1,6
 784 186 784 186 809 237 c 128,-1,7
 834 288 834 288 834 357 c 0,8,9
 834 435 834 435 804.5 487 c 128,-1,10
 775 539 775 539 725 570.5 c 128,-1,11
 675 602 675 602 609 615.5 c 128,-1,12
 543 629 543 629 471 629 c 1,13,-1
 471 737 l 1,14,15
 543 738 543 738 601.5 754.5 c 128,-1,16
 660 771 660 771 701.5 802.5 c 128,-1,17
 743 834 743 834 765.5 880 c 128,-1,18
 788 926 788 926 788 987 c 0,19,20
 788 1038 788 1038 769.5 1080.5 c 128,-1,21
 751 1123 751 1123 716.5 1153 c 128,-1,22
 682 1183 682 1183 634 1199.5 c 128,-1,23
 586 1216 586 1216 528 1216 c 0,24,25
 459 1216 459 1216 411 1198.5 c 128,-1,26
 363 1181 363 1181 333 1147.5 c 128,-1,27
 303 1114 303 1114 289.5 1065.5 c 128,-1,28
 276 1017 276 1017 276 954 c 1,29,-1
 159 956 l 1,30,-1
 160 1208 l 1,31,32
 235 1262 235 1262 329.5 1288.5 c 128,-1,33
 424 1315 424 1315 534 1315 c 0,34,35
 631 1315 631 1315 707.5 1292.5 c 128,-1,36
 784 1270 784 1270 837.5 1227 c 128,-1,37
 891 1184 891 1184 919 1123 c 128,-1,38
 947 1062 947 1062 947 984 c 0,39,40
 947 871 947 871 886 797.5 c 128,-1,41
 825 724 825 724 701 692 c 1,42,43
 766 679 766 679 820.5 653.5 c 128,-1,44
 875 628 875 628 915 587 c 128,-1,45
 955 546 955 546 977 488.5 c 128,-1,46
 999 431 999 431 999 355 c 0,47,48
 999 267 999 267 966.5 197 c 128,-1,49
 934 127 934 127 873.5 78 c 128,-1,50
 813 29 813 29 726.5 3 c 128,-1,51
 640 -23 640 -23 531 -23 c 0,52,53
 438 -23 438 -23 362 3.5 c 128,-1,54
 286 30 286 30 231 82 c 128,-1,55
 176 134 176 134 146 210.5 c 128,-1,56
 116 287 116 287 115 386 c 1,57,-1
 237 387 l 1,0,1
EndSplineSet
EndChar

StartChar: four
Encoding: 52 52 19
Width: 1142
Flags: W
LayerCount: 2
Fore
SplineSet
828 1297 m 1,0,-1
 828 488 l 1,1,-1
 1045 488 l 1,2,-1
 1045 383 l 1,3,-1
 828 383 l 1,4,-1
 828 156 l 2,5,6
 828 138 828 138 829.5 126 c 128,-1,7
 831 114 831 114 841 106.5 c 128,-1,8
 851 99 851 99 872 95.5 c 128,-1,9
 893 92 893 92 932 92 c 2,10,-1
 985 92 l 1,11,-1
 985 0 l 1,12,13
 935 0 935 0 866.5 1 c 128,-1,14
 798 2 798 2 717 2 c 0,15,16
 678 2 678 2 647.5 1.5 c 128,-1,17
 617 1 617 1 591 1 c 128,-1,18
 565 1 565 1 541 0.5 c 128,-1,19
 517 0 517 0 490 0 c 1,20,-1
 490 92 l 1,21,-1
 555 92 l 2,22,23
 597 92 597 92 622 94.5 c 128,-1,24
 647 97 647 97 659.5 102.5 c 128,-1,25
 672 108 672 108 676 117.5 c 128,-1,26
 680 127 680 127 680 142 c 2,27,-1
 680 383 l 1,28,-1
 116 383 l 1,29,30
 111 419 111 419 105 451 c 128,-1,31
 99 483 99 483 90 513 c 1,32,-1
 647 1297 l 1,33,-1
 828 1297 l 1,0,-1
203 486 m 1,34,-1
 681 486 l 1,35,-1
 681 1170 l 1,36,-1
 679 1170 l 1,37,-1
 203 486 l 1,34,-1
EndSplineSet
EndChar

StartChar: five
Encoding: 53 53 20
Width: 1142
Flags: W
LayerCount: 2
Fore
SplineSet
848 1095 m 2,0,1
 848 1124 848 1124 847.5 1140 c 128,-1,2
 847 1156 847 1156 845 1163.5 c 128,-1,3
 843 1171 843 1171 838 1172 c 128,-1,4
 833 1173 833 1173 824 1173 c 2,5,-1
 338 1173 l 1,6,7
 338 1173 338 1173 336.5 1141.5 c 128,-1,8
 335 1110 335 1110 332.5 1062 c 128,-1,9
 330 1014 330 1014 327.5 958 c 128,-1,10
 325 902 325 902 323 853.5 c 128,-1,11
 321 805 321 805 319.5 772 c 128,-1,12
 318 739 318 739 318 737 c 1,13,14
 378 785 378 785 448.5 808.5 c 128,-1,15
 519 832 519 832 597 832 c 0,16,17
 692 832 692 832 769.5 802.5 c 128,-1,18
 847 773 847 773 901.5 718.5 c 128,-1,19
 956 664 956 664 986 586.5 c 128,-1,20
 1016 509 1016 509 1016 414 c 0,21,22
 1016 302 1016 302 977.5 219.5 c 128,-1,23
 939 137 939 137 873 83 c 128,-1,24
 807 29 807 29 717.5 3 c 128,-1,25
 628 -23 628 -23 526 -23 c 0,26,27
 438 -23 438 -23 356 -1.5 c 128,-1,28
 274 20 274 20 202 62 c 1,29,-1
 181 318 l 1,30,-1
 284 319 l 1,31,32
 294 200 294 200 357 139 c 128,-1,33
 420 78 420 78 554 78 c 0,34,35
 619 78 619 78 673.5 99.5 c 128,-1,36
 728 121 728 121 767 163 c 128,-1,37
 806 205 806 205 828 267 c 128,-1,38
 850 329 850 329 850 409 c 0,39,40
 850 481 850 481 829.5 539 c 128,-1,41
 809 597 809 597 771 637.5 c 128,-1,42
 733 678 733 678 679.5 700 c 128,-1,43
 626 722 626 722 559 722 c 0,44,45
 467 722 467 722 399.5 686.5 c 128,-1,46
 332 651 332 651 281 580 c 1,47,-1
 203 606 l 1,48,-1
 203 1290 l 1,49,-1
 951 1290 l 1,50,-1
 951 1055 l 1,51,-1
 848 1055 l 1,52,-1
 848 1095 l 2,0,1
EndSplineSet
EndChar

StartChar: six
Encoding: 54 54 21
Width: 1142
Flags: W
LayerCount: 2
Fore
SplineSet
626 1315 m 0,0,1
 694 1315 694 1315 750 1306 c 128,-1,2
 806 1297 806 1297 852 1282 c 128,-1,3
 898 1267 898 1267 935.5 1247 c 128,-1,4
 973 1227 973 1227 1003 1205 c 1,5,-1
 1005 1011 l 1,6,-1
 904 1009 l 1,7,8
 902 1115 902 1115 838 1166.5 c 128,-1,9
 774 1218 774 1218 627 1218 c 0,10,11
 536 1218 536 1218 472 1182.5 c 128,-1,12
 408 1147 408 1147 367.5 1078.5 c 128,-1,13
 327 1010 327 1010 308.5 909.5 c 128,-1,14
 290 809 290 809 290 680 c 1,15,16
 356 758 356 758 443 797.5 c 128,-1,17
 530 837 530 837 630 837 c 0,18,19
 723 837 723 837 799 807 c 128,-1,20
 875 777 875 777 929 722 c 128,-1,21
 983 667 983 667 1012.5 591 c 128,-1,22
 1042 515 1042 515 1042 422 c 0,23,24
 1042 321 1042 321 1010.5 239 c 128,-1,25
 979 157 979 157 920 99 c 128,-1,26
 861 41 861 41 777.5 9.5 c 128,-1,27
 694 -22 694 -22 590 -22 c 0,28,29
 477 -22 477 -22 391 15.5 c 128,-1,30
 305 53 305 53 246 131 c 128,-1,31
 187 209 187 209 157 328 c 128,-1,32
 127 447 127 447 127 609 c 0,33,34
 127 760 127 760 153 889.5 c 128,-1,35
 179 1019 179 1019 238 1113.5 c 128,-1,36
 297 1208 297 1208 392 1261.5 c 128,-1,37
 487 1315 487 1315 626 1315 c 0,0,1
596 730 m 0,38,39
 521 730 521 730 452.5 696 c 128,-1,40
 384 662 384 662 330 599 c 1,41,42
 296 528 296 528 296 435 c 0,43,44
 296 352 296 352 317 286 c 128,-1,45
 338 220 338 220 377 174 c 128,-1,46
 416 128 416 128 471 103.5 c 128,-1,47
 526 79 526 79 594 79 c 0,48,49
 658 79 658 79 710.5 101 c 128,-1,50
 763 123 763 123 800.5 165 c 128,-1,51
 838 207 838 207 858 268 c 128,-1,52
 878 329 878 329 878 407 c 0,53,54
 878 477 878 477 860.5 536 c 128,-1,55
 843 595 843 595 808 638 c 128,-1,56
 773 681 773 681 720 705.5 c 128,-1,57
 667 730 667 730 596 730 c 0,38,39
EndSplineSet
EndChar

StartChar: seven
Encoding: 55 55 22
Width: 1142
Flags: W
LayerCount: 2
Fore
SplineSet
156 1290 m 1,0,-1
 1011 1290 l 1,1,-1
 1011 1153 l 1,2,3
 905 1012 905 1012 823.5 864.5 c 128,-1,4
 742 717 742 717 682.5 570 c 128,-1,5
 623 423 623 423 586 279.5 c 128,-1,6
 549 136 549 136 532 1 c 1,7,-1
 358 1 l 1,8,9
 377 135 377 135 416.5 283.5 c 128,-1,10
 456 432 456 432 518.5 584 c 128,-1,11
 581 736 581 736 668 886 c 128,-1,12
 755 1036 755 1036 869 1174 c 1,13,-1
 431 1174 l 2,14,15
 371 1174 371 1174 337.5 1171.5 c 128,-1,16
 304 1169 304 1169 288 1163 c 128,-1,17
 272 1157 272 1157 269 1146.5 c 128,-1,18
 266 1136 266 1136 266 1120 c 2,19,-1
 266 956 l 1,20,-1
 156 956 l 1,21,-1
 156 1290 l 1,0,-1
EndSplineSet
EndChar

StartChar: eight
Encoding: 56 56 23
Width: 1142
Flags: W
LayerCount: 2
Fore
SplineSet
737 685 m 1,0,1
 891 647 891 647 967.5 560.5 c 128,-1,2
 1044 474 1044 474 1044 346 c 0,3,4
 1044 262 1044 262 1012 193.5 c 128,-1,5
 980 125 980 125 919 77 c 128,-1,6
 858 29 858 29 769 3 c 128,-1,7
 680 -23 680 -23 566 -23 c 0,8,9
 456 -23 456 -23 369 2.5 c 128,-1,10
 282 28 282 28 221.5 75.5 c 128,-1,11
 161 123 161 123 129 191 c 128,-1,12
 97 259 97 259 97 344 c 0,13,14
 97 472 97 472 173.5 557.5 c 128,-1,15
 250 643 250 643 398 682 c 1,16,17
 275 714 275 714 208 794 c 128,-1,18
 141 874 141 874 141 984 c 0,19,20
 141 1062 141 1062 171 1123 c 128,-1,21
 201 1184 201 1184 256.5 1227 c 128,-1,22
 312 1270 312 1270 391 1292.5 c 128,-1,23
 470 1315 470 1315 568 1315 c 0,24,25
 668 1315 668 1315 748.5 1292.5 c 128,-1,26
 829 1270 829 1270 885.5 1227.5 c 128,-1,27
 942 1185 942 1185 972 1124 c 128,-1,28
 1002 1063 1002 1063 1002 987 c 0,29,30
 1002 874 1002 874 935 797.5 c 128,-1,31
 868 721 868 721 737 685 c 1,0,1
574 82 m 0,32,33
 643 82 643 82 701.5 100 c 128,-1,34
 760 118 760 118 803 151.5 c 128,-1,35
 846 185 846 185 870 234 c 128,-1,36
 894 283 894 283 894 346 c 0,37,38
 894 395 894 395 875.5 440.5 c 128,-1,39
 857 486 857 486 817 523.5 c 128,-1,40
 777 561 777 561 715.5 589 c 128,-1,41
 654 617 654 617 568 632 c 1,42,43
 413 607 413 607 333.5 536 c 128,-1,44
 254 465 254 465 254 349 c 0,45,46
 254 289 254 289 275.5 239.5 c 128,-1,47
 297 190 297 190 337.5 155 c 128,-1,48
 378 120 378 120 437.5 101 c 128,-1,49
 497 82 497 82 574 82 c 0,32,33
574 1215 m 0,50,51
 511 1215 511 1215 459 1200 c 128,-1,52
 407 1185 407 1185 370.5 1156.5 c 128,-1,53
 334 1128 334 1128 313.5 1087 c 128,-1,54
 293 1046 293 1046 293 995 c 0,55,56
 293 895 293 895 365 829 c 128,-1,57
 437 763 437 763 574 738 c 1,58,59
 708 764 708 764 778 827.5 c 128,-1,60
 848 891 848 891 848 991 c 0,61,62
 848 1051 848 1051 824.5 1093.5 c 128,-1,63
 801 1136 801 1136 762.5 1163 c 128,-1,64
 724 1190 724 1190 674.5 1202.5 c 128,-1,65
 625 1215 625 1215 574 1215 c 0,50,51
EndSplineSet
EndChar

StartChar: nine
Encoding: 57 57 24
Width: 1142
Flags: W
LayerCount: 2
Fore
SplineSet
553 1213 m 0,0,1
 488 1213 488 1213 435.5 1191 c 128,-1,2
 383 1169 383 1169 346 1126 c 128,-1,3
 309 1083 309 1083 289 1021 c 128,-1,4
 269 959 269 959 269 879 c 0,5,6
 269 812 269 812 286.5 754.5 c 128,-1,7
 304 697 304 697 339.5 654.5 c 128,-1,8
 375 612 375 612 427 587.5 c 128,-1,9
 479 563 479 563 548 563 c 0,10,11
 603 563 603 563 651.5 579.5 c 128,-1,12
 700 596 700 596 739.5 628 c 128,-1,13
 779 660 779 660 808 707 c 128,-1,14
 837 754 837 754 853 814 c 1,15,16
 853 906 853 906 834 980 c 128,-1,17
 815 1054 815 1054 777 1105.5 c 128,-1,18
 739 1157 739 1157 683 1185 c 128,-1,19
 627 1213 627 1213 553 1213 c 0,0,1
531 -23 m 0,20,21
 409 -23 409 -23 318 9.5 c 128,-1,22
 227 42 227 42 172 103 c 1,23,-1
 171 281 l 1,24,-1
 289 283 l 1,25,26
 292 228 292 228 305 189 c 128,-1,27
 318 150 318 150 345 124.5 c 128,-1,28
 372 99 372 99 415 87 c 128,-1,29
 458 75 458 75 521 75 c 0,30,31
 615 75 615 75 679.5 110 c 128,-1,32
 744 145 744 145 784 213 c 128,-1,33
 824 281 824 281 841.5 381 c 128,-1,34
 859 481 859 481 859 611 c 1,35,36
 796 534 796 534 708.5 495 c 128,-1,37
 621 456 621 456 518 456 c 0,38,39
 424 456 424 456 348 486 c 128,-1,40
 272 516 272 516 218.5 570.5 c 128,-1,41
 165 625 165 625 136 701.5 c 128,-1,42
 107 778 107 778 107 871 c 0,43,44
 107 974 107 974 138.5 1056 c 128,-1,45
 170 1138 170 1138 228.5 1196 c 128,-1,46
 287 1254 287 1254 370 1285 c 128,-1,47
 453 1316 453 1316 556 1316 c 0,48,49
 668 1316 668 1316 754.5 1278 c 128,-1,50
 841 1240 841 1240 899.5 1162 c 128,-1,51
 958 1084 958 1084 988 964 c 128,-1,52
 1018 844 1018 844 1018 681 c 0,53,54
 1018 531 1018 531 992.5 402 c 128,-1,55
 967 273 967 273 909.5 178.5 c 128,-1,56
 852 84 852 84 759 30.5 c 128,-1,57
 666 -23 666 -23 531 -23 c 0,20,21
EndSplineSet
EndChar

StartChar: colon
Encoding: 58 58 25
Width: 571
Flags: W
LayerCount: 2
Fore
SplineSet
284 882 m 256,0,1
 341 882 341 882 366 855 c 128,-1,2
 391 828 391 828 391 792 c 256,3,4
 391 756 391 756 366.5 729 c 128,-1,5
 342 702 342 702 284 702 c 256,6,7
 226 702 226 702 201.5 728 c 128,-1,8
 177 754 177 754 177 792 c 0,9,10
 177 828 177 828 202 855 c 128,-1,11
 227 882 227 882 284 882 c 256,0,1
284 172 m 0,12,13
 341 172 341 172 366 145 c 128,-1,14
 391 118 391 118 391 82 c 256,15,16
 391 46 391 46 366.5 18.5 c 128,-1,17
 342 -9 342 -9 284 -9 c 256,18,19
 226 -9 226 -9 201.5 17.5 c 128,-1,20
 177 44 177 44 177 82 c 0,21,22
 177 100 177 100 183 116 c 128,-1,23
 189 132 189 132 202 144.5 c 128,-1,24
 215 157 215 157 235 164.5 c 128,-1,25
 255 172 255 172 284 172 c 0,12,13
EndSplineSet
EndChar

StartChar: semicolon
Encoding: 59 59 26
Width: 571
Flags: W
LayerCount: 2
Fore
SplineSet
398 190 m 1,0,-1
 358 -1 l 2,1,2
 340 -88 340 -88 302 -151.5 c 128,-1,3
 264 -215 264 -215 202 -242 c 1,4,-1
 144 -188 l 1,5,6
 181 -163 181 -163 194.5 -114.5 c 128,-1,7
 208 -66 208 -66 217 4 c 1,8,-1
 149 9 l 1,9,-1
 172 190 l 1,10,-1
 398 190 l 1,0,-1
286 882 m 0,11,12
 342 882 342 882 367.5 855 c 128,-1,13
 393 828 393 828 393 792 c 256,14,15
 393 756 393 756 368.5 729 c 128,-1,16
 344 702 344 702 286 702 c 256,17,18
 228 702 228 702 203 728 c 128,-1,19
 178 754 178 754 178 792 c 0,20,21
 178 828 178 828 203 855 c 128,-1,22
 228 882 228 882 286 882 c 0,11,12
EndSplineSet
EndChar

StartChar: less
Encoding: 60 60 27
Width: 1536
Flags: W
LayerCount: 2
Fore
SplineSet
378 619 m 1,0,-1
 1333 239 l 1,1,-1
 1333 107 l 1,2,-1
 202 567 l 1,3,-1
 202 674 l 1,4,-1
 1333 1134 l 1,5,-1
 1333 1002 l 1,6,-1
 378 619 l 1,0,-1
EndSplineSet
EndChar

StartChar: equal
Encoding: 61 61 28
Width: 1536
Flags: W
LayerCount: 2
Fore
SplineSet
1338 769 m 1,0,-1
 197 769 l 1,1,-1
 197 890 l 1,2,-1
 1338 890 l 1,3,-1
 1338 769 l 1,0,-1
1338 352 m 1,4,-1
 197 352 l 1,5,-1
 197 473 l 1,6,-1
 1338 473 l 1,7,-1
 1338 352 l 1,4,-1
EndSplineSet
EndChar

StartChar: greater
Encoding: 62 62 29
Width: 1536
Flags: W
LayerCount: 2
Fore
SplineSet
1333 567 m 1,0,-1
 202 107 l 1,1,-1
 202 239 l 1,2,-1
 1158 619 l 1,3,-1
 202 1002 l 1,4,-1
 202 1134 l 1,5,-1
 1333 674 l 1,6,-1
 1333 567 l 1,0,-1
EndSplineSet
EndChar

StartChar: question
Encoding: 63 63 30
Width: 980
Flags: W
LayerCount: 2
Fore
SplineSet
492 364 m 1,0,-1
 379 364 l 1,1,2
 378 366 378 366 377 382 c 128,-1,3
 376 398 376 398 375 416.5 c 128,-1,4
 374 435 374 435 373.5 450 c 128,-1,5
 373 465 373 465 373 467 c 0,6,7
 373 522 373 522 388.5 562.5 c 128,-1,8
 404 603 404 603 429.5 634 c 128,-1,9
 455 665 455 665 487.5 689 c 128,-1,10
 520 713 520 713 554.5 735 c 128,-1,11
 589 757 589 757 621.5 780 c 128,-1,12
 654 803 654 803 679.5 831.5 c 128,-1,13
 705 860 705 860 720.5 897 c 128,-1,14
 736 934 736 934 736 984 c 0,15,16
 736 1036 736 1036 716.5 1078.5 c 128,-1,17
 697 1121 697 1121 661.5 1151.5 c 128,-1,18
 626 1182 626 1182 576.5 1198.5 c 128,-1,19
 527 1215 527 1215 467 1215 c 0,20,21
 331 1215 331 1215 268.5 1149 c 128,-1,22
 206 1083 206 1083 205 948 c 1,23,-1
 89 948 l 1,24,-1
 94 1200 l 1,25,26
 170 1255 170 1255 265.5 1285 c 128,-1,27
 361 1315 361 1315 471 1315 c 0,28,29
 572 1315 572 1315 652 1293 c 128,-1,30
 732 1271 732 1271 788 1230.5 c 128,-1,31
 844 1190 844 1190 874 1133 c 128,-1,32
 904 1076 904 1076 904 1005 c 0,33,34
 904 925 904 925 879 870 c 128,-1,35
 854 815 854 815 815 775 c 128,-1,36
 776 735 776 735 729 704 c 128,-1,37
 682 673 682 673 637.5 639 c 128,-1,38
 593 605 593 605 557 563 c 128,-1,39
 521 521 521 521 504 460 c 1,40,-1
 492 364 l 1,0,-1
440 172 m 0,41,42
 468 172 468 172 488.5 164.5 c 128,-1,43
 509 157 509 157 522.5 144.5 c 128,-1,44
 536 132 536 132 542 116 c 128,-1,45
 548 100 548 100 548 82 c 0,46,47
 548 46 548 46 523 18.5 c 128,-1,48
 498 -9 498 -9 440 -9 c 256,49,50
 382 -9 382 -9 357.5 17.5 c 128,-1,51
 333 44 333 44 333 82 c 0,52,53
 333 100 333 100 339 116 c 128,-1,54
 345 132 345 132 358 144.5 c 128,-1,55
 371 157 371 157 391 164.5 c 128,-1,56
 411 172 411 172 440 172 c 0,41,42
EndSplineSet
EndChar

StartChar: at
Encoding: 64 64 31
Width: 1809
Flags: W
LayerCount: 2
Fore
SplineSet
1233 60 m 0,0,1
 1156 60 1156 60 1113 97.5 c 128,-1,2
 1070 135 1070 135 1070 215 c 0,3,4
 1070 223 1070 223 1070.5 231.5 c 128,-1,5
 1071 240 1071 240 1072 249 c 1,6,7
 1071 249 1071 249 1070.5 249.5 c 128,-1,8
 1070 250 1070 250 1069 250 c 0,9,10
 937 61 937 61 753 61 c 0,11,12
 684 61 684 61 627 88 c 128,-1,13
 570 115 570 115 529 164 c 128,-1,14
 488 213 488 213 465.5 281 c 128,-1,15
 443 349 443 349 443 430 c 0,16,17
 443 489 443 489 458 553.5 c 128,-1,18
 473 618 473 618 502 680.5 c 128,-1,19
 531 743 531 743 573 800 c 128,-1,20
 615 857 615 857 669.5 900 c 128,-1,21
 724 943 724 943 790 968.5 c 128,-1,22
 856 994 856 994 933 994 c 0,23,24
 1028 994 1028 994 1092 950.5 c 128,-1,25
 1156 907 1156 907 1192 812 c 1,26,-1
 1234 978 l 1,27,-1
 1372 978 l 1,28,-1
 1219 351 l 1,29,30
 1216 333 1216 333 1211.5 314 c 128,-1,31
 1207 295 1207 295 1203 276.5 c 128,-1,32
 1199 258 1199 258 1196 241 c 128,-1,33
 1193 224 1193 224 1193 211 c 0,34,35
 1193 131 1193 131 1263 131 c 0,36,37
 1296 131 1296 131 1338 147.5 c 128,-1,38
 1380 164 1380 164 1423 196 c 0,39,40
 1475 235 1475 235 1518 287 c 128,-1,41
 1561 339 1561 339 1592 403.5 c 128,-1,42
 1623 468 1623 468 1640 544.5 c 128,-1,43
 1657 621 1657 621 1657 709 c 0,44,45
 1657 827 1657 827 1615.5 937 c 128,-1,46
 1574 1047 1574 1047 1491 1131.5 c 128,-1,47
 1408 1216 1408 1216 1283 1266.5 c 128,-1,48
 1158 1317 1158 1317 990 1317 c 0,49,50
 808 1317 808 1317 657.5 1255 c 128,-1,51
 507 1193 507 1193 399.5 1083 c 128,-1,52
 292 973 292 973 233 823 c 128,-1,53
 174 673 174 673 174 496 c 0,54,55
 174 332 174 332 232 197 c 128,-1,56
 290 62 290 62 394 -34 c 128,-1,57
 498 -130 498 -130 643 -183 c 128,-1,58
 788 -236 788 -236 962 -236 c 0,59,60
 1137 -236 1137 -236 1296.5 -178.5 c 128,-1,61
 1456 -121 1456 -121 1592 9 c 1,62,-1
 1666 -10 l 1,63,64
 1601 -78 1601 -78 1523.5 -133 c 128,-1,65
 1446 -188 1446 -188 1356 -226 c 128,-1,66
 1266 -264 1266 -264 1165.5 -284.5 c 128,-1,67
 1065 -305 1065 -305 956 -305 c 0,68,69
 755 -305 755 -305 591.5 -244.5 c 128,-1,70
 428 -184 428 -184 311.5 -75.5 c 128,-1,71
 195 33 195 33 131.5 183 c 128,-1,72
 68 333 68 333 68 511 c 0,73,74
 68 627 68 627 97 737 c 128,-1,75
 126 847 126 847 180.5 944 c 128,-1,76
 235 1041 235 1041 314.5 1122.5 c 128,-1,77
 394 1204 394 1204 495.5 1262.5 c 128,-1,78
 597 1321 597 1321 718.5 1353.5 c 128,-1,79
 840 1386 840 1386 980 1386 c 0,80,81
 1164 1386 1164 1386 1304.5 1330.5 c 128,-1,82
 1445 1275 1445 1275 1539 1180.5 c 128,-1,83
 1633 1086 1633 1086 1681 961 c 128,-1,84
 1729 836 1729 836 1729 697 c 0,85,86
 1729 607 1729 607 1708.5 525 c 128,-1,87
 1688 443 1688 443 1652.5 372 c 128,-1,88
 1617 301 1617 301 1569.5 243.5 c 128,-1,89
 1522 186 1522 186 1466.5 145 c 128,-1,90
 1411 104 1411 104 1351.5 82 c 128,-1,91
 1292 60 1292 60 1233 60 c 0,0,1
1143 697 m 0,92,93
 1143 747 1143 747 1128.5 789.5 c 128,-1,94
 1114 832 1114 832 1087.5 863 c 128,-1,95
 1061 894 1061 894 1024 911.5 c 128,-1,96
 987 929 987 929 942 929 c 0,97,98
 888 929 888 929 840.5 902 c 128,-1,99
 793 875 793 875 753.5 830.5 c 128,-1,100
 714 786 714 786 683 729 c 128,-1,101
 652 672 652 672 630.5 612 c 128,-1,102
 609 552 609 552 597.5 493 c 128,-1,103
 586 434 586 434 586 387 c 0,104,105
 586 269 586 269 639 203 c 128,-1,106
 692 137 692 137 783 137 c 0,107,108
 834 137 834 137 881 163.5 c 128,-1,109
 928 190 928 190 968 234 c 128,-1,110
 1008 278 1008 278 1040.5 335.5 c 128,-1,111
 1073 393 1073 393 1095.5 455 c 128,-1,112
 1118 517 1118 517 1130.5 579.5 c 128,-1,113
 1143 642 1143 642 1143 697 c 0,92,93
EndSplineSet
EndChar

StartChar: A
Encoding: 65 65 32
Width: 1383
Flags: W
LayerCount: 2
Fore
SplineSet
810 1290 m 1,0,1
 810 1290 810 1290 827 1245 c 128,-1,2
 844 1200 844 1200 872 1126 c 128,-1,3
 900 1052 900 1052 936.5 957.5 c 128,-1,4
 973 863 973 863 1010.5 763.5 c 128,-1,5
 1048 664 1048 664 1084.5 569 c 128,-1,6
 1121 474 1121 474 1150 398.5 c 128,-1,7
 1179 323 1179 323 1197 275.5 c 128,-1,8
 1215 228 1215 228 1216 225 c 0,9,10
 1234 178 1234 178 1245.5 152.5 c 128,-1,11
 1257 127 1257 127 1274 115 c 128,-1,12
 1291 103 1291 103 1320.5 100.5 c 128,-1,13
 1350 98 1350 98 1404 98 c 1,14,-1
 1404 0 l 1,15,16
 1348 0 1348 0 1293 1 c 128,-1,17
 1238 2 1238 2 1179 2 c 0,18,19
 1147 2 1147 2 1117 2 c 128,-1,20
 1087 2 1087 2 1055 2 c 128,-1,21
 1023 2 1023 2 987 1.5 c 128,-1,22
 951 1 951 1 906 0 c 1,23,24
 906 8 906 8 905.5 24.5 c 128,-1,25
 905 41 905 41 905 57 c 2,26,-1
 905 96 l 1,27,28
 951 96 951 96 980 96.5 c 128,-1,29
 1009 97 1009 97 1026 99.5 c 128,-1,30
 1043 102 1043 102 1049.5 107.5 c 128,-1,31
 1056 113 1056 113 1056 123 c 1,32,33
 1054 128 1054 128 1053 136 c 128,-1,34
 1052 144 1052 144 1049 155 c 2,35,-1
 943 473 l 1,36,-1
 420 473 l 1,37,38
 419 471 419 471 411 447.5 c 128,-1,39
 403 424 403 424 391 389.5 c 128,-1,40
 379 355 379 355 365 315 c 128,-1,41
 351 275 351 275 338.5 240.5 c 128,-1,42
 326 206 326 206 318 182.5 c 128,-1,43
 310 159 310 159 310 158 c 0,44,45
 300 133 300 133 300 122 c 0,46,47
 300 103 300 103 320.5 99 c 128,-1,48
 341 95 341 95 389 95 c 2,49,-1
 461 95 l 1,50,-1
 461 0 l 1,51,52
 405 0 405 0 349.5 1 c 128,-1,53
 294 2 294 2 237 2 c 0,54,55
 207 2 207 2 179.5 2 c 128,-1,56
 152 2 152 2 123 2 c 128,-1,57
 94 2 94 2 61.5 1.5 c 128,-1,58
 29 1 29 1 -11 0 c 1,59,-1
 -11 99 l 1,60,61
 39 100 39 100 67.5 101 c 128,-1,62
 96 102 96 102 112 109 c 128,-1,63
 128 116 128 116 136.5 130 c 128,-1,64
 145 144 145 144 155 171 c 0,65,66
 156 174 156 174 167.5 203.5 c 128,-1,67
 179 233 179 233 197.5 281 c 128,-1,68
 216 329 216 329 240 392.5 c 128,-1,69
 264 456 264 456 291.5 527 c 128,-1,70
 319 598 319 598 347.5 672.5 c 128,-1,71
 376 747 376 747 403 818 c 128,-1,72
 430 889 430 889 454.5 952.5 c 128,-1,73
 479 1016 479 1016 497.5 1064 c 128,-1,74
 516 1112 516 1112 527 1141.5 c 128,-1,75
 538 1171 538 1171 539 1174 c 2,76,-1
 579 1290 l 1,77,-1
 810 1290 l 1,0,1
458 574 m 1,78,-1
 906 574 l 1,79,-1
 682 1196 l 1,80,-1
 458 574 l 1,78,-1
EndSplineSet
EndChar

StartChar: B
Encoding: 66 66 33
Width: 1238
Flags: W
LayerCount: 2
Fore
SplineSet
578 1290 m 2,0,1
 721 1290 721 1290 818.5 1268.5 c 128,-1,2
 916 1247 916 1247 975.5 1206 c 128,-1,3
 1035 1165 1035 1165 1060.5 1104.5 c 128,-1,4
 1086 1044 1086 1044 1086 965 c 0,5,6
 1086 749 1086 749 856 677 c 1,7,8
 999 645 999 645 1071 564 c 128,-1,9
 1143 483 1143 483 1143 355 c 0,10,11
 1143 282 1143 282 1119 217.5 c 128,-1,12
 1095 153 1095 153 1038 104.5 c 128,-1,13
 981 56 981 56 887 28 c 128,-1,14
 793 0 793 0 654 0 c 2,15,-1
 58 0 l 1,16,-1
 58 99 l 1,17,-1
 121 99 l 2,18,19
 162 99 162 99 184 104.5 c 128,-1,20
 206 110 206 110 216.5 120 c 128,-1,21
 227 130 227 130 228.5 143.5 c 128,-1,22
 230 157 230 157 230 173 c 2,23,-1
 230 1124 l 2,24,25
 230 1144 230 1144 226 1157 c 128,-1,26
 222 1170 222 1170 204.5 1177.5 c 128,-1,27
 187 1185 187 1185 152.5 1188 c 128,-1,28
 118 1191 118 1191 58 1191 c 1,29,-1
 58 1290 l 1,30,-1
 578 1290 l 2,0,1
412 718 m 1,31,-1
 614 718 l 2,32,33
 685 718 685 718 740 734.5 c 128,-1,34
 795 751 795 751 832 782 c 128,-1,35
 869 813 869 813 888 856.5 c 128,-1,36
 907 900 907 900 907 954 c 0,37,38
 907 1002 907 1002 891 1043.5 c 128,-1,39
 875 1085 875 1085 839 1116 c 128,-1,40
 803 1147 803 1147 744.5 1164.5 c 128,-1,41
 686 1182 686 1182 602 1182 c 2,42,-1
 412 1182 l 1,43,-1
 412 718 l 1,31,-1
412 109 m 1,44,-1
 624 109 l 2,45,46
 795 109 795 109 876 175 c 128,-1,47
 957 241 957 241 957 356 c 0,48,49
 957 425 957 425 934 474.5 c 128,-1,50
 911 524 911 524 862 556.5 c 128,-1,51
 813 589 813 589 736.5 604 c 128,-1,52
 660 619 660 619 553 619 c 2,53,-1
 412 619 l 1,54,-1
 412 109 l 1,44,-1
EndSplineSet
EndChar

StartChar: C
Encoding: 67 67 34
Width: 1413
Flags: W
LayerCount: 2
Fore
SplineSet
792 91 m 0,0,1
 895 91 895 91 973 107.5 c 128,-1,2
 1051 124 1051 124 1104 163.5 c 128,-1,3
 1157 203 1157 203 1184 268.5 c 128,-1,4
 1211 334 1211 334 1212 432 c 1,5,-1
 1328 412 l 1,6,-1
 1318 152 l 1,7,8
 1258 100 1258 100 1191.5 66 c 128,-1,9
 1125 32 1125 32 1055.5 12 c 128,-1,10
 986 -8 986 -8 914.5 -16 c 128,-1,11
 843 -24 843 -24 773 -24 c 0,12,13
 611 -24 611 -24 488.5 24 c 128,-1,14
 366 72 366 72 283 159.5 c 128,-1,15
 200 247 200 247 158 370 c 128,-1,16
 116 493 116 493 116 643 c 0,17,18
 116 796 116 796 164 919.5 c 128,-1,19
 212 1043 212 1043 299 1131 c 128,-1,20
 386 1219 386 1219 507.5 1266.5 c 128,-1,21
 629 1314 629 1314 777 1314 c 0,22,23
 890 1314 890 1314 990 1278 c 128,-1,24
 1090 1242 1090 1242 1164 1177 c 1,25,-1
 1175 1276 l 1,26,-1
 1300 1276 l 1,27,-1
 1300 917 l 1,28,-1
 1184 919 l 1,29,30
 1178 988 1178 988 1147.5 1041 c 128,-1,31
 1117 1094 1117 1094 1066.5 1129.5 c 128,-1,32
 1016 1165 1016 1165 946.5 1183 c 128,-1,33
 877 1201 877 1201 792 1201 c 0,34,35
 682 1201 682 1201 593.5 1162 c 128,-1,36
 505 1123 505 1123 442.5 1051 c 128,-1,37
 380 979 380 979 346 876.5 c 128,-1,38
 312 774 312 774 312 647 c 0,39,40
 312 518 312 518 346 415 c 128,-1,41
 380 312 380 312 442.5 240 c 128,-1,42
 505 168 505 168 593.5 129.5 c 128,-1,43
 682 91 682 91 792 91 c 0,0,1
EndSplineSet
EndChar

StartChar: D
Encoding: 68 68 35
Width: 1477
Flags: W
LayerCount: 2
Fore
SplineSet
566 1290 m 2,0,1
 966 1290 966 1290 1168 1134.5 c 128,-1,2
 1370 979 1370 979 1370 659 c 0,3,4
 1370 493 1370 493 1323.5 369.5 c 128,-1,5
 1277 246 1277 246 1180 164 c 128,-1,6
 1083 82 1083 82 933.5 41 c 128,-1,7
 784 0 784 0 577 0 c 2,8,-1
 50 0 l 1,9,-1
 50 99 l 1,10,-1
 115 99 l 2,11,12
 157 99 157 99 179.5 105 c 128,-1,13
 202 111 202 111 212.5 122.5 c 128,-1,14
 223 134 223 134 225 151.5 c 128,-1,15
 227 169 227 169 227 192 c 2,16,17
 227 192 227 192 227 231.5 c 128,-1,18
 227 271 227 271 226.5 335.5 c 128,-1,19
 226 400 226 400 226 482.5 c 128,-1,20
 226 565 226 565 226 651 c 2,21,-1
 226 1108 l 2,22,23
 226 1138 226 1138 219 1154.5 c 128,-1,24
 212 1171 212 1171 192.5 1179.5 c 128,-1,25
 173 1188 173 1188 138.5 1190 c 128,-1,26
 104 1192 104 1192 50 1192 c 1,27,-1
 50 1290 l 1,28,-1
 566 1290 l 2,0,1
409 111 m 1,29,-1
 614 111 l 2,30,31
 749 111 749 111 853.5 142 c 128,-1,32
 958 173 958 173 1029.5 239 c 128,-1,33
 1101 305 1101 305 1138 408 c 128,-1,34
 1175 511 1175 511 1175 655 c 0,35,36
 1175 789 1175 789 1138.5 888 c 128,-1,37
 1102 987 1102 987 1031 1052 c 128,-1,38
 960 1117 960 1117 855.5 1149 c 128,-1,39
 751 1181 751 1181 615 1181 c 2,40,-1
 409 1181 l 1,41,-1
 409 111 l 1,29,-1
EndSplineSet
EndChar

StartChar: E
Encoding: 69 69 36
Width: 1219
Flags: W
LayerCount: 2
Fore
SplineSet
1125 1288 m 1,0,-1
 1125 962 l 1,1,-1
 1012 962 l 1,2,-1
 1012 1010 l 2,3,4
 1012 1072 1012 1072 1007.5 1105.5 c 128,-1,5
 1003 1139 1003 1139 994 1154.5 c 128,-1,6
 985 1170 985 1170 971.5 1172.5 c 128,-1,7
 958 1175 958 1175 940 1175 c 2,8,-1
 409 1175 l 1,9,-1
 409 713 l 1,10,-1
 754 713 l 2,11,12
 764 713 764 713 771 714.5 c 128,-1,13
 778 716 778 716 783 725.5 c 128,-1,14
 788 735 788 735 791.5 757 c 128,-1,15
 795 779 795 779 798 821 c 1,16,-1
 878 821 l 1,17,-1
 878 499 l 1,18,-1
 798 499 l 1,19,20
 795 540 795 540 791 562.5 c 128,-1,21
 787 585 787 585 781 595.5 c 128,-1,22
 775 606 775 606 767 608 c 128,-1,23
 759 610 759 610 748 610 c 2,24,-1
 409 610 l 1,25,-1
 409 112 l 1,26,-1
 949 112 l 2,27,28
 972 112 972 112 985.5 121.5 c 128,-1,29
 999 131 999 131 1005.5 157 c 128,-1,30
 1012 183 1012 183 1014 229 c 128,-1,31
 1016 275 1016 275 1016 348 c 1,32,-1
 1128 348 l 1,33,-1
 1128 0 l 1,34,-1
 47 0 l 1,35,-1
 47 99 l 1,36,-1
 162 99 l 2,37,38
 186 99 186 99 199 106 c 128,-1,39
 212 113 212 113 218 125 c 128,-1,40
 224 137 224 137 225 151.5 c 128,-1,41
 226 166 226 166 226 181 c 2,42,-1
 226 1096 l 2,43,44
 226 1120 226 1120 225.5 1137.5 c 128,-1,45
 225 1155 225 1155 219.5 1167 c 128,-1,46
 214 1179 214 1179 200.5 1185 c 128,-1,47
 187 1191 187 1191 162 1191 c 2,48,-1
 55 1191 l 1,49,-1
 55 1288 l 1,50,-1
 1125 1288 l 1,0,-1
EndSplineSet
EndChar

StartChar: F
Encoding: 70 70 37
Width: 1106
Flags: W
LayerCount: 2
Fore
SplineSet
1094 1290 m 1,0,-1
 1094 960 l 1,1,-1
 983 960 l 1,2,-1
 983 1001 l 2,3,4
 983 1067 983 1067 979 1102.5 c 128,-1,5
 975 1138 975 1138 965.5 1154.5 c 128,-1,6
 956 1171 956 1171 940.5 1173.5 c 128,-1,7
 925 1176 925 1176 903 1176 c 2,8,-1
 409 1176 l 1,9,-1
 409 714 l 1,10,-1
 696 714 l 2,11,12
 704 714 704 714 711.5 713.5 c 128,-1,13
 719 713 719 713 726 713 c 0,14,15
 738 713 738 713 747 715.5 c 128,-1,16
 756 718 756 718 762 727 c 128,-1,17
 768 736 768 736 771.5 752.5 c 128,-1,18
 775 769 775 769 776 798 c 1,19,-1
 847 798 l 1,20,-1
 847 527 l 1,21,-1
 776 527 l 1,22,23
 775 558 775 558 770 575 c 128,-1,24
 765 592 765 592 755 600 c 128,-1,25
 745 608 745 608 731 609.5 c 128,-1,26
 717 611 717 611 698 611 c 2,27,-1
 409 611 l 1,28,-1
 409 166 l 2,29,30
 409 141 409 141 416 127.5 c 128,-1,31
 423 114 423 114 438 107.5 c 128,-1,32
 453 101 453 101 478 100 c 128,-1,33
 503 99 503 99 539 99 c 2,34,-1
 593 99 l 1,35,-1
 593 0 l 1,36,37
 562 0 562 0 532.5 0 c 128,-1,38
 503 0 503 0 471.5 0 c 128,-1,39
 440 0 440 0 404 0.5 c 128,-1,40
 368 1 368 1 325 2 c 1,41,42
 279 2 279 2 242.5 1.5 c 128,-1,43
 206 1 206 1 173.5 1 c 128,-1,44
 141 1 141 1 110 0.5 c 128,-1,45
 79 0 79 0 46 0 c 1,46,-1
 46 99 l 1,47,-1
 163 99 l 2,48,49
 185 99 185 99 198 104 c 128,-1,50
 211 109 211 109 217 119 c 128,-1,51
 223 129 223 129 224.5 144 c 128,-1,52
 226 159 226 159 226 179 c 2,53,-1
 226 1101 l 2,54,55
 226 1126 226 1126 225.5 1143.5 c 128,-1,56
 225 1161 225 1161 219 1171.5 c 128,-1,57
 213 1182 213 1182 200 1186.5 c 128,-1,58
 187 1191 187 1191 163 1191 c 2,59,-1
 52 1191 l 1,60,-1
 52 1290 l 1,61,-1
 1094 1290 l 1,0,-1
EndSplineSet
EndChar

StartChar: G
Encoding: 71 71 38
Width: 1529
Flags: W
LayerCount: 2
Fore
SplineSet
1299 918 m 1,0,-1
 1181 918 l 1,1,2
 1172 985 1172 985 1142 1037.5 c 128,-1,3
 1112 1090 1112 1090 1062.5 1126 c 128,-1,4
 1013 1162 1013 1162 945.5 1181 c 128,-1,5
 878 1200 878 1200 795 1200 c 0,6,7
 680 1200 680 1200 588.5 1161.5 c 128,-1,8
 497 1123 497 1123 433 1051.5 c 128,-1,9
 369 980 369 980 335 878 c 128,-1,10
 301 776 301 776 301 648 c 0,11,12
 301 518 301 518 335.5 415 c 128,-1,13
 370 312 370 312 435 240.5 c 128,-1,14
 500 169 500 169 593.5 131 c 128,-1,15
 687 93 687 93 806 93 c 0,16,17
 992 93 992 93 1087 147.5 c 128,-1,18
 1182 202 1182 202 1182 315 c 2,19,-1
 1182 447 l 2,20,21
 1182 467 1182 467 1179 477.5 c 128,-1,22
 1176 488 1176 488 1163.5 493 c 128,-1,23
 1151 498 1151 498 1125 498.5 c 128,-1,24
 1099 499 1099 499 1054 499 c 2,25,-1
 929 499 l 1,26,-1
 929 604 l 1,27,28
 962 604 962 604 994.5 603.5 c 128,-1,29
 1027 603 1027 603 1064.5 603 c 128,-1,30
 1102 603 1102 603 1145.5 602.5 c 128,-1,31
 1189 602 1189 602 1243 602 c 0,32,33
 1262 602 1262 602 1289 602.5 c 128,-1,34
 1316 603 1316 603 1344.5 603 c 128,-1,35
 1373 603 1373 603 1400.5 603.5 c 128,-1,36
 1428 604 1428 604 1449 604 c 1,37,38
 1449 602 1449 602 1448 586.5 c 128,-1,39
 1447 571 1447 571 1446.5 552.5 c 128,-1,40
 1446 534 1446 534 1445 518.5 c 128,-1,41
 1444 503 1444 503 1444 501 c 1,42,43
 1399 500 1399 500 1374 497.5 c 128,-1,44
 1349 495 1349 495 1337 489 c 128,-1,45
 1325 483 1325 483 1322.5 473.5 c 128,-1,46
 1320 464 1320 464 1320 448 c 0,47,48
 1320 394 1320 394 1314.5 317.5 c 128,-1,49
 1309 241 1309 241 1304 160 c 1,50,51
 1249 104 1249 104 1187.5 68 c 128,-1,52
 1126 32 1126 32 1062.5 11.5 c 128,-1,53
 999 -9 999 -9 935 -16.5 c 128,-1,54
 871 -24 871 -24 811 -24 c 0,55,56
 637 -24 637 -24 505 23.5 c 128,-1,57
 373 71 373 71 283.5 158.5 c 128,-1,58
 194 246 194 246 149 369.5 c 128,-1,59
 104 493 104 493 104 645 c 0,60,61
 104 793 104 793 153 916.5 c 128,-1,62
 202 1040 202 1040 289 1128.5 c 128,-1,63
 376 1217 376 1217 496 1266 c 128,-1,64
 616 1315 616 1315 758 1315 c 0,65,66
 877 1315 877 1315 981.5 1280.5 c 128,-1,67
 1086 1246 1086 1246 1164 1171 c 1,68,-1
 1174 1274 l 1,69,-1
 1299 1274 l 1,70,-1
 1299 918 l 1,0,-1
EndSplineSet
EndChar

StartChar: H
Encoding: 72 72 39
Width: 1489
Flags: W
LayerCount: 2
Fore
SplineSet
60 1290 m 1,0,1
 93 1290 93 1290 130 1289.5 c 128,-1,2
 167 1289 167 1289 206 1289 c 128,-1,3
 245 1289 245 1289 284 1288.5 c 128,-1,4
 323 1288 323 1288 359 1288 c 0,5,6
 363 1288 363 1288 390 1288.5 c 128,-1,7
 417 1289 417 1289 452 1289 c 128,-1,8
 487 1289 487 1289 522.5 1289.5 c 128,-1,9
 558 1290 558 1290 580 1290 c 1,10,-1
 580 1191 l 1,11,-1
 532 1191 l 2,12,13
 486 1191 486 1191 461.5 1187.5 c 128,-1,14
 437 1184 437 1184 425.5 1175.5 c 128,-1,15
 414 1167 414 1167 412 1153 c 128,-1,16
 410 1139 410 1139 410 1118 c 2,17,-1
 410 725 l 1,18,-1
 1079 725 l 1,19,-1
 1079 1126 l 2,20,21
 1079 1150 1079 1150 1073.5 1163.5 c 128,-1,22
 1068 1177 1068 1177 1053.5 1183 c 128,-1,23
 1039 1189 1039 1189 1015.5 1190 c 128,-1,24
 992 1191 992 1191 956 1191 c 2,25,-1
 908 1191 l 1,26,-1
 908 1290 l 1,27,28
 981 1288 981 1288 1052 1288 c 128,-1,29
 1123 1288 1123 1288 1187 1288 c 0,30,31
 1191 1288 1191 1288 1220 1288.5 c 128,-1,32
 1249 1289 1249 1289 1287.5 1289 c 128,-1,33
 1326 1289 1326 1289 1365.5 1289.5 c 128,-1,34
 1405 1290 1405 1290 1429 1290 c 1,35,-1
 1429 1191 l 1,36,-1
 1382 1191 l 2,37,38
 1337 1191 1337 1191 1312.5 1187.5 c 128,-1,39
 1288 1184 1288 1184 1276.5 1176 c 128,-1,40
 1265 1168 1265 1168 1263 1156 c 128,-1,41
 1261 1144 1261 1144 1261 1126 c 2,42,-1
 1261 183 l 2,43,44
 1261 175 1261 175 1260.5 167.5 c 128,-1,45
 1260 160 1260 160 1260 153 c 0,46,47
 1260 139 1260 139 1263.5 129 c 128,-1,48
 1267 119 1267 119 1279.5 112 c 128,-1,49
 1292 105 1292 105 1316 102 c 128,-1,50
 1340 99 1340 99 1382 99 c 2,51,-1
 1429 99 l 1,52,-1
 1429 0 l 1,53,54
 1396 0 1396 0 1364 0.5 c 128,-1,55
 1332 1 1332 1 1298.5 1 c 128,-1,56
 1265 1 1265 1 1228 1.5 c 128,-1,57
 1191 2 1191 2 1146 2 c 0,58,59
 1108 2 1108 2 1076 1.5 c 128,-1,60
 1044 1 1044 1 1015.5 1 c 128,-1,61
 987 1 987 1 961 0.5 c 128,-1,62
 935 0 935 0 908 0 c 1,63,-1
 908 99 l 1,64,-1
 956 99 l 2,65,66
 1001 99 1001 99 1026 104.5 c 128,-1,67
 1051 110 1051 110 1063 120.5 c 128,-1,68
 1075 131 1075 131 1077 145.5 c 128,-1,69
 1079 160 1079 160 1079 179 c 2,70,-1
 1079 618 l 1,71,-1
 410 618 l 1,72,-1
 410 173 l 2,73,74
 410 144 410 144 415 129 c 128,-1,75
 420 114 420 114 433.5 107 c 128,-1,76
 447 100 447 100 471 99.5 c 128,-1,77
 495 99 495 99 532 99 c 2,78,-1
 580 99 l 1,79,-1
 580 0 l 1,80,81
 552 0 552 0 526 0.5 c 128,-1,82
 500 1 500 1 472.5 1 c 128,-1,83
 445 1 445 1 413 1.5 c 128,-1,84
 381 2 381 2 342 2 c 0,85,86
 297 2 297 2 259.5 1.5 c 128,-1,87
 222 1 222 1 189 1 c 128,-1,88
 156 1 156 1 124.5 0.5 c 128,-1,89
 93 0 93 0 60 0 c 1,90,-1
 60 99 l 1,91,-1
 107 99 l 2,92,93
 152 99 152 99 177 105 c 128,-1,94
 202 111 202 111 213 121.5 c 128,-1,95
 224 132 224 132 226 146 c 128,-1,96
 228 160 228 160 228 177 c 2,97,-1
 228 1129 l 2,98,99
 228 1146 228 1146 226 1158 c 128,-1,100
 224 1170 224 1170 212.5 1177.5 c 128,-1,101
 201 1185 201 1185 176.5 1188 c 128,-1,102
 152 1191 152 1191 107 1191 c 2,103,-1
 60 1191 l 1,104,-1
 60 1290 l 1,0,1
EndSplineSet
EndChar

StartChar: I
Encoding: 73 73 40
Width: 656
Flags: W
LayerCount: 2
Fore
SplineSet
68 1290 m 1,0,1
 115 1288 115 1288 150 1287.5 c 128,-1,2
 185 1287 185 1287 220 1287 c 0,3,4
 308 1287 308 1287 368.5 1287.5 c 128,-1,5
 429 1288 429 1288 470.5 1288.5 c 128,-1,6
 512 1289 512 1289 539.5 1289.5 c 128,-1,7
 567 1290 567 1290 591 1290 c 1,8,-1
 591 1191 l 1,9,-1
 542 1191 l 2,10,11
 497 1191 497 1191 472 1186 c 128,-1,12
 447 1181 447 1181 435.5 1171.5 c 128,-1,13
 424 1162 424 1162 422 1149 c 128,-1,14
 420 1136 420 1136 420 1121 c 2,15,-1
 420 162 l 2,16,17
 420 143 420 143 422 131 c 128,-1,18
 424 119 424 119 435 112 c 128,-1,19
 446 105 446 105 471 102 c 128,-1,20
 496 99 496 99 542 99 c 2,21,-1
 591 99 l 1,22,-1
 591 0 l 1,23,24
 560 0 560 0 531.5 0.5 c 128,-1,25
 503 1 503 1 472.5 1 c 128,-1,26
 442 1 442 1 407 1.5 c 128,-1,27
 372 2 372 2 328 2 c 0,28,29
 248 2 248 2 187.5 1 c 128,-1,30
 127 0 127 0 68 0 c 1,31,-1
 68 99 l 1,32,-1
 116 99 l 2,33,34
 162 99 162 99 186.5 104 c 128,-1,35
 211 109 211 109 222.5 118.5 c 128,-1,36
 234 128 234 128 236 141 c 128,-1,37
 238 154 238 154 238 169 c 2,38,-1
 238 1114 l 2,39,40
 238 1136 238 1136 235.5 1151 c 128,-1,41
 233 1166 233 1166 221.5 1175 c 128,-1,42
 210 1184 210 1184 185.5 1187.5 c 128,-1,43
 161 1191 161 1191 116 1191 c 2,44,-1
 68 1191 l 1,45,-1
 68 1290 l 1,0,1
EndSplineSet
EndChar

StartChar: J
Encoding: 74 74 41
Width: 763
Flags: W
LayerCount: 2
Fore
SplineSet
198 1290 m 2,0,1
 225 1290 225 1290 252.5 1289.5 c 128,-1,2
 280 1289 280 1289 313 1288.5 c 128,-1,3
 346 1288 346 1288 386 1287.5 c 128,-1,4
 426 1287 426 1287 479 1287 c 0,5,6
 483 1287 483 1287 511.5 1287.5 c 128,-1,7
 540 1288 540 1288 578 1288.5 c 128,-1,8
 616 1289 616 1289 656.5 1289.5 c 128,-1,9
 697 1290 697 1290 724 1290 c 1,10,-1
 724 1191 l 1,11,-1
 640 1191 l 2,12,13
 604 1191 604 1191 584.5 1184.5 c 128,-1,14
 565 1178 565 1178 556 1167 c 128,-1,15
 547 1156 547 1156 545.5 1141.5 c 128,-1,16
 544 1127 544 1127 544 1111 c 2,17,-1
 544 278 l 2,18,19
 544 144 544 144 530.5 48.5 c 128,-1,20
 517 -47 517 -47 478 -108 c 128,-1,21
 439 -169 439 -169 367 -198 c 128,-1,22
 295 -227 295 -227 178 -227 c 0,23,24
 121 -227 121 -227 72.5 -220 c 128,-1,25
 24 -213 24 -213 -20 -200 c 1,26,-1
 -20 42 l 1,27,28
 -19 42 -19 42 -3.5 40 c 128,-1,29
 12 38 12 38 30 36 c 128,-1,30
 48 34 48 34 63.5 32.5 c 128,-1,31
 79 31 79 31 80 31 c 0,32,33
 86 -9 86 -9 94.5 -35.5 c 128,-1,34
 103 -62 103 -62 116.5 -77.5 c 128,-1,35
 130 -93 130 -93 149 -99.5 c 128,-1,36
 168 -106 168 -106 194 -106 c 1,37,38
 252 -100 252 -100 285.5 -72.5 c 128,-1,39
 319 -45 319 -45 336 0 c 128,-1,40
 353 45 353 45 357 106 c 128,-1,41
 361 167 361 167 361 240 c 2,42,-1
 361 1110 l 2,43,44
 361 1129 361 1129 359.5 1144 c 128,-1,45
 358 1159 358 1159 349 1169.5 c 128,-1,46
 340 1180 340 1180 320 1185.5 c 128,-1,47
 300 1191 300 1191 263 1191 c 2,48,-1
 161 1191 l 1,49,-1
 161 1290 l 1,50,-1
 198 1290 l 2,0,1
EndSplineSet
EndChar

StartChar: K
Encoding: 75 75 42
Width: 1294
Flags: W
LayerCount: 2
Fore
SplineSet
864 1133 m 2,0,1
 900 1166 900 1166 900 1177 c 256,2,3
 900 1188 900 1188 880 1189.5 c 128,-1,4
 860 1191 860 1191 827 1191 c 2,5,-1
 776 1191 l 1,6,-1
 776 1290 l 1,7,8
 809 1288 809 1288 852.5 1287.5 c 128,-1,9
 896 1287 896 1287 939 1287 c 0,10,11
 962 1287 962 1287 984 1287.5 c 128,-1,12
 1006 1288 1006 1288 1026 1288 c 2,13,-1
 1248 1290 l 1,14,-1
 1248 1191 l 1,15,16
 1224 1191 1224 1191 1205.5 1191.5 c 128,-1,17
 1187 1192 1187 1192 1172 1192 c 0,18,19
 1147 1192 1147 1192 1129 1188.5 c 128,-1,20
 1111 1185 1111 1185 1090.5 1174 c 128,-1,21
 1070 1163 1070 1163 1042.5 1141 c 128,-1,22
 1015 1119 1015 1119 972 1082 c 2,23,-1
 547 706 l 1,24,-1
 1072 155 l 2,25,26
 1093 132 1093 132 1110 120.5 c 128,-1,27
 1127 109 1127 109 1148 104.5 c 128,-1,28
 1169 100 1169 100 1198.5 99.5 c 128,-1,29
 1228 99 1228 99 1275 99 c 1,30,-1
 1275 0 l 1,31,32
 1222 0 1222 0 1153.5 1 c 128,-1,33
 1085 2 1085 2 1010 2 c 0,34,35
 975 2 975 2 939 1.5 c 128,-1,36
 903 1 903 1 869 1 c 128,-1,37
 835 1 835 1 804.5 0.5 c 128,-1,38
 774 0 774 0 750 0 c 1,39,-1
 750 99 l 1,40,-1
 858 99 l 2,41,42
 884 99 884 99 896 100 c 128,-1,43
 908 101 908 101 908 108 c 0,44,45
 908 114 908 114 900.5 124 c 128,-1,46
 893 134 893 134 876 152 c 2,47,-1
 431 623 l 1,48,-1
 365 568 l 1,49,-1
 365 164 l 2,50,51
 365 146 365 146 366.5 133.5 c 128,-1,52
 368 121 368 121 379.5 113.5 c 128,-1,53
 391 106 391 106 415.5 102.5 c 128,-1,54
 440 99 440 99 486 99 c 2,55,-1
 536 99 l 1,56,-1
 536 0 l 1,57,58
 483 0 483 0 416 1 c 128,-1,59
 349 2 349 2 274 2 c 0,60,61
 205 2 205 2 134.5 1 c 128,-1,62
 64 0 64 0 13 0 c 1,63,-1
 13 99 l 1,64,-1
 62 99 l 2,65,66
 107 99 107 99 131.5 104.5 c 128,-1,67
 156 110 156 110 167.5 119 c 128,-1,68
 179 128 179 128 181 140.5 c 128,-1,69
 183 153 183 153 183 167 c 2,70,-1
 183 1116 l 2,71,72
 183 1137 183 1137 180.5 1151 c 128,-1,73
 178 1165 178 1165 166.5 1174 c 128,-1,74
 155 1183 155 1183 130.5 1187 c 128,-1,75
 106 1191 106 1191 62 1191 c 2,76,-1
 13 1191 l 1,77,-1
 13 1290 l 1,78,79
 64 1288 64 1288 112.5 1287 c 128,-1,80
 161 1286 161 1286 209 1286 c 0,81,82
 224 1286 224 1286 238.5 1286.5 c 128,-1,83
 253 1287 253 1287 268 1287 c 0,84,85
 272 1287 272 1287 292 1287 c 128,-1,86
 312 1287 312 1287 340 1287.5 c 128,-1,87
 368 1288 368 1288 400.5 1288.5 c 128,-1,88
 433 1289 433 1289 462 1289.5 c 128,-1,89
 491 1290 491 1290 512 1290 c 128,-1,90
 533 1290 533 1290 538 1290 c 1,91,-1
 538 1191 l 1,92,-1
 486 1191 l 2,93,94
 441 1191 441 1191 416.5 1185 c 128,-1,95
 392 1179 392 1179 380.5 1169.5 c 128,-1,96
 369 1160 369 1160 367 1147 c 128,-1,97
 365 1134 365 1134 365 1119 c 2,98,-1
 365 687 l 1,99,-1
 864 1133 l 2,0,1
EndSplineSet
EndChar

StartChar: L
Encoding: 76 76 43
Width: 1088
Flags: W
LayerCount: 2
Fore
SplineSet
56 1290 m 1,0,1
 123 1287 123 1287 204 1287 c 0,2,3
 301 1287 301 1287 395.5 1287 c 128,-1,4
 490 1287 490 1287 596 1290 c 1,5,-1
 596 1191 l 1,6,-1
 525 1191 l 2,7,8
 484 1191 484 1191 462 1184 c 128,-1,9
 440 1177 440 1177 429.5 1165.5 c 128,-1,10
 419 1154 419 1154 417 1138.5 c 128,-1,11
 415 1123 415 1123 415 1106 c 2,12,-1
 415 114 l 1,13,-1
 870 114 l 2,14,15
 894 114 894 114 907 136 c 128,-1,16
 920 158 920 158 926 200 c 128,-1,17
 932 242 932 242 933 302.5 c 128,-1,18
 934 363 934 363 934 440 c 1,19,-1
 1049 440 l 1,20,-1
 1049 0 l 1,21,-1
 56 0 l 1,22,-1
 56 99 l 1,23,-1
 107 99 l 2,24,25
 154 99 154 99 179.5 106 c 128,-1,26
 205 113 205 113 216.5 126 c 128,-1,27
 228 139 228 139 230 155.5 c 128,-1,28
 232 172 232 172 232 192 c 2,29,-1
 232 1095 l 2,30,31
 232 1103 232 1103 232.5 1111 c 128,-1,32
 233 1119 233 1119 233 1127 c 0,33,34
 233 1142 233 1142 229.5 1154 c 128,-1,35
 226 1166 226 1166 213 1174 c 128,-1,36
 200 1182 200 1182 175 1186.5 c 128,-1,37
 150 1191 150 1191 107 1191 c 2,38,-1
 56 1191 l 1,39,-1
 56 1290 l 1,0,1
EndSplineSet
EndChar

StartChar: M
Encoding: 77 77 44
Width: 1766
Flags: W
LayerCount: 2
Fore
SplineSet
59 1290 m 1,0,1
 119 1288 119 1288 184.5 1288 c 128,-1,2
 250 1288 250 1288 304 1288 c 0,3,4
 309 1288 309 1288 335.5 1288.5 c 128,-1,5
 362 1289 362 1289 393 1289 c 128,-1,6
 424 1289 424 1289 451.5 1289.5 c 128,-1,7
 479 1290 479 1290 486 1290 c 1,8,-1
 882 212 l 1,9,10
 883 217 883 217 900.5 264.5 c 128,-1,11
 918 312 918 312 945.5 387.5 c 128,-1,12
 973 463 973 463 1008 557.5 c 128,-1,13
 1043 652 1043 652 1079.5 750.5 c 128,-1,14
 1116 849 1116 849 1151 943.5 c 128,-1,15
 1186 1038 1186 1038 1214 1113.5 c 128,-1,16
 1242 1189 1242 1189 1259.5 1237 c 128,-1,17
 1277 1285 1277 1285 1279 1290 c 1,18,19
 1283 1290 1283 1290 1300 1290 c 128,-1,20
 1317 1290 1317 1290 1340 1289.5 c 128,-1,21
 1363 1289 1363 1289 1388.5 1288.5 c 128,-1,22
 1414 1288 1414 1288 1437 1287.5 c 128,-1,23
 1460 1287 1460 1287 1476 1287 c 128,-1,24
 1492 1287 1492 1287 1496 1287 c 0,25,26
 1521 1287 1521 1287 1549.5 1287 c 128,-1,27
 1578 1287 1578 1287 1606.5 1287.5 c 128,-1,28
 1635 1288 1635 1288 1662 1288.5 c 128,-1,29
 1689 1289 1689 1289 1712 1290 c 1,30,-1
 1712 1191 l 1,31,-1
 1650 1191 l 2,32,33
 1611 1191 1611 1191 1589.5 1186.5 c 128,-1,34
 1568 1182 1568 1182 1558 1173.5 c 128,-1,35
 1548 1165 1548 1165 1546 1152 c 128,-1,36
 1544 1139 1544 1139 1544 1122 c 2,37,-1
 1544 188 l 2,38,39
 1544 156 1544 156 1548.5 138 c 128,-1,40
 1553 120 1553 120 1565 111.5 c 128,-1,41
 1577 103 1577 103 1598.5 101 c 128,-1,42
 1620 99 1620 99 1654 99 c 2,43,-1
 1715 99 l 1,44,-1
 1715 0 l 1,45,46
 1680 0 1680 0 1647.5 0.5 c 128,-1,47
 1615 1 1615 1 1580.5 1 c 128,-1,48
 1546 1 1546 1 1507 1.5 c 128,-1,49
 1468 2 1468 2 1420 2 c 0,50,51
 1383 2 1383 2 1354.5 1.5 c 128,-1,52
 1326 1 1326 1 1302 1 c 128,-1,53
 1278 1 1278 1 1255.5 0.5 c 128,-1,54
 1233 0 1233 0 1208 0 c 1,55,-1
 1208 99 l 1,56,-1
 1268 99 l 2,57,58
 1308 99 1308 99 1330.5 105.5 c 128,-1,59
 1353 112 1353 112 1363.5 124 c 128,-1,60
 1374 136 1374 136 1376 152.5 c 128,-1,61
 1378 169 1378 169 1378 189 c 2,62,-1
 1378 1200 l 1,63,-1
 1287 962 l 1,64,-1
 925 0 l 1,65,-1
 812 0 l 1,66,67
 775 95 775 95 736 199 c 128,-1,68
 697 303 697 303 657.5 409.5 c 128,-1,69
 618 516 618 516 578 622.5 c 128,-1,70
 538 729 538 729 500 830 c 128,-1,71
 462 931 462 931 427 1024 c 128,-1,72
 392 1117 392 1117 361 1196 c 1,73,-1
 361 181 l 2,74,75
 361 152 361 152 364.5 135.5 c 128,-1,76
 368 119 368 119 379 111 c 128,-1,77
 390 103 390 103 411 101 c 128,-1,78
 432 99 432 99 467 99 c 2,79,-1
 527 99 l 1,80,-1
 527 0 l 1,81,82
 501 0 501 0 478 0.5 c 128,-1,83
 455 1 455 1 429.5 1 c 128,-1,84
 404 1 404 1 375 1.5 c 128,-1,85
 346 2 346 2 309 2 c 0,86,87
 269 2 269 2 235 1.5 c 128,-1,88
 201 1 201 1 170.5 1 c 128,-1,89
 140 1 140 1 111 0.5 c 128,-1,90
 82 0 82 0 52 0 c 1,91,-1
 52 99 l 1,92,-1
 114 99 l 2,93,94
 159 99 159 99 181.5 104 c 128,-1,95
 204 109 204 109 213.5 119 c 128,-1,96
 223 129 223 129 223.5 145 c 128,-1,97
 224 161 224 161 224 183 c 2,98,-1
 225 1119 l 2,99,100
 225 1144 225 1144 219 1158.5 c 128,-1,101
 213 1173 213 1173 200.5 1180 c 128,-1,102
 188 1187 188 1187 167.5 1189 c 128,-1,103
 147 1191 147 1191 118 1191 c 2,104,-1
 59 1191 l 1,105,-1
 59 1290 l 1,0,1
EndSplineSet
EndChar

StartChar: N
Encoding: 78 78 45
Width: 1441
Flags: W
LayerCount: 2
Fore
SplineSet
44 1290 m 1,0,1
 44 1290 44 1290 56 1290 c 128,-1,2
 68 1290 68 1290 87 1290 c 128,-1,3
 106 1290 106 1290 128.5 1290 c 128,-1,4
 151 1290 151 1290 172 1289.5 c 128,-1,5
 193 1289 193 1289 210 1289 c 128,-1,6
 227 1289 227 1289 234 1289 c 0,7,8
 254 1289 254 1289 279 1289 c 128,-1,9
 304 1289 304 1289 330.5 1289.5 c 128,-1,10
 357 1290 357 1290 383 1290 c 128,-1,11
 409 1290 409 1290 430 1290 c 1,12,-1
 1096 187 l 1,13,-1
 1098 187 l 1,14,-1
 1098 1119 l 2,15,16
 1098 1145 1098 1145 1092 1159.5 c 128,-1,17
 1086 1174 1086 1174 1072 1181 c 128,-1,18
 1058 1188 1058 1188 1033.5 1189.5 c 128,-1,19
 1009 1191 1009 1191 972 1191 c 2,20,-1
 920 1191 l 1,21,-1
 920 1290 l 1,22,23
 999 1290 999 1290 1053 1288.5 c 128,-1,24
 1107 1287 1107 1287 1151 1287 c 0,25,26
 1156 1287 1156 1287 1170 1287 c 128,-1,27
 1184 1287 1184 1287 1202.5 1287 c 128,-1,28
 1221 1287 1221 1287 1243.5 1287.5 c 128,-1,29
 1266 1288 1266 1288 1288 1288 c 0,30,31
 1340 1289 1340 1289 1403 1290 c 1,32,-1
 1403 1191 l 1,33,-1
 1340 1191 l 2,34,35
 1301 1191 1301 1191 1279.5 1186.5 c 128,-1,36
 1258 1182 1258 1182 1248 1173 c 128,-1,37
 1238 1164 1238 1164 1236 1151 c 128,-1,38
 1234 1138 1234 1138 1234 1121 c 2,39,40
 1234 1121 1234 1121 1234 1099.5 c 128,-1,41
 1234 1078 1234 1078 1233.5 1038.5 c 128,-1,42
 1233 999 1233 999 1233 944 c 128,-1,43
 1233 889 1233 889 1233 824 c 2,44,-1
 1233 281 l 2,45,46
 1233 134 1233 134 1234 -10 c 1,47,-1
 1040 -10 l 1,48,-1
 352 1124 l 1,49,-1
 350 1124 l 1,50,-1
 350 175 l 2,51,52
 350 147 350 147 355.5 131.5 c 128,-1,53
 361 116 361 116 375 109 c 128,-1,54
 389 102 389 102 413.5 100.5 c 128,-1,55
 438 99 438 99 477 99 c 2,56,-1
 531 99 l 1,57,-1
 531 0 l 1,58,59
 504 0 504 0 479 0.5 c 128,-1,60
 454 1 454 1 427.5 1 c 128,-1,61
 401 1 401 1 371 1.5 c 128,-1,62
 341 2 341 2 303 2 c 0,63,64
 262 2 262 2 227.5 1.5 c 128,-1,65
 193 1 193 1 161.5 1 c 128,-1,66
 130 1 130 1 99.5 0.5 c 128,-1,67
 69 0 69 0 38 0 c 1,68,-1
 38 99 l 1,69,-1
 102 99 l 2,70,71
 144 99 144 99 167 103 c 128,-1,72
 190 107 190 107 200.5 117 c 128,-1,73
 211 127 211 127 212.5 142.5 c 128,-1,74
 214 158 214 158 214 181 c 2,75,-1
 214 1109 l 2,76,77
 214 1139 214 1139 210 1155.5 c 128,-1,78
 206 1172 206 1172 194.5 1180 c 128,-1,79
 183 1188 183 1188 161.5 1189.5 c 128,-1,80
 140 1191 140 1191 105 1191 c 2,81,-1
 43 1191 l 1,82,83
 43 1200 43 1200 43 1213 c 128,-1,84
 43 1226 43 1226 43.5 1240 c 128,-1,85
 44 1254 44 1254 44 1267.5 c 128,-1,86
 44 1281 44 1281 44 1290 c 1,0,1
EndSplineSet
EndChar

StartChar: O
Encoding: 79 79 46
Width: 1528
Flags: W
LayerCount: 2
Fore
SplineSet
765 1315 m 0,0,1
 916 1315 916 1315 1038.5 1266.5 c 128,-1,2
 1161 1218 1161 1218 1246.5 1130 c 128,-1,3
 1332 1042 1332 1042 1378.5 919 c 128,-1,4
 1425 796 1425 796 1425 646 c 0,5,6
 1425 497 1425 497 1379 374 c 128,-1,7
 1333 251 1333 251 1248 162.5 c 128,-1,8
 1163 74 1163 74 1042 25 c 128,-1,9
 921 -24 921 -24 772 -24 c 0,10,11
 617 -24 617 -24 493.5 24 c 128,-1,12
 370 72 370 72 283.5 159.5 c 128,-1,13
 197 247 197 247 151 370.5 c 128,-1,14
 105 494 105 494 105 646 c 0,15,16
 105 796 105 796 151 919.5 c 128,-1,17
 197 1043 197 1043 282.5 1130.5 c 128,-1,18
 368 1218 368 1218 490.5 1266.5 c 128,-1,19
 613 1315 613 1315 765 1315 c 0,0,1
764 1202 m 256,20,21
 656 1202 656 1202 570 1163 c 128,-1,22
 484 1124 484 1124 424.5 1052 c 128,-1,23
 365 980 365 980 333 877 c 128,-1,24
 301 774 301 774 301 647 c 0,25,26
 301 519 301 519 333 416 c 128,-1,27
 365 313 365 313 425 241 c 128,-1,28
 485 169 485 169 571 130.5 c 128,-1,29
 657 92 657 92 764 92 c 0,30,31
 872 92 872 92 957.5 130.5 c 128,-1,32
 1043 169 1043 169 1103 241 c 128,-1,33
 1163 313 1163 313 1195 415.5 c 128,-1,34
 1227 518 1227 518 1227 646 c 0,35,36
 1227 775 1227 775 1195 878 c 128,-1,37
 1163 981 1163 981 1103 1053 c 128,-1,38
 1043 1125 1043 1125 957.5 1163.5 c 128,-1,39
 872 1202 872 1202 764 1202 c 256,20,21
EndSplineSet
EndChar

StartChar: P
Encoding: 80 80 47
Width: 1166
Flags: W
LayerCount: 2
Fore
SplineSet
644 1290 m 2,0,1
 767 1290 767 1290 856 1263 c 128,-1,2
 945 1236 945 1236 1003 1187 c 128,-1,3
 1061 1138 1061 1138 1089 1069.5 c 128,-1,4
 1117 1001 1117 1001 1117 919 c 256,5,6
 1117 837 1117 837 1091 769.5 c 128,-1,7
 1065 702 1065 702 1008.5 653.5 c 128,-1,8
 952 605 952 605 862.5 578 c 128,-1,9
 773 551 773 551 646 551 c 2,10,-1
 414 551 l 1,11,-1
 414 176 l 2,12,13
 414 148 414 148 420 132.5 c 128,-1,14
 426 117 426 117 441 109.5 c 128,-1,15
 456 102 456 102 480 100.5 c 128,-1,16
 504 99 504 99 540 99 c 2,17,-1
 591 99 l 1,18,-1
 591 0 l 1,19,20
 564 0 564 0 539 0.5 c 128,-1,21
 514 1 514 1 487.5 1 c 128,-1,22
 461 1 461 1 430.5 1.5 c 128,-1,23
 400 2 400 2 361 2 c 0,24,25
 269 2 269 2 197 1 c 128,-1,26
 125 0 125 0 55 0 c 1,27,-1
 55 99 l 1,28,-1
 107 99 l 2,29,30
 153 99 153 99 178 104.5 c 128,-1,31
 203 110 203 110 215 120 c 128,-1,32
 227 130 227 130 229 145 c 128,-1,33
 231 160 231 160 231 180 c 2,34,-1
 231 1126 l 2,35,36
 231 1149 231 1149 225 1162 c 128,-1,37
 219 1175 219 1175 200.5 1181.5 c 128,-1,38
 182 1188 182 1188 147 1189.5 c 128,-1,39
 112 1191 112 1191 55 1191 c 1,40,-1
 55 1290 l 1,41,-1
 644 1290 l 2,0,1
414 654 m 1,42,-1
 605 654 l 2,43,44
 774 654 774 654 855.5 718.5 c 128,-1,45
 937 783 937 783 937 916 c 0,46,47
 937 981 937 981 919 1031 c 128,-1,48
 901 1081 901 1081 862 1115 c 128,-1,49
 823 1149 823 1149 761 1166.5 c 128,-1,50
 699 1184 699 1184 610 1184 c 2,51,-1
 414 1184 l 1,52,-1
 414 654 l 1,42,-1
EndSplineSet
EndChar

StartChar: Q
Encoding: 81 81 48
Width: 1528
Flags: W
LayerCount: 2
Fore
SplineSet
764 92 m 0,0,1
 871 92 871 92 956.5 131 c 128,-1,2
 1042 170 1042 170 1102 242.5 c 128,-1,3
 1162 315 1162 315 1194.5 418 c 128,-1,4
 1227 521 1227 521 1227 648 c 0,5,6
 1227 776 1227 776 1194.5 878.5 c 128,-1,7
 1162 981 1162 981 1102 1053 c 128,-1,8
 1042 1125 1042 1125 956.5 1163.5 c 128,-1,9
 871 1202 871 1202 764 1202 c 0,10,11
 656 1202 656 1202 570 1162.5 c 128,-1,12
 484 1123 484 1123 424.5 1051 c 128,-1,13
 365 979 365 979 333 877 c 128,-1,14
 301 775 301 775 301 649 c 256,15,16
 301 523 301 523 332.5 420 c 128,-1,17
 364 317 364 317 424 244.5 c 128,-1,18
 484 172 484 172 570 132 c 128,-1,19
 656 92 656 92 764 92 c 0,0,1
1244 -279 m 0,20,21
 1178 -274 1178 -274 1124.5 -259.5 c 128,-1,22
 1071 -245 1071 -245 1024.5 -226 c 128,-1,23
 978 -207 978 -207 935.5 -184.5 c 128,-1,24
 893 -162 893 -162 850 -140 c 128,-1,25
 807 -118 807 -118 760.5 -98.5 c 128,-1,26
 714 -79 714 -79 658 -65 c 1,27,28
 635 -65 635 -65 612.5 -71.5 c 128,-1,29
 590 -78 590 -78 572 -91 c 1,30,31
 564 -81 564 -81 557.5 -72 c 128,-1,32
 551 -63 551 -63 543 -53 c 1,33,34
 566 -33 566 -33 596 -25 c 128,-1,35
 626 -17 626 -17 658 -14 c 1,36,37
 526 6 526 6 423 61 c 128,-1,38
 320 116 320 116 249.5 200.5 c 128,-1,39
 179 285 179 285 142 397.5 c 128,-1,40
 105 510 105 510 105 645 c 0,41,42
 105 795 105 795 151 918.5 c 128,-1,43
 197 1042 197 1042 283 1130 c 128,-1,44
 369 1218 369 1218 491.5 1266.5 c 128,-1,45
 614 1315 614 1315 767 1315 c 0,46,47
 917 1315 917 1315 1039 1266.5 c 128,-1,48
 1161 1218 1161 1218 1246.5 1130 c 128,-1,49
 1332 1042 1332 1042 1378.5 918.5 c 128,-1,50
 1425 795 1425 795 1425 646 c 0,51,52
 1425 511 1425 511 1386 396 c 128,-1,53
 1347 281 1347 281 1274 194 c 128,-1,54
 1201 107 1201 107 1098 53 c 128,-1,55
 995 -1 995 -1 867 -15 c 1,56,57
 869 -16 869 -16 871.5 -17 c 128,-1,58
 874 -18 874 -18 876 -18 c 0,59,60
 930 -40 930 -40 976.5 -64 c 128,-1,61
 1023 -88 1023 -88 1073 -110 c 128,-1,62
 1123 -132 1123 -132 1182 -150 c 128,-1,63
 1241 -168 1241 -168 1320 -177 c 1,64,-1
 1286 -281 l 1,65,66
 1275 -280 1275 -280 1265 -280 c 128,-1,67
 1255 -280 1255 -280 1244 -279 c 0,20,21
EndSplineSet
EndChar

StartChar: R
Encoding: 82 82 49
Width: 1327
Flags: W
LayerCount: 2
Fore
SplineSet
1009 349 m 0,0,1
 1024 283 1024 283 1037 235 c 128,-1,2
 1050 187 1050 187 1065 156.5 c 128,-1,3
 1080 126 1080 126 1099 111 c 128,-1,4
 1118 96 1118 96 1146 96 c 0,5,6
 1161 96 1161 96 1176 99.5 c 128,-1,7
 1191 103 1191 103 1203 113.5 c 128,-1,8
 1215 124 1215 124 1222.5 143 c 128,-1,9
 1230 162 1230 162 1230 192 c 1,10,-1
 1331 201 l 1,11,12
 1331 97 1331 97 1274 36.5 c 128,-1,13
 1217 -24 1217 -24 1113 -24 c 0,14,15
 1040 -24 1040 -24 993 6 c 128,-1,16
 946 36 946 36 914 90 c 128,-1,17
 882 144 882 144 858.5 219 c 128,-1,18
 835 294 835 294 810 385 c 0,19,20
 792 450 792 450 762 501 c 128,-1,21
 732 552 732 552 704 593 c 1,22,23
 674 604 674 604 634 609 c 128,-1,24
 594 614 594 614 543 614 c 2,25,-1
 411 614 l 1,26,-1
 411 151 l 2,27,28
 411 131 411 131 417 120.5 c 128,-1,29
 423 110 423 110 437.5 105.5 c 128,-1,30
 452 101 452 101 476.5 100 c 128,-1,31
 501 99 501 99 537 99 c 2,32,-1
 589 99 l 1,33,-1
 589 0 l 1,34,35
 559 0 559 0 530 0 c 128,-1,36
 501 0 501 0 470.5 0 c 128,-1,37
 440 0 440 0 405.5 0.5 c 128,-1,38
 371 1 371 1 330 2 c 1,39,40
 286 2 286 2 248 1.5 c 128,-1,41
 210 1 210 1 176 1 c 128,-1,42
 142 1 142 1 110 0.5 c 128,-1,43
 78 0 78 0 46 0 c 1,44,-1
 46 99 l 1,45,-1
 96 99 l 2,46,47
 146 99 146 99 173 103 c 128,-1,48
 200 107 200 107 212.5 115 c 128,-1,49
 225 123 225 123 227 135 c 128,-1,50
 229 147 229 147 229 163 c 2,51,-1
 229 1127 l 2,52,53
 229 1150 229 1150 225 1163 c 128,-1,54
 221 1176 221 1176 203 1182 c 128,-1,55
 185 1188 185 1188 148.5 1189.5 c 128,-1,56
 112 1191 112 1191 46 1191 c 1,57,-1
 46 1290 l 1,58,-1
 597 1290 l 2,59,60
 706 1290 706 1290 800.5 1276.5 c 128,-1,61
 895 1263 895 1263 964 1226.5 c 128,-1,62
 1033 1190 1033 1190 1072.5 1125 c 128,-1,63
 1112 1060 1112 1060 1112 958 c 0,64,65
 1112 838 1112 838 1038.5 758 c 128,-1,66
 965 678 965 678 829 649 c 1,67,68
 859 626 859 626 885 600.5 c 128,-1,69
 911 575 911 575 934 540.5 c 128,-1,70
 957 506 957 506 975.5 459.5 c 128,-1,71
 994 413 994 413 1009 349 c 0,0,1
411 711 m 1,72,-1
 629 711 l 2,73,74
 710 711 710 711 767.5 724 c 128,-1,75
 825 737 825 737 861 765 c 128,-1,76
 897 793 897 793 914 838 c 128,-1,77
 931 883 931 883 931 947 c 0,78,79
 931 1020 931 1020 907 1066 c 128,-1,80
 883 1112 883 1112 836.5 1137.5 c 128,-1,81
 790 1163 790 1163 722 1172.5 c 128,-1,82
 654 1182 654 1182 566 1182 c 2,83,-1
 411 1182 l 1,84,-1
 411 711 l 1,72,-1
EndSplineSet
EndChar

StartChar: S
Encoding: 83 83 50
Width: 1135
Flags: W
LayerCount: 2
Fore
SplineSet
986 941 m 1,0,-1
 869 941 l 1,1,2
 868 952 868 952 867.5 962 c 128,-1,3
 867 972 867 972 867 982 c 0,4,5
 865 1034 865 1034 842 1076 c 128,-1,6
 819 1118 819 1118 777.5 1147 c 128,-1,7
 736 1176 736 1176 679 1192 c 128,-1,8
 622 1208 622 1208 552 1208 c 0,9,10
 489 1208 489 1208 438.5 1192.5 c 128,-1,11
 388 1177 388 1177 353 1149 c 128,-1,12
 318 1121 318 1121 299.5 1082.5 c 128,-1,13
 281 1044 281 1044 281 999 c 0,14,15
 281 951 281 951 300 916 c 128,-1,16
 319 881 319 881 352 854 c 128,-1,17
 385 827 385 827 430.5 806.5 c 128,-1,18
 476 786 476 786 529 767.5 c 128,-1,19
 582 749 582 749 641 730 c 128,-1,20
 700 711 700 711 760 689 c 1,21,22
 822 665 822 665 873.5 634.5 c 128,-1,23
 925 604 925 604 962 563 c 128,-1,24
 999 522 999 522 1019.5 469.5 c 128,-1,25
 1040 417 1040 417 1040 349 c 0,26,27
 1040 270 1040 270 1009.5 202 c 128,-1,28
 979 134 979 134 923.5 83.5 c 128,-1,29
 868 33 868 33 789.5 4.5 c 128,-1,30
 711 -24 711 -24 615 -24 c 0,31,32
 480 -24 480 -24 382.5 13.5 c 128,-1,33
 285 51 285 51 232 117 c 1,34,-1
 232 0 l 1,35,-1
 100 0 l 1,36,-1
 100 408 l 1,37,-1
 220 408 l 1,38,39
 220 336 220 336 239 277 c 128,-1,40
 258 218 258 218 299 176 c 128,-1,41
 340 134 340 134 404.5 111 c 128,-1,42
 469 88 469 88 560 88 c 0,43,44
 626 88 626 88 681 105 c 128,-1,45
 736 122 736 122 775.5 153.5 c 128,-1,46
 815 185 815 185 837 229.5 c 128,-1,47
 859 274 859 274 859 329 c 0,48,49
 859 401 859 401 820 446.5 c 128,-1,50
 781 492 781 492 717 524 c 128,-1,51
 653 556 653 556 571.5 581.5 c 128,-1,52
 490 607 490 607 406 639 c 0,53,54
 332 667 332 667 276 699.5 c 128,-1,55
 220 732 220 732 182.5 772 c 128,-1,56
 145 812 145 812 126 862 c 128,-1,57
 107 912 107 912 107 975 c 0,58,59
 107 1046 107 1046 135 1108 c 128,-1,60
 163 1170 163 1170 216 1215.5 c 128,-1,61
 269 1261 269 1261 345 1287.5 c 128,-1,62
 421 1314 421 1314 517 1314 c 0,63,64
 566 1314 566 1314 611.5 1309 c 128,-1,65
 657 1304 657 1304 699.5 1291.5 c 128,-1,66
 742 1279 742 1279 782 1257.5 c 128,-1,67
 822 1236 822 1236 862 1202 c 1,68,-1
 862 1285 l 1,69,70
 886 1285 886 1285 920 1284.5 c 128,-1,71
 954 1284 954 1284 986 1284 c 1,72,-1
 986 941 l 1,0,-1
EndSplineSet
EndChar

StartChar: T
Encoding: 84 84 51
Width: 1221
Flags: W
LayerCount: 2
Fore
SplineSet
47 1290 m 1,0,1
 47 1290 47 1290 70.5 1289.5 c 128,-1,2
 94 1289 94 1289 131.5 1289 c 128,-1,3
 169 1289 169 1289 215 1288.5 c 128,-1,4
 261 1288 261 1288 305.5 1288 c 128,-1,5
 350 1288 350 1288 387.5 1288 c 128,-1,6
 425 1288 425 1288 447 1288 c 2,7,-1
 833 1288 l 2,8,9
 867 1288 867 1288 912.5 1288.5 c 128,-1,10
 958 1289 958 1289 1005 1289 c 128,-1,11
 1052 1289 1052 1289 1096.5 1289.5 c 128,-1,12
 1141 1290 1141 1290 1175 1290 c 1,13,-1
 1175 904 l 1,14,-1
 1069 904 l 1,15,-1
 1069 1110 l 2,16,17
 1069 1131 1069 1131 1066 1144 c 128,-1,18
 1063 1157 1063 1157 1047.5 1164 c 128,-1,19
 1032 1171 1032 1171 999 1173.5 c 128,-1,20
 966 1176 966 1176 906 1176 c 2,21,-1
 704 1176 l 1,22,-1
 704 157 l 2,23,24
 704 140 704 140 706 129 c 128,-1,25
 708 118 708 118 720 111.5 c 128,-1,26
 732 105 732 105 757 102 c 128,-1,27
 782 99 782 99 828 99 c 2,28,-1
 884 99 l 1,29,-1
 884 0 l 1,30,31
 855 0 855 0 827 0 c 128,-1,32
 799 0 799 0 768.5 0 c 128,-1,33
 738 0 738 0 703.5 0.5 c 128,-1,34
 669 1 669 1 627 2 c 0,35,36
 623 2 623 2 605 2 c 128,-1,37
 587 2 587 2 561.5 1.5 c 128,-1,38
 536 1 536 1 505.5 1 c 128,-1,39
 475 1 475 1 444.5 0.5 c 128,-1,40
 414 0 414 0 387 0 c 128,-1,41
 360 0 360 0 342 0 c 1,42,-1
 342 99 l 1,43,-1
 397 99 l 2,44,45
 444 99 444 99 469.5 104.5 c 128,-1,46
 495 110 495 110 506.5 119.5 c 128,-1,47
 518 129 518 129 520 141.5 c 128,-1,48
 522 154 522 154 522 168 c 2,49,-1
 522 1176 l 1,50,-1
 305 1176 l 2,51,52
 249 1176 249 1176 218 1172.5 c 128,-1,53
 187 1169 187 1169 172 1162.5 c 128,-1,54
 157 1156 157 1156 154 1145.5 c 128,-1,55
 151 1135 151 1135 151 1121 c 0,56,57
 151 1098 151 1098 151 1070.5 c 128,-1,58
 151 1043 151 1043 151.5 1014 c 128,-1,59
 152 985 152 985 152 956.5 c 128,-1,60
 152 928 152 928 152 904 c 1,61,-1
 47 904 l 1,62,-1
 47 1290 l 1,0,1
EndSplineSet
EndChar

StartChar: U
Encoding: 85 85 52
Width: 1351
Flags: W
LayerCount: 2
Fore
SplineSet
24 1290 m 1,0,1
 93 1288 93 1288 171.5 1288 c 128,-1,2
 250 1288 250 1288 323 1288 c 0,3,4
 377 1288 377 1288 429 1288 c 128,-1,5
 481 1288 481 1288 539 1290 c 1,6,-1
 539 1191 l 1,7,-1
 492 1191 l 2,8,9
 447 1191 447 1191 422 1186 c 128,-1,10
 397 1181 397 1181 385.5 1172.5 c 128,-1,11
 374 1164 374 1164 372 1152.5 c 128,-1,12
 370 1141 370 1141 370 1128 c 2,13,-1
 370 495 l 2,14,15
 370 391 370 391 385.5 315 c 128,-1,16
 401 239 401 239 438.5 190 c 128,-1,17
 476 141 476 141 539 117.5 c 128,-1,18
 602 94 602 94 697 94 c 0,19,20
 799 94 799 94 862 120 c 128,-1,21
 925 146 925 146 959.5 196.5 c 128,-1,22
 994 247 994 247 1006 320 c 128,-1,23
 1018 393 1018 393 1018 487 c 2,24,-1
 1018 1123 l 2,25,26
 1018 1142 1018 1142 1016 1155 c 128,-1,27
 1014 1168 1014 1168 1002 1176 c 128,-1,28
 990 1184 990 1184 964 1187.5 c 128,-1,29
 938 1191 938 1191 889 1191 c 2,30,-1
 841 1191 l 1,31,-1
 841 1290 l 1,32,33
 876 1288 876 1288 918.5 1288 c 128,-1,34
 961 1288 961 1288 1004 1288 c 0,35,36
 1034 1288 1034 1288 1060 1288.5 c 128,-1,37
 1086 1289 1086 1289 1120.5 1289 c 128,-1,38
 1155 1289 1155 1289 1203.5 1289.5 c 128,-1,39
 1252 1290 1252 1290 1327 1290 c 1,40,-1
 1327 1191 l 1,41,-1
 1276 1191 l 2,42,43
 1233 1191 1233 1191 1210.5 1185.5 c 128,-1,44
 1188 1180 1188 1180 1177.5 1171 c 128,-1,45
 1167 1162 1167 1162 1165.5 1151 c 128,-1,46
 1164 1140 1164 1140 1164 1128 c 2,47,-1
 1164 493 l 2,48,49
 1164 362 1164 362 1138.5 264.5 c 128,-1,50
 1113 167 1113 167 1056 103 c 128,-1,51
 999 39 999 39 907.5 7.5 c 128,-1,52
 816 -24 816 -24 685 -24 c 0,53,54
 542 -24 542 -24 446.5 8 c 128,-1,55
 351 40 351 40 294 104.5 c 128,-1,56
 237 169 237 169 213 265 c 128,-1,57
 189 361 189 361 189 490 c 2,58,-1
 189 1134 l 2,59,60
 189 1150 189 1150 187 1160.5 c 128,-1,61
 185 1171 185 1171 174 1178 c 128,-1,62
 163 1185 163 1185 139.5 1188 c 128,-1,63
 116 1191 116 1191 74 1191 c 2,64,-1
 24 1191 l 1,65,-1
 24 1290 l 1,0,1
EndSplineSet
EndChar

StartChar: V
Encoding: 86 86 53
Width: 1342
Flags: W
LayerCount: 2
Fore
SplineSet
335 1088 m 0,0,1
 335 1086 335 1086 345.5 1059.5 c 128,-1,2
 356 1033 356 1033 373.5 988 c 128,-1,3
 391 943 391 943 414 883.5 c 128,-1,4
 437 824 437 824 463 757.5 c 128,-1,5
 489 691 489 691 516.5 621 c 128,-1,6
 544 551 544 551 570 484.5 c 128,-1,7
 596 418 596 418 619 358.5 c 128,-1,8
 642 299 642 299 659.5 254.5 c 128,-1,9
 677 210 677 210 687.5 183 c 128,-1,10
 698 156 698 156 698 155 c 2,11,-1
 1039 1085 l 2,12,13
 1048 1110 1048 1110 1053.5 1127 c 128,-1,14
 1059 1144 1059 1144 1059 1156 c 0,15,16
 1059 1180 1059 1180 1035 1185.5 c 128,-1,17
 1011 1191 1011 1191 956 1191 c 2,18,-1
 894 1191 l 1,19,-1
 894 1290 l 1,20,21
 946 1289 946 1289 992 1288 c 0,22,23
 1031 1287 1031 1287 1069 1287 c 128,-1,24
 1107 1287 1107 1287 1124 1287 c 0,25,26
 1179 1287 1179 1287 1237.5 1288 c 128,-1,27
 1296 1289 1296 1289 1356 1290 c 1,28,-1
 1356 1191 l 1,29,30
 1322 1191 1322 1191 1298.5 1189 c 128,-1,31
 1275 1187 1275 1187 1256.5 1178.5 c 128,-1,32
 1238 1170 1238 1170 1223.5 1153 c 128,-1,33
 1209 1136 1209 1136 1194 1105.5 c 128,-1,34
 1179 1075 1179 1075 1161.5 1029.5 c 128,-1,35
 1144 984 1144 984 1120 919 c 2,36,-1
 772 -13 l 1,37,-1
 594 -13 l 1,38,-1
 161 1073 l 2,39,40
 144 1114 144 1114 132.5 1137.5 c 128,-1,41
 121 1161 121 1161 103.5 1173 c 128,-1,42
 86 1185 86 1185 59 1188 c 128,-1,43
 32 1191 32 1191 -14 1191 c 1,44,-1
 -14 1290 l 1,45,46
 22 1288 22 1288 65 1287 c 128,-1,47
 108 1286 108 1286 144 1286 c 0,48,49
 159 1286 159 1286 181 1286 c 128,-1,50
 203 1286 203 1286 229.5 1286.5 c 128,-1,51
 256 1287 256 1287 284.5 1287.5 c 128,-1,52
 313 1288 313 1288 341 1288 c 0,53,54
 406 1289 406 1289 478 1290 c 1,55,-1
 478 1191 l 1,56,57
 438 1191 438 1191 408.5 1190.5 c 128,-1,58
 379 1190 379 1190 359.5 1185.5 c 128,-1,59
 340 1181 340 1181 330.5 1171.5 c 128,-1,60
 321 1162 321 1162 321 1145 c 0,61,62
 321 1123 321 1123 335 1088 c 0,0,1
EndSplineSet
EndChar

StartChar: W
Encoding: 87 87 54
Width: 1906
Flags: W
LayerCount: 2
Fore
SplineSet
163 1055 m 2,0,1
 149 1104 149 1104 139 1131.5 c 128,-1,2
 129 1159 129 1159 112.5 1172.5 c 128,-1,3
 96 1186 96 1186 68.5 1188.5 c 128,-1,4
 41 1191 41 1191 -9 1191 c 1,5,6
 -10 1213 -10 1213 -10 1232 c 2,7,-1
 -10 1290 l 1,8,9
 49 1289 49 1289 99 1288 c 0,10,11
 120 1288 120 1288 142 1287.5 c 128,-1,12
 164 1287 164 1287 183.5 1287 c 128,-1,13
 203 1287 203 1287 218.5 1287 c 128,-1,14
 234 1287 234 1287 243 1287 c 0,15,16
 286 1287 286 1287 345 1288.5 c 128,-1,17
 404 1290 404 1290 475 1290 c 1,18,-1
 475 1191 l 1,19,20
 433 1191 433 1191 403 1189.5 c 128,-1,21
 373 1188 373 1188 354 1182.5 c 128,-1,22
 335 1177 335 1177 326.5 1165.5 c 128,-1,23
 318 1154 318 1154 318 1135 c 0,24,25
 318 1121 318 1121 322 1104.5 c 128,-1,26
 326 1088 326 1088 332 1065 c 0,27,28
 361 960 361 960 392.5 843 c 128,-1,29
 424 726 424 726 456 607 c 128,-1,30
 488 488 488 488 519.5 371 c 128,-1,31
 551 254 551 254 580 149 c 1,32,-1
 866 1275 l 1,33,-1
 1054 1275 l 1,34,-1
 1360 147 l 1,35,-1
 1607 1071 l 2,36,37
 1613 1094 1613 1094 1617 1111 c 128,-1,38
 1621 1128 1621 1128 1622 1142 c 1,39,40
 1622 1158 1622 1158 1614.5 1168 c 128,-1,41
 1607 1178 1607 1178 1588 1183 c 128,-1,42
 1569 1188 1569 1188 1538 1189.5 c 128,-1,43
 1507 1191 1507 1191 1461 1191 c 1,44,-1
 1461 1290 l 1,45,46
 1534 1290 1534 1290 1594 1289 c 128,-1,47
 1654 1288 1654 1288 1696 1288 c 0,48,49
 1746 1288 1746 1288 1804.5 1288 c 128,-1,50
 1863 1288 1863 1288 1920 1290 c 1,51,-1
 1920 1191 l 1,52,53
 1874 1191 1874 1191 1846 1188.5 c 128,-1,54
 1818 1186 1818 1186 1799.5 1173.5 c 128,-1,55
 1781 1161 1781 1161 1768.5 1134.5 c 128,-1,56
 1756 1108 1756 1108 1742 1060 c 0,57,58
 1741 1057 1741 1057 1728 1011.5 c 128,-1,59
 1715 966 1715 966 1694.5 893 c 128,-1,60
 1674 820 1674 820 1648 728 c 128,-1,61
 1622 636 1622 636 1594 538.5 c 128,-1,62
 1566 441 1566 441 1539.5 347 c 128,-1,63
 1513 253 1513 253 1491 176.5 c 128,-1,64
 1469 100 1469 100 1454.5 49 c 128,-1,65
 1440 -2 1440 -2 1437 -13 c 1,66,-1
 1257 -13 l 1,67,-1
 957 1141 l 1,68,-1
 658 -13 l 1,69,-1
 472 -13 l 1,70,-1
 163 1055 l 2,0,1
EndSplineSet
EndChar

StartChar: X
Encoding: 88 88 55
Width: 1406
Flags: W
LayerCount: 2
Fore
SplineSet
33 1290 m 1,0,1
 76 1288 76 1288 113.5 1287.5 c 128,-1,2
 151 1287 151 1287 188.5 1286.5 c 128,-1,3
 226 1286 226 1286 266.5 1286 c 128,-1,4
 307 1286 307 1286 357 1286 c 0,5,6
 402 1286 402 1286 455.5 1288 c 128,-1,7
 509 1290 509 1290 566 1290 c 1,8,-1
 566 1191 l 1,9,-1
 510 1191 l 2,10,11
 463 1191 463 1191 439.5 1187 c 128,-1,12
 416 1183 416 1183 416 1165 c 0,13,14
 416 1152 416 1152 429 1131 c 128,-1,15
 442 1110 442 1110 467 1078 c 2,16,-1
 703 767 l 2,17,18
 703 768 703 768 716 786 c 128,-1,19
 729 804 729 804 750.5 833 c 128,-1,20
 772 862 772 862 799 898.5 c 128,-1,21
 826 935 826 935 853.5 972.5 c 128,-1,22
 881 1010 881 1010 906 1045 c 128,-1,23
 931 1080 931 1080 949 1106 c 0,24,25
 966 1131 966 1131 976.5 1145.5 c 128,-1,26
 987 1160 987 1160 987 1165 c 0,27,28
 987 1172 987 1172 979.5 1177 c 128,-1,29
 972 1182 972 1182 954 1185 c 128,-1,30
 936 1188 936 1188 906.5 1189.5 c 128,-1,31
 877 1191 877 1191 832 1191 c 1,32,-1
 832 1290 l 1,33,34
 838 1290 838 1290 858 1289.5 c 128,-1,35
 878 1289 878 1289 904.5 1288 c 128,-1,36
 931 1287 931 1287 961.5 1286.5 c 128,-1,37
 992 1286 992 1286 1019 1286 c 0,38,39
 1064 1286 1064 1286 1104 1286.5 c 128,-1,40
 1144 1287 1144 1287 1182.5 1287.5 c 128,-1,41
 1221 1288 1221 1288 1259.5 1289 c 128,-1,42
 1298 1290 1298 1290 1339 1290 c 1,43,-1
 1338 1194 l 1,44,45
 1287 1194 1287 1194 1253 1191 c 128,-1,46
 1219 1188 1219 1188 1195.5 1179 c 128,-1,47
 1172 1170 1172 1170 1155.5 1154.5 c 128,-1,48
 1139 1139 1139 1139 1123 1114 c 1,49,50
 1123 1114 1123 1114 1108.5 1094.5 c 128,-1,51
 1094 1075 1094 1075 1070.5 1044 c 128,-1,52
 1047 1013 1047 1013 1017 973.5 c 128,-1,53
 987 934 987 934 956 892 c 2,54,-1
 790 670 l 1,55,-1
 1108 257 l 2,56,57
 1145 208 1145 208 1170.5 177 c 128,-1,58
 1196 146 1196 146 1223 128.5 c 128,-1,59
 1250 111 1250 111 1285 104.5 c 128,-1,60
 1320 98 1320 98 1376 98 c 1,61,-1
 1376 0 l 1,62,63
 1344 0 1344 0 1314 0.5 c 128,-1,64
 1284 1 1284 1 1252.5 1 c 128,-1,65
 1221 1 1221 1 1185.5 1.5 c 128,-1,66
 1150 2 1150 2 1107 2 c 0,67,68
 1063 2 1063 2 1026 1.5 c 128,-1,69
 989 1 989 1 956 1 c 128,-1,70
 923 1 923 1 891.5 0.5 c 128,-1,71
 860 0 860 0 827 0 c 1,72,73
 827 24 827 24 826.5 48.5 c 128,-1,74
 826 73 826 73 826 98 c 1,75,76
 906 98 906 98 942 106.5 c 128,-1,77
 978 115 978 115 978 139 c 0,78,79
 978 155 978 155 961 180.5 c 128,-1,80
 944 206 944 206 918 241 c 2,81,-1
 682 552 l 1,82,-1
 458 248 l 2,83,84
 424 202 424 202 406.5 174.5 c 128,-1,85
 389 147 389 147 389 131 c 0,86,87
 389 106 389 106 428.5 102 c 128,-1,88
 468 98 468 98 552 98 c 1,89,-1
 552 0 l 1,90,91
 541 0 541 0 507.5 0.5 c 128,-1,92
 474 1 474 1 431 1 c 128,-1,93
 388 1 388 1 343 1.5 c 128,-1,94
 298 2 298 2 265 2 c 0,95,96
 231 2 231 2 202 1.5 c 128,-1,97
 173 1 173 1 145.5 1 c 128,-1,98
 118 1 118 1 89.5 0.5 c 128,-1,99
 61 0 61 0 28 0 c 1,100,-1
 28 99 l 1,101,102
 68 99 68 99 97 101 c 128,-1,103
 126 103 126 103 151.5 114 c 128,-1,104
 177 125 177 125 203.5 149 c 128,-1,105
 230 173 230 173 265 218 c 2,106,-1
 594 648 l 1,107,-1
 295 1040 l 2,108,109
 252 1096 252 1096 226 1126.5 c 128,-1,110
 200 1157 200 1157 175 1171.5 c 128,-1,111
 150 1186 150 1186 118.5 1188.5 c 128,-1,112
 87 1191 87 1191 33 1191 c 1,113,-1
 33 1290 l 1,0,1
EndSplineSet
EndChar

StartChar: Y
Encoding: 89 89 56
Width: 1259
Flags: W
LayerCount: 2
Fore
SplineSet
-7 1290 m 1,0,1
 22 1288 22 1288 59.5 1287.5 c 128,-1,2
 97 1287 97 1287 128 1287 c 0,3,4
 170 1287 170 1287 210 1287.5 c 128,-1,5
 250 1288 250 1288 294.5 1288.5 c 128,-1,6
 339 1289 339 1289 390.5 1289.5 c 128,-1,7
 442 1290 442 1290 508 1290 c 1,8,-1
 508 1191 l 1,9,-1
 470 1191 l 2,10,11
 404 1191 404 1191 375 1187.5 c 128,-1,12
 346 1184 346 1184 346 1164 c 1,13,14
 348 1150 348 1150 360 1127.5 c 128,-1,15
 372 1105 372 1105 392 1073 c 0,16,17
 393 1071 393 1071 412.5 1040.5 c 128,-1,18
 432 1010 432 1010 460 965 c 128,-1,19
 488 920 488 920 520.5 868.5 c 128,-1,20
 553 817 553 817 581 772 c 128,-1,21
 609 727 609 727 628 696.5 c 128,-1,22
 647 666 647 666 648 664 c 1,23,-1
 903 1067 l 2,24,25
 926 1104 926 1104 939 1127 c 128,-1,26
 952 1150 952 1150 952 1164 c 0,27,28
 952 1184 952 1184 915.5 1187.5 c 128,-1,29
 879 1191 879 1191 795 1191 c 1,30,-1
 795 1290 l 1,31,32
 853 1289 853 1289 905 1289 c 0,33,34
 927 1289 927 1289 950 1288.5 c 128,-1,35
 973 1288 973 1288 993.5 1288 c 128,-1,36
 1014 1288 1014 1288 1030.5 1288 c 128,-1,37
 1047 1288 1047 1288 1058 1288 c 0,38,39
 1106 1288 1106 1288 1155.5 1288 c 128,-1,40
 1205 1288 1205 1288 1265 1290 c 1,41,-1
 1265 1191 l 1,42,43
 1220 1191 1220 1191 1194 1189.5 c 128,-1,44
 1168 1188 1168 1188 1151.5 1180.5 c 128,-1,45
 1135 1173 1135 1173 1122 1157 c 128,-1,46
 1109 1141 1109 1141 1090 1113 c 0,47,48
 1067 1079 1067 1079 1031.5 1025.5 c 128,-1,49
 996 972 996 972 955.5 910.5 c 128,-1,50
 915 849 915 849 874 786.5 c 128,-1,51
 833 724 833 724 799.5 672.5 c 128,-1,52
 766 621 766 621 744 586.5 c 128,-1,53
 722 552 722 552 719 548 c 1,54,-1
 719 163 l 2,55,56
 719 143 719 143 722.5 130.5 c 128,-1,57
 726 118 726 118 739 111 c 128,-1,58
 752 104 752 104 777.5 101.5 c 128,-1,59
 803 99 803 99 848 99 c 2,60,-1
 902 99 l 1,61,-1
 902 0 l 1,62,63
 840 0 840 0 777 0 c 128,-1,64
 714 0 714 0 628 2 c 1,65,66
 551 2 551 2 483.5 1 c 128,-1,67
 416 0 416 0 361 0 c 1,68,-1
 361 99 l 1,69,-1
 414 99 l 2,70,71
 462 99 462 99 488 103.5 c 128,-1,72
 514 108 514 108 525.5 116.5 c 128,-1,73
 537 125 537 125 539 136 c 128,-1,74
 541 147 541 147 541 161 c 2,75,-1
 541 550 l 1,76,77
 539 553 539 553 524 576.5 c 128,-1,78
 509 600 509 600 485 636.5 c 128,-1,79
 461 673 461 673 431.5 718.5 c 128,-1,80
 402 764 402 764 371.5 811.5 c 128,-1,81
 341 859 341 859 311.5 904.5 c 128,-1,82
 282 950 282 950 258 986.5 c 128,-1,83
 234 1023 234 1023 219 1046.5 c 128,-1,84
 204 1070 204 1070 202 1073 c 0,85,86
 175 1116 175 1116 157.5 1139.5 c 128,-1,87
 140 1163 140 1163 120 1174.5 c 128,-1,88
 100 1186 100 1186 71.5 1188.5 c 128,-1,89
 43 1191 43 1191 -6 1191 c 1,90,91
 -6 1216 -6 1216 -6.5 1241 c 128,-1,92
 -7 1266 -7 1266 -7 1290 c 1,0,1
EndSplineSet
EndChar

StartChar: Z
Encoding: 90 90 57
Width: 1147
Flags: W
LayerCount: 2
Fore
SplineSet
1061 1288 m 1,0,-1
 1061 1152 l 1,1,-1
 252 110 l 1,2,-1
 907 110 l 2,3,4
 931 110 931 110 944.5 120 c 128,-1,5
 958 130 958 130 965 158 c 128,-1,6
 972 186 972 186 973.5 234.5 c 128,-1,7
 975 283 975 283 975 361 c 1,8,-1
 1088 361 l 1,9,-1
 1088 0 l 1,10,-1
 59 0 l 1,11,-1
 59 134 l 1,12,-1
 868 1179 l 1,13,-1
 360 1179 l 2,14,15
 307 1179 307 1179 275 1178 c 128,-1,16
 243 1177 243 1177 226 1170.5 c 128,-1,17
 209 1164 209 1164 204 1150 c 128,-1,18
 199 1136 199 1136 199 1111 c 2,19,-1
 199 946 l 1,20,-1
 88 946 l 1,21,-1
 88 1288 l 1,22,-1
 1061 1288 l 1,0,-1
EndSplineSet
EndChar

StartChar: bracketleft
Encoding: 91 91 58
Width: 695
Flags: W
LayerCount: 2
Fore
SplineSet
645 1290 m 1,0,-1
 645 1178 l 1,1,-1
 364 1178 l 1,2,-1
 364 -179 l 1,3,-1
 644 -179 l 1,4,-1
 644 -292 l 1,5,-1
 198 -292 l 1,6,-1
 198 1290 l 1,7,-1
 645 1290 l 1,0,-1
EndSplineSet
EndChar

StartChar: backslash
Encoding: 92 92 59
Width: 559
Flags: W
LayerCount: 2
Fore
SplineSet
99 1304 m 1,0,-1
 596 -105 l 1,1,-1
 472 -105 l 1,2,-1
 -25 1304 l 1,3,-1
 99 1304 l 1,0,-1
EndSplineSet
EndChar

StartChar: bracketright
Encoding: 93 93 60
Width: 695
Flags: W
LayerCount: 2
Fore
SplineSet
496 1290 m 1,0,-1
 496 -292 l 1,1,-1
 48 -292 l 1,2,-1
 48 -179 l 1,3,-1
 330 -179 l 1,4,-1
 330 1178 l 1,5,-1
 48 1178 l 1,6,-1
 48 1290 l 1,7,-1
 496 1290 l 1,0,-1
EndSplineSet
EndChar

StartChar: asciicircum
Encoding: 94 94 61
Width: 1700
Flags: W
LayerCount: 2
Fore
SplineSet
1386 850 m 1,0,-1
 1288 826 l 1,1,-1
 849 1263 l 1,2,-1
 408 826 l 1,3,-1
 313 850 l 1,4,-1
 795 1403 l 1,5,-1
 929 1403 l 1,6,-1
 1386 850 l 1,0,-1
EndSplineSet
EndChar

StartChar: underscore
Encoding: 95 95 62
Width: 1024
Flags: W
LayerCount: 2
Fore
SplineSet
1030 -361 m 1,0,-1
 -6 -361 l 1,1,-1
 -6 -251 l 1,2,-1
 1030 -251 l 1,3,-1
 1030 -361 l 1,0,-1
EndSplineSet
EndChar

StartChar: quoteleft
Encoding: 8216 8216 63
Width: 560
Flags: W
LayerCount: 2
Fore
SplineSet
192 1172 m 0,0,1
 192 1222 192 1222 205.5 1250.5 c 128,-1,2
 219 1279 219 1279 244 1292.5 c 128,-1,3
 269 1306 269 1306 305 1309.5 c 128,-1,4
 341 1313 341 1313 386 1314 c 1,5,-1
 386 1237 l 1,6,7
 363 1236 363 1236 350.5 1229 c 128,-1,8
 338 1222 338 1222 332 1211 c 128,-1,9
 326 1200 326 1200 325 1185 c 128,-1,10
 324 1170 324 1170 324 1154 c 0,11,12
 324 1141 324 1141 324.5 1120 c 128,-1,13
 325 1099 325 1099 325.5 1079.5 c 128,-1,14
 326 1060 326 1060 326.5 1045.5 c 128,-1,15
 327 1031 327 1031 327 1030 c 2,16,-1
 402 1033 l 1,17,18
 402 1029 402 1029 405 1003.5 c 128,-1,19
 408 978 408 978 411.5 948 c 128,-1,20
 415 918 415 918 418 892.5 c 128,-1,21
 421 867 421 867 421 863 c 1,22,-1
 235 863 l 1,23,24
 222 938 222 938 207 1018 c 128,-1,25
 192 1098 192 1098 192 1172 c 0,0,1
EndSplineSet
EndChar

StartChar: a
Encoding: 97 97 64
Width: 1060
Flags: W
LayerCount: 2
Fore
SplineSet
896 224 m 2,0,1
 896 172 896 172 899.5 144.5 c 128,-1,2
 903 117 903 117 913 104.5 c 128,-1,3
 923 92 923 92 941.5 90.5 c 128,-1,4
 960 89 960 89 990 89 c 2,5,-1
 1035 89 l 1,6,-1
 1035 0 l 1,7,8
 956 0 956 0 878.5 -1 c 128,-1,9
 801 -2 801 -2 734 -4 c 1,10,-1
 734 133 l 1,11,12
 674 56 674 56 591.5 17.5 c 128,-1,13
 509 -21 509 -21 399 -21 c 0,14,15
 327 -21 327 -21 269 -0.5 c 128,-1,16
 211 20 211 20 170 56 c 128,-1,17
 129 92 129 92 106.5 142 c 128,-1,18
 84 192 84 192 84 252 c 0,19,20
 84 316 84 316 110 368.5 c 128,-1,21
 136 421 136 421 186 458 c 128,-1,22
 236 495 236 495 307.5 515.5 c 128,-1,23
 379 536 379 536 471 536 c 0,24,25
 534 536 534 536 598 526.5 c 128,-1,26
 662 517 662 517 728 500 c 1,27,-1
 728 644 l 2,28,29
 728 735 728 735 667.5 783 c 128,-1,30
 607 831 607 831 482 831 c 0,31,32
 377 831 377 831 317.5 790.5 c 128,-1,33
 258 750 258 750 238 665 c 1,34,-1
 146 676 l 1,35,-1
 159 852 l 1,36,37
 223 881 223 881 308.5 899.5 c 128,-1,38
 394 918 394 918 501 918 c 0,39,40
 607 918 607 918 682 899 c 128,-1,41
 757 880 757 880 804.5 841 c 128,-1,42
 852 802 852 802 874 741.5 c 128,-1,43
 896 681 896 681 896 599 c 2,44,-1
 896 224 l 2,0,1
509 452 m 0,45,46
 449 452 449 452 401 438.5 c 128,-1,47
 353 425 353 425 319.5 400 c 128,-1,48
 286 375 286 375 268 339 c 128,-1,49
 250 303 250 303 250 257 c 0,50,51
 250 216 250 216 264.5 184.5 c 128,-1,52
 279 153 279 153 305.5 131 c 128,-1,53
 332 109 332 109 369 96 c 128,-1,54
 406 83 406 83 450 84 c 1,55,56
 498 83 498 83 547.5 98.5 c 128,-1,57
 597 114 597 114 637 142.5 c 128,-1,58
 677 171 677 171 702.5 214.5 c 128,-1,59
 728 258 728 258 728 319 c 2,60,-1
 728 417 l 1,61,62
 668 434 668 434 614 443 c 128,-1,63
 560 452 560 452 509 452 c 0,45,46
EndSplineSet
EndChar

StartChar: b
Encoding: 98 98 65
Width: 1215
Flags: W
LayerCount: 2
Fore
SplineSet
691 -21 m 0,0,1
 578 -21 578 -21 493.5 22 c 128,-1,2
 409 65 409 65 349 152 c 1,3,-1
 348 -4 l 1,4,5
 316 -3 316 -3 272.5 -2.5 c 128,-1,6
 229 -2 229 -2 185 -1.5 c 128,-1,7
 141 -1 141 -1 102.5 -0.5 c 128,-1,8
 64 0 64 0 42 0 c 1,9,-1
 42 89 l 1,10,11
 97 89 97 89 127 93 c 128,-1,12
 157 97 157 97 170.5 106 c 128,-1,13
 184 115 184 115 186.5 128 c 128,-1,14
 189 141 189 141 189 159 c 2,15,-1
 189 1148 l 2,16,17
 189 1168 189 1168 180 1178.5 c 128,-1,18
 171 1189 171 1189 152.5 1194 c 128,-1,19
 134 1199 134 1199 106 1200 c 128,-1,20
 78 1201 78 1201 41 1202 c 1,21,-1
 41 1293 l 1,22,23
 128 1293 128 1293 207 1294 c 128,-1,24
 286 1295 286 1295 358 1297 c 1,25,-1
 360 757 l 1,26,27
 417 834 417 834 500 876 c 128,-1,28
 583 918 583 918 689 918 c 0,29,30
 788 918 788 918 869 884 c 128,-1,31
 950 850 950 850 1007.5 788 c 128,-1,32
 1065 726 1065 726 1096.5 640.5 c 128,-1,33
 1128 555 1128 555 1128 447 c 0,34,35
 1128 342 1128 342 1097 256 c 128,-1,36
 1066 170 1066 170 1009 108.5 c 128,-1,37
 952 47 952 47 871 13 c 128,-1,38
 790 -21 790 -21 691 -21 c 0,0,1
655 814 m 0,39,40
 584 814 584 814 527.5 788 c 128,-1,41
 471 762 471 762 431.5 716.5 c 128,-1,42
 392 671 392 671 371 602.5 c 128,-1,43
 350 534 350 534 350 448 c 0,44,45
 350 363 350 363 371 296 c 128,-1,46
 392 229 392 229 431 182 c 128,-1,47
 470 135 470 135 526 109.5 c 128,-1,48
 582 84 582 84 653 84 c 0,49,50
 722 84 722 84 778 110 c 128,-1,51
 834 136 834 136 873.5 184.5 c 128,-1,52
 913 233 913 233 934 300.5 c 128,-1,53
 955 368 955 368 955 453 c 0,54,55
 955 537 955 537 933.5 602 c 128,-1,56
 912 667 912 667 873 715 c 128,-1,57
 834 763 834 763 778.5 788.5 c 128,-1,58
 723 814 723 814 655 814 c 0,39,40
EndSplineSet
EndChar

StartChar: c
Encoding: 99 99 66
Width: 1011
Flags: W
LayerCount: 2
Fore
SplineSet
912 576 m 1,0,-1
 814 576 l 1,1,2
 809 697 809 697 742.5 755.5 c 128,-1,3
 676 814 676 814 559 814 c 0,4,5
 488 814 488 814 432 788.5 c 128,-1,6
 376 763 376 763 337.5 716 c 128,-1,7
 299 669 299 669 278.5 601 c 128,-1,8
 258 533 258 533 258 448 c 0,9,10
 258 362 258 362 279 297.5 c 128,-1,11
 300 233 300 233 339.5 184.5 c 128,-1,12
 379 136 379 136 435 110 c 128,-1,13
 491 84 491 84 561 84 c 0,14,15
 661 84 661 84 728.5 133 c 128,-1,16
 796 182 796 182 823 280 c 1,17,-1
 940 260 l 1,18,19
 924 191 924 191 889.5 137.5 c 128,-1,20
 855 84 855 84 804 51 c 128,-1,21
 753 18 753 18 687 -1.5 c 128,-1,22
 621 -21 621 -21 542 -21 c 0,23,24
 437 -21 437 -21 352 12.5 c 128,-1,25
 267 46 267 46 207 104 c 128,-1,26
 147 162 147 162 114 248.5 c 128,-1,27
 81 335 81 335 81 441 c 0,28,29
 81 541 81 541 113 627.5 c 128,-1,30
 145 714 145 714 203.5 778 c 128,-1,31
 262 842 262 842 342.5 880 c 128,-1,32
 423 918 423 918 521 918 c 0,33,34
 561 918 561 918 600 913 c 128,-1,35
 639 908 639 908 674.5 896 c 128,-1,36
 710 884 710 884 740.5 863 c 128,-1,37
 771 842 771 842 795 811 c 1,38,-1
 820 890 l 1,39,40
 824 890 824 890 837.5 889.5 c 128,-1,41
 851 889 851 889 866 889 c 128,-1,42
 881 889 881 889 894.5 888.5 c 128,-1,43
 908 888 908 888 912 888 c 1,44,-1
 912 576 l 1,0,-1
EndSplineSet
EndChar

StartChar: d
Encoding: 100 100 67
Width: 1198
Flags: W
LayerCount: 2
Fore
SplineSet
1015 128 m 2,0,1
 1015 115 1015 115 1021.5 107 c 128,-1,2
 1028 99 1028 99 1044.5 95 c 128,-1,3
 1061 91 1061 91 1089.5 90 c 128,-1,4
 1118 89 1118 89 1162 89 c 1,5,-1
 1162 0 l 1,6,7
 1084 0 1084 0 1005.5 -1 c 128,-1,8
 927 -2 927 -2 856 -4 c 1,9,10
 856 -3 856 -3 856 17 c 128,-1,11
 856 37 856 37 856 63 c 128,-1,12
 856 89 856 89 855.5 114.5 c 128,-1,13
 855 140 855 140 854 152 c 1,14,15
 797 67 797 67 711.5 23 c 128,-1,16
 626 -21 626 -21 514 -21 c 0,17,18
 416 -21 416 -21 335.5 12.5 c 128,-1,19
 255 46 255 46 198 107 c 128,-1,20
 141 168 141 168 110 254 c 128,-1,21
 79 340 79 340 79 445 c 0,22,23
 79 552 79 552 110.5 639.5 c 128,-1,24
 142 727 142 727 200 788 c 128,-1,25
 258 849 258 849 338.5 883.5 c 128,-1,26
 419 918 419 918 517 918 c 0,27,28
 625 918 625 918 708 875.5 c 128,-1,29
 791 833 791 833 845 755 c 1,30,-1
 847 1163 l 2,31,32
 847 1178 847 1178 838.5 1185.5 c 128,-1,33
 830 1193 830 1193 810.5 1197 c 128,-1,34
 791 1201 791 1201 760 1201.5 c 128,-1,35
 729 1202 729 1202 685 1202 c 1,36,-1
 685 1293 l 1,37,38
 773 1293 773 1293 857.5 1294 c 128,-1,39
 942 1295 942 1295 1015 1297 c 1,40,-1
 1015 128 l 2,0,1
549 814 m 0,41,42
 482 814 482 814 427 787.5 c 128,-1,43
 372 761 372 761 332.5 714.5 c 128,-1,44
 293 668 293 668 271.5 600 c 128,-1,45
 250 532 250 532 250 448 c 0,46,47
 250 365 250 365 271.5 298.5 c 128,-1,48
 293 232 293 232 332 183.5 c 128,-1,49
 371 135 371 135 427 109.5 c 128,-1,50
 483 84 483 84 552 84 c 0,51,52
 622 84 622 84 678 109 c 128,-1,53
 734 134 734 134 773 182.5 c 128,-1,54
 812 231 812 231 832.5 297 c 128,-1,55
 853 363 853 363 853 446 c 0,56,57
 853 530 853 530 831 598 c 128,-1,58
 809 666 809 666 769 713.5 c 128,-1,59
 729 761 729 761 673 787.5 c 128,-1,60
 617 814 617 814 549 814 c 0,41,42
EndSplineSet
EndChar

StartChar: e
Encoding: 101 101 68
Width: 1099
Flags: W
LayerCount: 2
Fore
SplineSet
961 417 m 1,0,-1
 253 417 l 1,1,2
 254 337 254 337 278 276 c 128,-1,3
 302 215 302 215 346 172.5 c 128,-1,4
 390 130 390 130 451.5 107 c 128,-1,5
 513 84 513 84 588 84 c 0,6,7
 693 84 693 84 770 127 c 128,-1,8
 847 170 847 170 889 260 c 1,9,-1
 1010 241 l 1,10,11
 964 114 964 114 848.5 46.5 c 128,-1,12
 733 -21 733 -21 565 -21 c 0,13,14
 452 -21 452 -21 362 13 c 128,-1,15
 272 47 272 47 209.5 109 c 128,-1,16
 147 171 147 171 114 254.5 c 128,-1,17
 81 338 81 338 81 445 c 0,18,19
 81 553 81 553 115 639.5 c 128,-1,20
 149 726 149 726 211 788 c 128,-1,21
 273 850 273 850 360.5 884 c 128,-1,22
 448 918 448 918 555 918 c 0,23,24
 663 918 663 918 749 885.5 c 128,-1,25
 835 853 835 853 895 791 c 128,-1,26
 955 729 955 729 987.5 640 c 128,-1,27
 1020 551 1020 551 1021 435 c 1,28,-1
 961 417 l 1,0,-1
859 507 m 1,29,30
 847 658 847 658 769 736 c 128,-1,31
 691 814 691 814 557 814 c 0,32,33
 494 814 494 814 442 792.5 c 128,-1,34
 390 771 390 771 351 732.5 c 128,-1,35
 312 694 312 694 287.5 638 c 128,-1,36
 263 582 263 582 254 507 c 1,37,-1
 859 507 l 1,29,30
EndSplineSet
EndChar

StartChar: f
Encoding: 102 102 69
Width: 610
Flags: W
LayerCount: 2
Fore
SplineSet
722 1096 m 1,0,-1
 642 1088 l 1,1,2
 632 1151 632 1151 599.5 1184.5 c 128,-1,3
 567 1218 567 1218 510 1218 c 0,4,5
 461 1218 461 1218 433 1201.5 c 128,-1,6
 405 1185 405 1185 391.5 1153 c 128,-1,7
 378 1121 378 1121 374.5 1073.5 c 128,-1,8
 371 1026 371 1026 371 965 c 2,9,-1
 371 895 l 1,10,-1
 588 895 l 1,11,-1
 588 806 l 1,12,-1
 371 806 l 1,13,-1
 371 155 l 2,14,15
 371 130 371 130 381 116.5 c 128,-1,16
 391 103 391 103 412 97 c 128,-1,17
 433 91 433 91 465 90 c 128,-1,18
 497 89 497 89 541 89 c 1,19,-1
 541 0 l 1,20,21
 497 0 497 0 452 1 c 0,22,23
 413 1 413 1 367 1.5 c 128,-1,24
 321 2 321 2 278 2 c 0,25,26
 243 2 243 2 205 1.5 c 128,-1,27
 167 1 167 1 135 1 c 0,28,29
 97 0 97 0 61 0 c 1,30,-1
 61 89 l 1,31,32
 112 89 112 89 140.5 92 c 128,-1,33
 169 95 169 95 182.5 102.5 c 128,-1,34
 196 110 196 110 199 123.5 c 128,-1,35
 202 137 202 137 202 157 c 2,36,-1
 202 806 l 1,37,-1
 52 806 l 1,38,-1
 52 895 l 1,39,-1
 202 895 l 1,40,-1
 202 1011 l 2,41,42
 202 1171 202 1171 278.5 1243 c 128,-1,43
 355 1315 355 1315 497 1315 c 0,44,45
 557 1315 557 1315 615.5 1306.5 c 128,-1,46
 674 1298 674 1298 722 1281 c 1,47,-1
 722 1096 l 1,0,-1
EndSplineSet
EndChar

StartChar: g
Encoding: 103 103 70
Width: 1189
Flags: W
LayerCount: 2
Fore
SplineSet
558 814 m 0,0,1
 490 814 490 814 434 788.5 c 128,-1,2
 378 763 378 763 338.5 716 c 128,-1,3
 299 669 299 669 277.5 600.5 c 128,-1,4
 256 532 256 532 256 451 c 256,5,6
 256 370 256 370 277.5 305.5 c 128,-1,7
 299 241 299 241 338.5 195 c 128,-1,8
 378 149 378 149 434 124.5 c 128,-1,9
 490 100 490 100 560 100 c 0,10,11
 629 100 629 100 685 126 c 128,-1,12
 741 152 741 152 780.5 199 c 128,-1,13
 820 246 820 246 842 312 c 128,-1,14
 864 378 864 378 864 459 c 0,15,16
 864 537 864 537 842 602.5 c 128,-1,17
 820 668 820 668 780 715.5 c 128,-1,18
 740 763 740 763 683.5 788.5 c 128,-1,19
 627 814 627 814 558 814 c 0,0,1
871 899 m 1,20,21
 916 897 916 897 960 895.5 c 128,-1,22
 1004 894 1004 894 1049 894 c 0,23,24
 1088 894 1088 894 1117.5 894.5 c 128,-1,25
 1147 895 1147 895 1176 895 c 1,26,-1
 1176 806 l 1,27,28
 1121 806 1121 806 1090.5 802.5 c 128,-1,29
 1060 799 1060 799 1045.5 790.5 c 128,-1,30
 1031 782 1031 782 1028 767.5 c 128,-1,31
 1025 753 1025 753 1025 730 c 2,32,-1
 1025 62 l 2,33,34
 1025 -78 1025 -78 991.5 -172 c 128,-1,35
 958 -266 958 -266 895.5 -322.5 c 128,-1,36
 833 -379 833 -379 743.5 -402.5 c 128,-1,37
 654 -426 654 -426 541 -426 c 0,38,39
 435 -426 435 -426 340 -403.5 c 128,-1,40
 245 -381 245 -381 163 -334 c 1,41,-1
 171 -124 l 1,42,43
 173 -125 173 -125 188 -125 c 0,44,45
 198 -125 198 -125 211.5 -125 c 128,-1,46
 225 -125 225 -125 236 -124 c 1,47,48
 249 -124 249 -124 263 -123 c 1,49,50
 272 -183 272 -183 294.5 -222 c 128,-1,51
 317 -261 317 -261 352.5 -284 c 128,-1,52
 388 -307 388 -307 435.5 -316.5 c 128,-1,53
 483 -326 483 -326 542 -326 c 0,54,55
 605 -326 605 -326 662.5 -309.5 c 128,-1,56
 720 -293 720 -293 763.5 -257 c 128,-1,57
 807 -221 807 -221 833 -163 c 128,-1,58
 859 -105 859 -105 859 -21 c 2,59,-1
 859 163 l 1,60,61
 802 83 802 83 715.5 41.5 c 128,-1,62
 629 0 629 0 520 0 c 0,63,64
 421 0 421 0 340.5 32.5 c 128,-1,65
 260 65 260 65 202.5 124 c 128,-1,66
 145 183 145 183 113.5 266.5 c 128,-1,67
 82 350 82 350 82 452 c 0,68,69
 82 555 82 555 114.5 641 c 128,-1,70
 147 727 147 727 205 788.5 c 128,-1,71
 263 850 263 850 344 884 c 128,-1,72
 425 918 425 918 523 918 c 0,73,74
 635 918 635 918 722 871.5 c 128,-1,75
 809 825 809 825 871 735 c 1,76,-1
 871 899 l 1,20,21
EndSplineSet
EndChar

StartChar: h
Encoding: 104 104 71
Width: 1170
Flags: W
LayerCount: 2
Fore
SplineSet
833 532 m 2,0,1
 833 605 833 605 825.5 659 c 128,-1,2
 818 713 818 713 797.5 747.5 c 128,-1,3
 777 782 777 782 741.5 798 c 128,-1,4
 706 814 706 814 649 814 c 0,5,6
 595 814 595 814 548.5 797 c 128,-1,7
 502 780 502 780 465.5 753.5 c 128,-1,8
 429 727 429 727 402 697.5 c 128,-1,9
 375 668 375 668 359 642 c 1,10,-1
 359 132 l 2,11,12
 359 116 359 116 366 107 c 128,-1,13
 373 98 373 98 390 94 c 128,-1,14
 407 90 407 90 436.5 89.5 c 128,-1,15
 466 89 466 89 511 89 c 1,16,-1
 511 0 l 1,17,18
 482 0 482 0 455 0 c 128,-1,19
 428 0 428 0 399 0 c 128,-1,20
 370 0 370 0 338 0.5 c 128,-1,21
 306 1 306 1 268 2 c 0,22,23
 233 2 233 2 203 1.5 c 128,-1,24
 173 1 173 1 145.5 1 c 128,-1,25
 118 1 118 1 92 0.5 c 128,-1,26
 66 0 66 0 39 0 c 1,27,-1
 39 89 l 1,28,29
 95 89 95 89 126 91.5 c 128,-1,30
 157 94 157 94 171.5 99.5 c 128,-1,31
 186 105 186 105 189 114.5 c 128,-1,32
 192 124 192 124 192 138 c 2,33,-1
 192 1163 l 2,34,35
 192 1178 192 1178 181.5 1186.5 c 128,-1,36
 171 1195 171 1195 151.5 1198.5 c 128,-1,37
 132 1202 132 1202 105 1202.5 c 128,-1,38
 78 1203 78 1203 45 1203 c 1,39,-1
 45 1293 l 1,40,41
 63 1293 63 1293 82.5 1292.5 c 128,-1,42
 102 1292 102 1292 128 1292 c 0,43,44
 183 1292 183 1292 240 1293.5 c 128,-1,45
 297 1295 297 1295 358 1297 c 1,46,47
 358 1239 358 1239 358.5 1172 c 128,-1,48
 359 1105 359 1105 359 1035.5 c 128,-1,49
 359 966 359 966 359 898.5 c 128,-1,50
 359 831 359 831 359 773 c 1,51,52
 431 848 431 848 518.5 883 c 128,-1,53
 606 918 606 918 712 918 c 0,54,55
 805 918 805 918 862 889 c 128,-1,56
 919 860 919 860 950 802.5 c 128,-1,57
 981 745 981 745 991.5 659 c 128,-1,58
 1002 573 1002 573 1002 458 c 2,59,-1
 1002 149 l 2,60,61
 1002 126 1002 126 1009 114 c 128,-1,62
 1016 102 1016 102 1032.5 96.5 c 128,-1,63
 1049 91 1049 91 1076 90 c 128,-1,64
 1103 89 1103 89 1144 89 c 1,65,-1
 1144 0 l 1,66,67
 1117 0 1117 0 1091.5 0 c 128,-1,68
 1066 0 1066 0 1039 0 c 128,-1,69
 1012 0 1012 0 981.5 0.5 c 128,-1,70
 951 1 951 1 915 2 c 1,71,72
 843 2 843 2 789.5 1 c 128,-1,73
 736 0 736 0 682 0 c 1,74,-1
 682 89 l 1,75,76
 726 90 726 90 755 92 c 128,-1,77
 784 94 784 94 801.5 99.5 c 128,-1,78
 819 105 819 105 826 116 c 128,-1,79
 833 127 833 127 833 146 c 2,80,-1
 833 532 l 2,0,1
EndSplineSet
EndChar

StartChar: i
Encoding: 105 105 72
Width: 559
Flags: W
LayerCount: 2
Fore
SplineSet
268 1315 m 256,0,1
 318 1315 318 1315 347 1290.5 c 128,-1,2
 376 1266 376 1266 376 1223 c 0,3,4
 376 1179 376 1179 347.5 1153.5 c 128,-1,5
 319 1128 319 1128 268 1128 c 0,6,7
 218 1128 218 1128 190 1153 c 128,-1,8
 162 1178 162 1178 162 1223 c 0,9,10
 162 1266 162 1266 190 1290.5 c 128,-1,11
 218 1315 218 1315 268 1315 c 256,0,1
373 156 m 2,12,13
 373 132 373 132 381 118.5 c 128,-1,14
 389 105 389 105 407 98.5 c 128,-1,15
 425 92 425 92 453.5 90.5 c 128,-1,16
 482 89 482 89 523 89 c 1,17,-1
 523 0 l 1,18,19
 497 0 497 0 453 0.5 c 128,-1,20
 409 1 409 1 365 1 c 128,-1,21
 321 1 321 1 287 1.5 c 128,-1,22
 253 2 253 2 247 2 c 0,23,24
 190 2 190 2 146.5 1 c 128,-1,25
 103 0 103 0 57 0 c 1,26,-1
 57 89 l 1,27,28
 111 89 111 89 141 92 c 128,-1,29
 171 95 171 95 185.5 102 c 128,-1,30
 200 109 200 109 202.5 121.5 c 128,-1,31
 205 134 205 134 205 154 c 2,32,-1
 205 770 l 2,33,34
 205 784 205 784 197.5 791 c 128,-1,35
 190 798 190 798 173 801.5 c 128,-1,36
 156 805 156 805 128.5 805.5 c 128,-1,37
 101 806 101 806 62 806 c 1,38,-1
 62 895 l 1,39,40
 147 895 147 895 222 896 c 128,-1,41
 297 897 297 897 373 900 c 1,42,-1
 373 156 l 2,12,13
EndSplineSet
EndChar

StartChar: j
Encoding: 106 106 73
Width: 546
Flags: W
LayerCount: 2
Fore
SplineSet
381 84 m 2,0,1
 381 13 381 13 379 -51.5 c 128,-1,2
 377 -116 377 -116 367 -170.5 c 128,-1,3
 357 -225 357 -225 337.5 -269 c 128,-1,4
 318 -313 318 -313 283.5 -343.5 c 128,-1,5
 249 -374 249 -374 196 -390.5 c 128,-1,6
 143 -407 143 -407 68 -407 c 0,7,8
 25 -407 25 -407 -16.5 -403 c 128,-1,9
 -58 -399 -58 -399 -99 -388 c 1,10,-1
 -99 -210 l 1,11,12
 -81 -212 -81 -212 -61 -212.5 c 128,-1,13
 -41 -213 -41 -213 -22 -213 c 1,14,15
 -14 -270 -14 -270 4.5 -290.5 c 128,-1,16
 23 -311 23 -311 59 -311 c 0,17,18
 113 -311 113 -311 144 -288 c 128,-1,19
 175 -265 175 -265 190 -216.5 c 128,-1,20
 205 -168 205 -168 208.5 -93 c 128,-1,21
 212 -18 212 -18 212 86 c 2,22,-1
 212 749 l 2,23,24
 212 769 212 769 204 780.5 c 128,-1,25
 196 792 196 792 179 797 c 128,-1,26
 162 802 162 802 133.5 804 c 128,-1,27
 105 806 105 806 65 806 c 1,28,-1
 65 895 l 1,29,30
 151 895 151 895 228 895 c 128,-1,31
 305 895 305 895 381 900 c 1,32,-1
 381 84 l 2,0,1
274 1315 m 0,33,34
 325 1315 325 1315 353.5 1291 c 128,-1,35
 382 1267 382 1267 382 1223 c 0,36,37
 382 1178 382 1178 353 1153 c 128,-1,38
 324 1128 324 1128 274 1128 c 0,39,40
 223 1128 223 1128 195 1153 c 128,-1,41
 167 1178 167 1178 167 1223 c 0,42,43
 167 1266 167 1266 195.5 1290.5 c 128,-1,44
 224 1315 224 1315 274 1315 c 0,33,34
EndSplineSet
EndChar

StartChar: k
Encoding: 107 107 74
Width: 1093
Flags: W
LayerCount: 2
Fore
SplineSet
40 89 m 1,0,1
 82 90 82 90 111.5 91.5 c 128,-1,2
 141 93 141 93 159.5 99.5 c 128,-1,3
 178 106 178 106 186 119.5 c 128,-1,4
 194 133 194 133 194 157 c 2,5,-1
 194 1153 l 2,6,7
 194 1172 194 1172 185 1181.5 c 128,-1,8
 176 1191 176 1191 157.5 1195.5 c 128,-1,9
 139 1200 139 1200 111 1201 c 128,-1,10
 83 1202 83 1202 45 1202 c 1,11,-1
 45 1292 l 1,12,13
 99 1292 99 1292 141 1292 c 128,-1,14
 183 1292 183 1292 219.5 1292.5 c 128,-1,15
 256 1293 256 1293 290 1294 c 128,-1,16
 324 1295 324 1295 361 1296 c 1,17,-1
 361 496 l 1,18,-1
 631 699 l 1,19,20
 732 771 732 771 732 792 c 0,21,22
 732 797 732 797 724 800 c 128,-1,23
 716 803 716 803 702.5 804.5 c 128,-1,24
 689 806 689 806 670.5 806 c 128,-1,25
 652 806 652 806 632 806 c 1,26,-1
 635 895 l 1,27,28
 687 894 687 894 727.5 893.5 c 128,-1,29
 768 893 768 893 802 893 c 0,30,31
 858 893 858 893 916.5 893.5 c 128,-1,32
 975 894 975 894 1052 895 c 1,33,-1
 1052 806 l 1,34,35
 1011 806 1011 806 988 805 c 128,-1,36
 965 804 965 804 943.5 795 c 128,-1,37
 922 786 922 786 893 766 c 128,-1,38
 864 746 864 746 812 707 c 2,39,-1
 531 499 l 1,40,-1
 921 140 l 2,41,42
 957 107 957 107 985.5 97.5 c 128,-1,43
 1014 88 1014 88 1047 88 c 0,44,45
 1058 88 1058 88 1069 88.5 c 128,-1,46
 1080 89 1080 89 1094 89 c 1,47,-1
 1094 0 l 1,48,49
 1045 0 1045 0 997 1 c 128,-1,50
 949 2 949 2 893 2 c 0,51,52
 856 2 856 2 824.5 1.5 c 128,-1,53
 793 1 793 1 763 1 c 128,-1,54
 733 1 733 1 703.5 0.5 c 128,-1,55
 674 0 674 0 643 0 c 1,56,-1
 643 89 l 1,57,58
 696 89 696 89 718.5 91 c 128,-1,59
 741 93 741 93 741 105 c 0,60,61
 741 116 741 116 726.5 131.5 c 128,-1,62
 712 147 712 147 688 169 c 2,63,-1
 404 430 l 1,64,-1
 361 402 l 1,65,-1
 360 156 l 2,66,67
 360 135 360 135 366 122 c 128,-1,68
 372 109 372 109 389 101.5 c 128,-1,69
 406 94 406 94 436.5 91.5 c 128,-1,70
 467 89 467 89 517 89 c 1,71,-1
 517 0 l 1,72,73
 465 0 465 0 411.5 0 c 128,-1,74
 358 0 358 0 289 2 c 0,75,76
 284 2 284 2 253.5 1.5 c 128,-1,77
 223 1 223 1 184 1 c 128,-1,78
 145 1 145 1 104.5 0.5 c 128,-1,79
 64 0 64 0 40 0 c 1,80,-1
 40 89 l 1,0,1
EndSplineSet
EndChar

StartChar: l
Encoding: 108 108 75
Width: 550
Flags: W
LayerCount: 2
Fore
SplineSet
358 159 m 2,0,1
 358 134 358 134 367.5 120 c 128,-1,2
 377 106 377 106 396.5 99 c 128,-1,3
 416 92 416 92 444.5 90.5 c 128,-1,4
 473 89 473 89 512 89 c 1,5,-1
 512 0 l 1,6,7
 484 0 484 0 457 0 c 128,-1,8
 430 0 430 0 401.5 0 c 128,-1,9
 373 0 373 0 342 0.5 c 128,-1,10
 311 1 311 1 274 2 c 0,11,12
 238 2 238 2 207 1.5 c 128,-1,13
 176 1 176 1 148 1 c 128,-1,14
 120 1 120 1 94 0.5 c 128,-1,15
 68 0 68 0 41 0 c 1,16,17
 41 8 41 8 41 20 c 128,-1,18
 41 32 41 32 40.5 44.5 c 128,-1,19
 40 57 40 57 40 69 c 128,-1,20
 40 81 40 81 40 89 c 1,21,22
 97 89 97 89 127.5 94 c 128,-1,23
 158 99 158 99 172 109 c 128,-1,24
 186 119 186 119 188.5 134 c 128,-1,25
 191 149 191 149 191 170 c 2,26,-1
 191 1152 l 2,27,28
 191 1170 191 1170 181.5 1180 c 128,-1,29
 172 1190 172 1190 153 1194.5 c 128,-1,30
 134 1199 134 1199 107 1200 c 128,-1,31
 80 1201 80 1201 45 1202 c 1,32,-1
 45 1292 l 1,33,34
 124 1292 124 1292 198 1293 c 128,-1,35
 272 1294 272 1294 358 1296 c 1,36,-1
 358 159 l 2,0,1
EndSplineSet
EndChar

StartChar: m
Encoding: 109 109 76
Width: 1781
Flags: W
LayerCount: 2
Fore
SplineSet
816 533 m 2,0,1
 816 599 816 599 809.5 651.5 c 128,-1,2
 803 704 803 704 784 741 c 128,-1,3
 765 778 765 778 730 796 c 128,-1,4
 695 814 695 814 638 814 c 0,5,6
 590 814 590 814 552 801 c 128,-1,7
 514 788 514 788 482 766 c 128,-1,8
 450 744 450 744 421.5 716 c 128,-1,9
 393 688 393 688 362 654 c 1,10,-1
 362 233 l 2,11,12
 362 176 362 176 361.5 146 c 128,-1,13
 361 116 361 116 374.5 103.5 c 128,-1,14
 388 91 388 91 419.5 90 c 128,-1,15
 451 89 451 89 511 89 c 1,16,-1
 511 0 l 1,17,18
 485 0 485 0 460 0 c 128,-1,19
 435 0 435 0 408 0 c 128,-1,20
 381 0 381 0 351 0.5 c 128,-1,21
 321 1 321 1 285 2 c 1,22,23
 212 2 212 2 156 1 c 128,-1,24
 100 0 100 0 44 0 c 1,25,-1
 44 89 l 1,26,27
 99 89 99 89 129 92.5 c 128,-1,28
 159 96 159 96 173 102.5 c 128,-1,29
 187 109 187 109 189.5 119.5 c 128,-1,30
 192 130 192 130 192 145 c 2,31,-1
 192 760 l 2,32,33
 192 776 192 776 184.5 785.5 c 128,-1,34
 177 795 177 795 160 799.5 c 128,-1,35
 143 804 143 804 115.5 805 c 128,-1,36
 88 806 88 806 49 806 c 1,37,-1
 49 895 l 1,38,39
 69 895 69 895 88.5 894.5 c 128,-1,40
 108 894 108 894 136 894 c 0,41,42
 190 894 190 894 243.5 895.5 c 128,-1,43
 297 897 297 897 351 899 c 1,44,-1
 351 751 l 1,45,46
 418 830 418 830 507 873 c 128,-1,47
 596 916 596 916 703 918 c 1,48,49
 792 918 792 918 861.5 874 c 128,-1,50
 931 830 931 830 966 746 c 1,51,52
 1039 828 1039 828 1129 873 c 128,-1,53
 1219 918 1219 918 1321 918 c 1,54,55
 1412 916 1412 916 1468.5 886 c 128,-1,56
 1525 856 1525 856 1555.5 802 c 128,-1,57
 1586 748 1586 748 1596.5 672 c 128,-1,58
 1607 596 1607 596 1608 502 c 1,59,-1
 1608 135 l 2,60,61
 1608 118 1608 118 1615 109.5 c 128,-1,62
 1622 101 1622 101 1638.5 97 c 128,-1,63
 1655 93 1655 93 1682 92.5 c 128,-1,64
 1709 92 1709 92 1749 91 c 1,65,-1
 1749 0 l 1,66,67
 1693 0 1693 0 1637.5 1 c 128,-1,68
 1582 2 1582 2 1510 2 c 0,69,70
 1475 2 1475 2 1446 1.5 c 128,-1,71
 1417 1 1417 1 1391 1 c 128,-1,72
 1365 1 1365 1 1340 0.5 c 128,-1,73
 1315 0 1315 0 1289 0 c 1,74,-1
 1289 91 l 1,75,76
 1332 92 1332 92 1361 93.5 c 128,-1,77
 1390 95 1390 95 1407 100.5 c 128,-1,78
 1424 106 1424 106 1431.5 116.5 c 128,-1,79
 1439 127 1439 127 1439 147 c 2,80,-1
 1439 533 l 2,81,82
 1439 604 1439 604 1432 657 c 128,-1,83
 1425 710 1425 710 1405.5 745.5 c 128,-1,84
 1386 781 1386 781 1351 797.5 c 128,-1,85
 1316 814 1316 814 1260 814 c 0,86,87
 1211 814 1211 814 1172 798.5 c 128,-1,88
 1133 783 1133 783 1100 760.5 c 128,-1,89
 1067 738 1067 738 1039.5 710.5 c 128,-1,90
 1012 683 1012 683 989 652 c 1,91,92
 987 616 987 616 986 579 c 128,-1,93
 985 542 985 542 985 503 c 2,94,-1
 985 138 l 2,95,96
 985 120 985 120 991.5 110.5 c 128,-1,97
 998 101 998 101 1013.5 96.5 c 128,-1,98
 1029 92 1029 92 1056.5 91 c 128,-1,99
 1084 90 1084 90 1126 89 c 1,100,-1
 1126 0 l 1,101,102
 1101 0 1101 0 1077 0 c 128,-1,103
 1053 0 1053 0 1027.5 0 c 128,-1,104
 1002 0 1002 0 973 0.5 c 128,-1,105
 944 1 944 1 909 2 c 1,106,107
 872 2 872 2 840.5 1.5 c 128,-1,108
 809 1 809 1 780 1 c 128,-1,109
 751 1 751 1 723.5 0.5 c 128,-1,110
 696 0 696 0 668 0 c 1,111,-1
 668 89 l 1,112,113
 710 90 710 90 738.5 91.5 c 128,-1,114
 767 93 767 93 784.5 98.5 c 128,-1,115
 802 104 802 104 809 115 c 128,-1,116
 816 126 816 126 816 144 c 2,117,-1
 816 533 l 2,0,1
EndSplineSet
EndChar

StartChar: n
Encoding: 110 110 77
Width: 1162
Flags: W
LayerCount: 2
Fore
SplineSet
35 89 m 1,0,1
 91 89 91 89 122 91 c 128,-1,2
 153 93 153 93 168 99 c 128,-1,3
 183 105 183 105 186 115 c 128,-1,4
 189 125 189 125 189 141 c 2,5,-1
 189 773 l 2,6,7
 189 785 189 785 182.5 792 c 128,-1,8
 176 799 176 799 159.5 802 c 128,-1,9
 143 805 143 805 114.5 805.5 c 128,-1,10
 86 806 86 806 40 806 c 1,11,-1
 40 895 l 1,12,13
 129 895 129 895 204 896 c 128,-1,14
 279 897 279 897 351 900 c 1,15,-1
 351 759 l 1,16,17
 419 836 419 836 507.5 876.5 c 128,-1,18
 596 917 596 917 696 918 c 1,19,20
 842 917 842 917 920 838.5 c 128,-1,21
 998 760 998 760 998 590 c 2,22,-1
 998 130 l 2,23,24
 998 114 998 114 1005 106 c 128,-1,25
 1012 98 1012 98 1028.5 94.5 c 128,-1,26
 1045 91 1045 91 1072 90.5 c 128,-1,27
 1099 90 1099 90 1138 89 c 1,28,-1
 1138 0 l 1,29,30
 1114 0 1114 0 1090.5 0 c 128,-1,31
 1067 0 1067 0 1041.5 0 c 128,-1,32
 1016 0 1016 0 987.5 0.5 c 128,-1,33
 959 1 959 1 924 2 c 1,34,35
 851 2 851 2 793 1 c 128,-1,36
 735 0 735 0 677 0 c 1,37,-1
 677 89 l 1,38,39
 734 89 734 89 765 91 c 128,-1,40
 796 93 796 93 810 98.5 c 128,-1,41
 824 104 824 104 826.5 112.5 c 128,-1,42
 829 121 829 121 829 135 c 2,43,-1
 829 532 l 2,44,45
 829 599 829 599 821.5 653.5 c 128,-1,46
 814 708 814 708 793.5 743 c 128,-1,47
 773 778 773 778 737.5 795.5 c 128,-1,48
 702 813 702 813 646 814 c 1,49,50
 592 813 592 813 547 796 c 128,-1,51
 502 779 502 779 466.5 754.5 c 128,-1,52
 431 730 431 730 404.5 702.5 c 128,-1,53
 378 675 378 675 359 651 c 1,54,55
 356 577 356 577 356 499 c 2,56,-1
 356 136 l 2,57,58
 356 118 356 118 364.5 108.5 c 128,-1,59
 373 99 373 99 391.5 94.5 c 128,-1,60
 410 90 410 90 438.5 89.5 c 128,-1,61
 467 89 467 89 508 89 c 1,62,-1
 508 0 l 1,63,64
 482 0 482 0 457 0 c 128,-1,65
 432 0 432 0 405.5 0 c 128,-1,66
 379 0 379 0 348.5 0.5 c 128,-1,67
 318 1 318 1 282 2 c 1,68,69
 207 2 207 2 149 1 c 128,-1,70
 91 0 91 0 35 0 c 1,71,-1
 35 89 l 1,0,1
EndSplineSet
EndChar

StartChar: o
Encoding: 111 111 78
Width: 1115
Flags: W
LayerCount: 2
Fore
SplineSet
557 918 m 256,0,1
 662 918 662 918 750 885 c 128,-1,2
 838 852 838 852 901.5 790 c 128,-1,3
 965 728 965 728 1000 640 c 128,-1,4
 1035 552 1035 552 1035 447 c 0,5,6
 1035 346 1035 346 1000 258.5 c 128,-1,7
 965 171 965 171 902 109 c 128,-1,8
 839 47 839 47 751 13 c 128,-1,9
 663 -21 663 -21 557 -21 c 256,10,11
 451 -21 451 -21 363.5 12.5 c 128,-1,12
 276 46 276 46 213 108.5 c 128,-1,13
 150 171 150 171 115.5 258.5 c 128,-1,14
 81 346 81 346 81 447 c 0,15,16
 81 552 81 552 116 639.5 c 128,-1,17
 151 727 151 727 214 789.5 c 128,-1,18
 277 852 277 852 364.5 885 c 128,-1,19
 452 918 452 918 557 918 c 256,0,1
557 814 m 0,20,21
 487 814 487 814 431 788 c 128,-1,22
 375 762 375 762 335.5 715 c 128,-1,23
 296 668 296 668 275 599.5 c 128,-1,24
 254 531 254 531 254 448 c 0,25,26
 254 370 254 370 275.5 301.5 c 128,-1,27
 297 233 297 233 336.5 184.5 c 128,-1,28
 376 136 376 136 432 110 c 128,-1,29
 488 84 488 84 557 84 c 256,30,31
 626 84 626 84 682 110 c 128,-1,32
 738 136 738 136 778 184.5 c 128,-1,33
 818 233 818 233 839.5 301.5 c 128,-1,34
 861 370 861 370 861 448 c 0,35,36
 861 530 861 530 839.5 599 c 128,-1,37
 818 668 818 668 778.5 715 c 128,-1,38
 739 762 739 762 682.5 788 c 128,-1,39
 626 814 626 814 557 814 c 0,20,21
EndSplineSet
EndChar

StartChar: p
Encoding: 112 112 79
Width: 1194
Flags: W
LayerCount: 2
Fore
SplineSet
631 806 m 0,0,1
 562 806 562 806 506.5 781 c 128,-1,2
 451 756 451 756 412.5 710 c 128,-1,3
 374 664 374 664 353 597.5 c 128,-1,4
 332 531 332 531 332 449 c 0,5,6
 332 365 332 365 353.5 297 c 128,-1,7
 375 229 375 229 414.5 182.5 c 128,-1,8
 454 136 454 136 510.5 110 c 128,-1,9
 567 84 567 84 637 84 c 256,10,11
 707 84 707 84 763 109 c 128,-1,12
 819 134 819 134 858.5 180 c 128,-1,13
 898 226 898 226 919 293.5 c 128,-1,14
 940 361 940 361 940 447 c 0,15,16
 940 530 940 530 918.5 596.5 c 128,-1,17
 897 663 897 663 857 709.5 c 128,-1,18
 817 756 817 756 759.5 781 c 128,-1,19
 702 806 702 806 631 806 c 0,0,1
22 -314 m 1,20,21
 77 -313 77 -313 107.5 -309.5 c 128,-1,22
 138 -306 138 -306 152.5 -298.5 c 128,-1,23
 167 -291 167 -291 170 -280 c 128,-1,24
 173 -269 173 -269 173 -252 c 2,25,-1
 173 764 l 2,26,27
 173 780 173 780 164.5 788.5 c 128,-1,28
 156 797 156 797 139 800.5 c 128,-1,29
 122 804 122 804 95 805 c 128,-1,30
 68 806 68 806 32 806 c 1,31,-1
 32 895 l 1,32,33
 109 895 109 895 183 895 c 128,-1,34
 257 895 257 895 332 900 c 1,35,-1
 334 735 l 1,36,37
 385 820 385 820 473 867.5 c 128,-1,38
 561 915 561 915 676 915 c 0,39,40
 773 915 773 915 853 881.5 c 128,-1,41
 933 848 933 848 990 787 c 128,-1,42
 1047 726 1047 726 1078.5 641.5 c 128,-1,43
 1110 557 1110 557 1110 454 c 0,44,45
 1110 345 1110 345 1078.5 259 c 128,-1,46
 1047 173 1047 173 990 110 c 128,-1,47
 933 47 933 47 852.5 13 c 128,-1,48
 772 -21 772 -21 674 -21 c 0,49,50
 564 -21 564 -21 481 20 c 128,-1,51
 398 61 398 61 343 139 c 1,52,-1
 341 -256 l 2,53,54
 341 -278 341 -278 347 -289.5 c 128,-1,55
 353 -301 353 -301 368 -306.5 c 128,-1,56
 383 -312 383 -312 408.5 -313 c 128,-1,57
 434 -314 434 -314 472 -314 c 2,58,-1
 507 -314 l 1,59,-1
 507 -404 l 1,60,61
 498 -404 498 -404 477 -403.5 c 128,-1,62
 456 -403 456 -403 430 -403 c 128,-1,63
 404 -403 404 -403 376 -403 c 128,-1,64
 348 -403 348 -403 323.5 -403 c 128,-1,65
 299 -403 299 -403 282 -403 c 128,-1,66
 265 -403 265 -403 261 -403 c 256,67,68
 257 -403 257 -403 240 -403 c 128,-1,69
 223 -403 223 -403 199.5 -403 c 128,-1,70
 176 -403 176 -403 148.5 -403 c 128,-1,71
 121 -403 121 -403 95.5 -403 c 128,-1,72
 70 -403 70 -403 50 -403.5 c 128,-1,73
 30 -404 30 -404 22 -404 c 1,74,-1
 22 -314 l 1,20,21
EndSplineSet
EndChar

StartChar: q
Encoding: 113 113 80
Width: 1194
Flags: W
LayerCount: 2
Fore
SplineSet
864 447 m 0,0,1
 864 529 864 529 843 595.5 c 128,-1,2
 822 662 822 662 783.5 713 c 128,-1,3
 745 764 745 764 689.5 789 c 128,-1,4
 634 814 634 814 565 814 c 0,5,6
 494 814 494 814 437 789 c 128,-1,7
 380 764 380 764 340 714.5 c 128,-1,8
 300 665 300 665 278.5 596.5 c 128,-1,9
 257 528 257 528 257 444 c 0,10,11
 257 359 257 359 278.5 294.5 c 128,-1,12
 300 230 300 230 339.5 182.5 c 128,-1,13
 379 135 379 135 435 109.5 c 128,-1,14
 491 84 491 84 560 84 c 256,15,16
 629 84 629 84 685.5 110.5 c 128,-1,17
 742 137 742 137 781.5 182 c 128,-1,18
 821 227 821 227 842.5 295 c 128,-1,19
 864 363 864 363 864 447 c 0,0,1
690 -314 m 1,20,-1
 728 -314 l 2,21,22
 775 -314 775 -314 800.5 -312 c 128,-1,23
 826 -310 826 -310 838 -303.5 c 128,-1,24
 850 -297 850 -297 852.5 -285 c 128,-1,25
 855 -273 855 -273 855 -253 c 2,26,-1
 853 139 l 1,27,28
 744 -21 744 -21 523 -21 c 0,29,30
 425 -21 425 -21 344.5 13 c 128,-1,31
 264 47 264 47 207 110 c 128,-1,32
 150 173 150 173 119 258.5 c 128,-1,33
 88 344 88 344 88 453 c 0,34,35
 88 556 88 556 119 643 c 128,-1,36
 150 730 150 730 207 790.5 c 128,-1,37
 264 851 264 851 344 884.5 c 128,-1,38
 424 918 424 918 522 918 c 0,39,40
 634 918 634 918 721 870 c 128,-1,41
 808 822 808 822 863 737 c 1,42,-1
 864 900 l 1,43,44
 938 895 938 895 1015 895 c 128,-1,45
 1092 895 1092 895 1171 895 c 1,46,-1
 1171 806 l 1,47,48
 1112 807 1112 807 1084 801.5 c 128,-1,49
 1056 796 1056 796 1042 787 c 128,-1,50
 1028 778 1028 778 1025.5 764.5 c 128,-1,51
 1023 751 1023 751 1023 733 c 2,52,-1
 1023 -250 l 2,53,54
 1023 -272 1023 -272 1026.5 -284.5 c 128,-1,55
 1030 -297 1030 -297 1045 -303 c 128,-1,56
 1060 -309 1060 -309 1090.5 -311 c 128,-1,57
 1121 -313 1121 -313 1175 -314 c 1,58,-1
 1175 -404 l 1,59,60
 1165 -404 1165 -404 1143 -403.5 c 128,-1,61
 1121 -403 1121 -403 1094 -403 c 128,-1,62
 1067 -403 1067 -403 1038 -403 c 128,-1,63
 1009 -403 1009 -403 984.5 -403 c 128,-1,64
 960 -403 960 -403 942.5 -403 c 128,-1,65
 925 -403 925 -403 921 -403 c 256,66,67
 917 -403 917 -403 900.5 -403 c 128,-1,68
 884 -403 884 -403 861 -403 c 128,-1,69
 838 -403 838 -403 811.5 -403 c 128,-1,70
 785 -403 785 -403 761 -403 c 128,-1,71
 737 -403 737 -403 717.5 -403.5 c 128,-1,72
 698 -404 698 -404 690 -404 c 1,73,-1
 690 -314 l 1,20,-1
EndSplineSet
EndChar

StartChar: r
Encoding: 114 114 81
Width: 822
Flags: W
LayerCount: 2
Fore
SplineSet
793 707 m 1,0,-1
 733 707 l 1,1,2
 713 755 713 755 683 772.5 c 128,-1,3
 653 790 653 790 601 790 c 0,4,5
 552 790 552 790 511 767 c 128,-1,6
 470 744 470 744 440 701.5 c 128,-1,7
 410 659 410 659 393.5 599.5 c 128,-1,8
 377 540 377 540 376 467 c 0,9,10
 375 466 375 466 375 442.5 c 128,-1,11
 375 419 375 419 374.5 384 c 128,-1,12
 374 349 374 349 374 308.5 c 128,-1,13
 374 268 374 268 374 232 c 128,-1,14
 374 196 374 196 374 171.5 c 128,-1,15
 374 147 374 147 374 145 c 0,16,17
 374 124 374 124 382.5 112.5 c 128,-1,18
 391 101 391 101 411 95.5 c 128,-1,19
 431 90 431 90 464 89.5 c 128,-1,20
 497 89 497 89 545 89 c 1,21,-1
 545 0 l 1,22,23
 513 0 513 0 483.5 0.5 c 128,-1,24
 454 1 454 1 422 1 c 128,-1,25
 390 1 390 1 354.5 1.5 c 128,-1,26
 319 2 319 2 276 2 c 0,27,28
 239 2 239 2 209 1.5 c 128,-1,29
 179 1 179 1 152.5 1 c 128,-1,30
 126 1 126 1 101 0.5 c 128,-1,31
 76 0 76 0 49 0 c 1,32,-1
 49 89 l 1,33,34
 106 89 106 89 137.5 91.5 c 128,-1,35
 169 94 169 94 184 101 c 128,-1,36
 199 108 199 108 201.5 121 c 128,-1,37
 204 134 204 134 204 154 c 2,38,-1
 204 760 l 2,39,40
 204 777 204 777 198.5 786.5 c 128,-1,41
 193 796 193 796 176.5 800.5 c 128,-1,42
 160 805 160 805 130.5 805.5 c 128,-1,43
 101 806 101 806 54 806 c 1,44,-1
 54 895 l 1,45,46
 65 895 65 895 88.5 894.5 c 128,-1,47
 112 894 112 894 135 894 c 2,48,-1
 194 894 l 2,49,50
 236 894 236 894 278.5 896 c 128,-1,51
 321 898 321 898 366 899 c 1,52,-1
 366 717 l 1,53,54
 414 811 414 811 499.5 864.5 c 128,-1,55
 585 918 585 918 702 918 c 0,56,57
 746 918 746 918 793 912 c 1,58,-1
 793 707 l 1,0,-1
EndSplineSet
EndChar

StartChar: s
Encoding: 115 115 82
Width: 927
Flags: W
LayerCount: 2
Fore
SplineSet
800 618 m 1,0,-1
 706 618 l 1,1,2
 702 718 702 718 639.5 772.5 c 128,-1,3
 577 827 577 827 459 827 c 0,4,5
 409 827 409 827 372 815 c 128,-1,6
 335 803 335 803 310 783 c 128,-1,7
 285 763 285 763 273 736.5 c 128,-1,8
 261 710 261 710 261 682 c 0,9,10
 261 651 261 651 277.5 627.5 c 128,-1,11
 294 604 294 604 324 586 c 128,-1,12
 354 568 354 568 395.5 554 c 128,-1,13
 437 540 437 540 487 527 c 0,14,15
 568 506 568 506 633.5 483 c 128,-1,16
 699 460 699 460 744.5 428.5 c 128,-1,17
 790 397 790 397 815 352.5 c 128,-1,18
 840 308 840 308 840 243 c 0,19,20
 840 179 840 179 814 130 c 128,-1,21
 788 81 788 81 740.5 47.5 c 128,-1,22
 693 14 693 14 626 -3.5 c 128,-1,23
 559 -21 559 -21 477 -21 c 0,24,25
 373 -21 373 -21 304 4 c 128,-1,26
 235 29 235 29 191 83 c 1,27,-1
 181 0 l 1,28,29
 158 1 158 1 137 1.5 c 128,-1,30
 116 2 116 2 93 0 c 1,31,-1
 93 297 l 1,32,-1
 190 297 l 1,33,34
 196 181 196 181 265 127.5 c 128,-1,35
 334 74 334 74 454 74 c 0,36,37
 505 74 505 74 547.5 84.5 c 128,-1,38
 590 95 590 95 620 113 c 128,-1,39
 650 131 650 131 667 157 c 128,-1,40
 684 183 684 183 684 219 c 0,41,42
 684 258 684 258 660.5 285 c 128,-1,43
 637 312 637 312 597.5 332.5 c 128,-1,44
 558 353 558 353 505.5 368.5 c 128,-1,45
 453 384 453 384 395 401 c 0,46,47
 324 423 324 423 270.5 446.5 c 128,-1,48
 217 470 217 470 181 500 c 128,-1,49
 145 530 145 530 127 570 c 128,-1,50
 109 610 109 610 109 664 c 0,51,52
 109 716 109 716 131.5 762 c 128,-1,53
 154 808 154 808 196 843.5 c 128,-1,54
 238 879 238 879 297.5 898.5 c 128,-1,55
 357 918 357 918 431 918 c 0,56,57
 513 918 513 918 586 894.5 c 128,-1,58
 659 871 659 871 704 824 c 1,59,60
 704 825 704 825 707.5 835.5 c 128,-1,61
 711 846 711 846 715 859 c 0,62,63
 719 874 719 874 725 895 c 1,64,65
 743 894 743 894 759 894 c 0,66,67
 773 894 773 894 784.5 894.5 c 128,-1,68
 796 895 796 895 800 895 c 1,69,-1
 800 618 l 1,0,-1
EndSplineSet
EndChar

StartChar: t
Encoding: 116 116 83
Width: 655
Flags: W
LayerCount: 2
Fore
SplineSet
344 1148 m 1,0,-1
 344 895 l 1,1,-1
 584 895 l 1,2,-1
 584 806 l 1,3,-1
 345 806 l 1,4,-1
 345 305 l 2,5,6
 345 254 345 254 346 213.5 c 128,-1,7
 347 173 347 173 355.5 144 c 128,-1,8
 364 115 364 115 383 99.5 c 128,-1,9
 402 84 402 84 438 84 c 0,10,11
 452 84 452 84 466 89.5 c 128,-1,12
 480 95 480 95 490.5 108 c 128,-1,13
 501 121 501 121 507.5 141.5 c 128,-1,14
 514 162 514 162 514 192 c 1,15,-1
 605 201 l 1,16,17
 605 142 605 142 588.5 100 c 128,-1,18
 572 58 572 58 544.5 31.5 c 128,-1,19
 517 5 517 5 480 -8 c 128,-1,20
 443 -21 443 -21 402 -21 c 0,21,22
 332 -21 332 -21 288.5 2 c 128,-1,23
 245 25 245 25 220.5 65.5 c 128,-1,24
 196 106 196 106 187 165 c 128,-1,25
 178 224 178 224 178 296 c 2,26,-1
 178 806 l 1,27,-1
 14 806 l 1,28,-1
 14 885 l 1,29,30
 39 886 39 886 70 888.5 c 128,-1,31
 101 891 101 891 129 893 c 0,32,33
 162 896 162 896 195 899 c 1,34,35
 196 906 196 906 198 924.5 c 128,-1,36
 200 943 200 943 202 967.5 c 128,-1,37
 204 992 204 992 207 1018.5 c 128,-1,38
 210 1045 210 1045 212 1067.5 c 128,-1,39
 214 1090 214 1090 215.5 1105.5 c 128,-1,40
 217 1121 217 1121 217 1122 c 2,41,-1
 344 1148 l 1,0,-1
EndSplineSet
EndChar

StartChar: u
Encoding: 117 117 84
Width: 1170
Flags: W
LayerCount: 2
Fore
SplineSet
472 -21 m 0,0,1
 377 -21 377 -21 320 8 c 128,-1,2
 263 37 263 37 232.5 93.5 c 128,-1,3
 202 150 202 150 192.5 232.5 c 128,-1,4
 183 315 183 315 183 422 c 2,5,-1
 183 739 l 2,6,7
 183 764 183 764 178.5 778 c 128,-1,8
 174 792 174 792 159 798 c 128,-1,9
 144 804 144 804 115.5 805 c 128,-1,10
 87 806 87 806 40 806 c 1,11,-1
 40 893 l 1,12,13
 84 893 84 893 122 893 c 128,-1,14
 160 893 160 893 196.5 893.5 c 128,-1,15
 233 894 233 894 270.5 895.5 c 128,-1,16
 308 897 308 897 351 899 c 1,17,-1
 351 371 l 2,18,19
 351 308 351 308 356.5 254 c 128,-1,20
 362 200 362 200 380.5 162 c 128,-1,21
 399 124 399 124 433.5 104 c 128,-1,22
 468 84 468 84 526 84 c 0,23,24
 580 84 580 84 625.5 95.5 c 128,-1,25
 671 107 671 107 708 128.5 c 128,-1,26
 745 150 745 150 773 180 c 128,-1,27
 801 210 801 210 820 242 c 1,28,29
 822 279 822 279 822 315.5 c 128,-1,30
 822 352 822 352 822 390 c 2,31,-1
 822 734 l 2,32,33
 822 761 822 761 817.5 775.5 c 128,-1,34
 813 790 813 790 797.5 797 c 128,-1,35
 782 804 782 804 753 805 c 128,-1,36
 724 806 724 806 675 806 c 1,37,-1
 675 893 l 1,38,39
 751 893 751 893 830.5 894 c 128,-1,40
 910 895 910 895 990 900 c 1,41,-1
 990 140 l 2,42,43
 990 122 990 122 995 111.5 c 128,-1,44
 1000 101 1000 101 1015.5 96 c 128,-1,45
 1031 91 1031 91 1059 90 c 128,-1,46
 1087 89 1087 89 1133 89 c 1,47,-1
 1133 0 l 1,48,49
 1043 0 1043 0 970 -1 c 128,-1,50
 897 -2 897 -2 829 -4 c 1,51,-1
 829 130 l 1,52,53
 760 54 760 54 669 16.5 c 128,-1,54
 578 -21 578 -21 472 -21 c 0,0,1
EndSplineSet
EndChar

StartChar: v
Encoding: 118 118 85
Width: 1094
Flags: W
LayerCount: 2
Fore
SplineSet
161 712 m 2,0,1
 145 749 145 749 134.5 768 c 128,-1,2
 124 787 124 787 109.5 795.5 c 128,-1,3
 95 804 95 804 72.5 805 c 128,-1,4
 50 806 50 806 11 806 c 1,5,-1
 10 895 l 1,6,7
 62 895 62 895 113 894 c 128,-1,8
 164 893 164 893 211 893 c 256,9,10
 258 893 258 893 318.5 894 c 128,-1,11
 379 895 379 895 454 895 c 1,12,-1
 453 806 l 1,13,14
 372 806 372 806 342 799.5 c 128,-1,15
 312 793 312 793 311 768 c 1,16,17
 312 754 312 754 319 734.5 c 128,-1,18
 326 715 326 715 337 686 c 0,19,20
 351 651 351 651 368 606.5 c 128,-1,21
 385 562 385 562 404 514.5 c 128,-1,22
 423 467 423 467 442 418.5 c 128,-1,23
 461 370 461 370 479 325 c 0,24,25
 521 219 521 219 565 107 c 1,26,27
 566 110 566 110 576 135 c 128,-1,28
 586 160 586 160 601.5 200 c 128,-1,29
 617 240 617 240 636.5 290 c 128,-1,30
 656 340 656 340 676 392.5 c 128,-1,31
 696 445 696 445 715.5 495 c 128,-1,32
 735 545 735 545 750.5 584.5 c 128,-1,33
 766 624 766 624 776 650.5 c 128,-1,34
 786 677 786 677 787 679 c 0,35,36
 798 706 798 706 804 727.5 c 128,-1,37
 810 749 810 749 812 764 c 1,38,39
 811 777 811 777 803.5 785.5 c 128,-1,40
 796 794 796 794 780 798.5 c 128,-1,41
 764 803 764 803 738 804.5 c 128,-1,42
 712 806 712 806 674 806 c 1,43,-1
 674 895 l 1,44,45
 725 895 725 895 769.5 893.5 c 128,-1,46
 814 892 814 892 861 892 c 0,47,48
 915 892 915 892 970.5 893.5 c 128,-1,49
 1026 895 1026 895 1083 895 c 1,50,-1
 1083 806 l 1,51,52
 1051 806 1051 806 1030 804 c 128,-1,53
 1009 802 1009 802 994.5 795.5 c 128,-1,54
 980 789 980 789 969.5 777.5 c 128,-1,55
 959 766 959 766 949.5 746 c 128,-1,56
 940 726 940 726 928.5 696.5 c 128,-1,57
 917 667 917 667 900 626 c 2,58,-1
 635 -12 l 1,59,-1
 469 -12 l 1,60,-1
 161 712 l 2,0,1
EndSplineSet
EndChar

StartChar: w
Encoding: 119 119 86
Width: 1597
Flags: W
LayerCount: 2
Fore
SplineSet
14 895 m 1,0,1
 65 894 65 894 114.5 893.5 c 128,-1,2
 164 893 164 893 204 893 c 0,3,4
 240 893 240 893 292.5 894 c 128,-1,5
 345 895 345 895 407 895 c 1,6,-1
 407 806 l 1,7,8
 344 806 344 806 332 806 c 0,9,10
 309 806 309 806 301.5 798.5 c 128,-1,11
 294 791 294 791 294 770 c 0,12,13
 294 750 294 750 299 724.5 c 128,-1,14
 304 699 304 699 311.5 671 c 128,-1,15
 319 643 319 643 328 614 c 128,-1,16
 337 585 337 585 346 558 c 0,17,18
 357 522 357 522 371.5 476.5 c 128,-1,19
 386 431 386 431 401 383 c 128,-1,20
 416 335 416 335 430 288.5 c 128,-1,21
 444 242 444 242 455 205 c 128,-1,22
 466 168 466 168 473 144.5 c 128,-1,23
 480 121 480 121 481 118 c 1,24,25
 499 178 499 178 514 229 c 0,26,27
 520 251 520 251 526.5 272.5 c 128,-1,28
 533 294 533 294 539 313 c 128,-1,29
 545 332 545 332 549.5 346.5 c 128,-1,30
 554 361 554 361 557 369 c 2,31,-1
 706 822 l 1,32,-1
 916 822 l 1,33,-1
 1042 429 l 2,34,35
 1046 414 1046 414 1052.5 392.5 c 128,-1,36
 1059 371 1059 371 1066.5 346 c 128,-1,37
 1074 321 1074 321 1081.5 293.5 c 128,-1,38
 1089 266 1089 266 1097 240 c 0,39,40
 1115 178 1115 178 1134 111 c 1,41,42
 1187 288 1187 288 1229 429 c 0,43,44
 1247 489 1247 489 1264.5 548 c 128,-1,45
 1282 607 1282 607 1295.5 653 c 128,-1,46
 1309 699 1309 699 1318 729 c 128,-1,47
 1327 759 1327 759 1329 762 c 1,48,49
 1331 769 1331 769 1332 773.5 c 128,-1,50
 1333 778 1333 778 1334 783 c 1,51,52
 1332 799 1332 799 1306.5 802.5 c 128,-1,53
 1281 806 1281 806 1215 806 c 1,54,-1
 1215 895 l 1,55,56
 1257 895 1257 895 1300.5 894 c 128,-1,57
 1344 893 1344 893 1386 893 c 0,58,59
 1436 893 1436 893 1484.5 894 c 128,-1,60
 1533 895 1533 895 1583 895 c 1,61,-1
 1583 806 l 1,62,63
 1538 806 1538 806 1515 802.5 c 128,-1,64
 1492 799 1492 799 1477.5 781.5 c 128,-1,65
 1463 764 1463 764 1451 726.5 c 128,-1,66
 1439 689 1439 689 1417 621 c 2,67,-1
 1210 -12 l 1,68,-1
 1036 -12 l 1,69,-1
 799 750 l 1,70,-1
 561 -12 l 1,71,-1
 385 -12 l 1,72,-1
 148 699 l 2,73,74
 135 737 135 737 126.5 758 c 128,-1,75
 118 779 118 779 105.5 789.5 c 128,-1,76
 93 800 93 800 72 803 c 128,-1,77
 51 806 51 806 14 806 c 1,78,-1
 14 895 l 1,0,1
EndSplineSet
EndChar

StartChar: x
Encoding: 120 120 87
Width: 1101
Flags: W
LayerCount: 2
Fore
SplineSet
48 895 m 1,0,1
 52 895 52 895 75.5 894.5 c 128,-1,2
 99 894 99 894 130.5 894 c 128,-1,3
 162 894 162 894 194 893.5 c 128,-1,4
 226 893 226 893 247 893 c 0,5,6
 272 893 272 893 294 893 c 128,-1,7
 316 893 316 893 339 893.5 c 128,-1,8
 362 894 362 894 387.5 894.5 c 128,-1,9
 413 895 413 895 443 895 c 1,10,-1
 445 821 l 1,11,12
 389 820 389 820 366 815.5 c 128,-1,13
 343 811 343 811 343 798 c 0,14,15
 343 784 343 784 357 768.5 c 128,-1,16
 371 753 371 753 391 730 c 2,17,-1
 558 539 l 1,18,-1
 689 695 l 2,19,20
 719 731 719 731 738 755.5 c 128,-1,21
 757 780 757 780 757 795 c 256,22,23
 757 810 757 810 736.5 815.5 c 128,-1,24
 716 821 716 821 668 821 c 1,25,-1
 669 895 l 1,26,27
 718 895 718 895 760 894 c 128,-1,28
 802 893 802 893 840 893 c 0,29,30
 887 893 887 893 932.5 893.5 c 128,-1,31
 978 894 978 894 1039 895 c 1,32,-1
 1039 806 l 1,33,-1
 1012 806 l 2,34,35
 978 806 978 806 959 803.5 c 128,-1,36
 940 801 940 801 923 788.5 c 128,-1,37
 906 776 906 776 883.5 749.5 c 128,-1,38
 861 723 861 723 820 672 c 0,39,40
 800 648 800 648 770 612.5 c 128,-1,41
 740 577 740 577 712 544 c 0,42,43
 679 505 679 505 645 465 c 1,44,45
 716 384 716 384 773 320 c 0,46,47
 797 293 797 293 821 266.5 c 128,-1,48
 845 240 845 240 863.5 219 c 128,-1,49
 882 198 882 198 894 183 c 128,-1,50
 906 168 906 168 908 167 c 0,51,52
 934 137 934 137 949.5 121.5 c 128,-1,53
 965 106 965 106 980 98.5 c 128,-1,54
 995 91 995 91 1014 90 c 128,-1,55
 1033 89 1033 89 1067 89 c 1,56,-1
 1067 0 l 1,57,58
 1026 0 1026 0 982.5 1 c 128,-1,59
 939 2 939 2 878 2 c 0,60,61
 873 2 873 2 850 1.5 c 128,-1,62
 827 1 827 1 797.5 1 c 128,-1,63
 768 1 768 1 738.5 0.5 c 128,-1,64
 709 0 709 0 692 0 c 1,65,-1
 692 74 l 1,66,67
 750 74 750 74 769 93 c 1,68,69
 758 110 758 110 743 131.5 c 128,-1,70
 728 153 728 153 710 176 c 128,-1,71
 692 199 692 199 673 223 c 128,-1,72
 654 247 654 247 635 269 c 0,73,74
 591 321 591 321 542 376 c 1,75,76
 483 306 483 306 435 251 c 0,77,78
 415 227 415 227 395.5 204.5 c 128,-1,79
 376 182 376 182 360.5 163.5 c 128,-1,80
 345 145 345 145 335 133 c 128,-1,81
 325 121 325 121 324 120 c 0,82,83
 322 112 322 112 322 110 c 0,84,85
 322 93 322 93 344.5 84.5 c 128,-1,86
 367 76 367 76 421 74 c 1,87,-1
 420 0 l 1,88,89
 416 0 416 0 394 0.5 c 128,-1,90
 372 1 372 1 342.5 1.5 c 128,-1,91
 313 2 313 2 281 2 c 128,-1,92
 249 2 249 2 225 2 c 0,93,94
 195 2 195 2 170.5 1.5 c 128,-1,95
 146 1 146 1 124 1 c 128,-1,96
 102 1 102 1 81 0.5 c 128,-1,97
 60 0 60 0 36 0 c 1,98,-1
 36 89 l 1,99,-1
 83 89 l 2,100,101
 102 89 102 89 116 92.5 c 128,-1,102
 130 96 130 96 143 104.5 c 128,-1,103
 156 113 156 113 170 128 c 128,-1,104
 184 143 184 143 203 166 c 0,105,106
 204 168 204 168 215.5 182.5 c 128,-1,107
 227 197 227 197 244 217.5 c 128,-1,108
 261 238 261 238 282.5 264 c 128,-1,109
 304 290 304 290 326 316 c 0,110,111
 378 378 378 378 442 455 c 1,112,-1
 205 728 l 2,113,114
 179 758 179 758 163.5 773.5 c 128,-1,115
 148 789 148 789 133 796.5 c 128,-1,116
 118 804 118 804 99 805 c 128,-1,117
 80 806 80 806 48 806 c 1,118,-1
 48 895 l 1,0,1
EndSplineSet
EndChar

StartChar: y
Encoding: 121 121 88
Width: 1060
Flags: W
LayerCount: 2
Fore
SplineSet
161 -272 m 1,0,1
 187 -276 187 -276 211 -280 c 0,2,3
 231 -283 231 -283 252 -285 c 128,-1,4
 273 -287 273 -287 287 -287 c 0,5,6
 308 -287 308 -287 326.5 -278 c 128,-1,7
 345 -269 345 -269 363.5 -248.5 c 128,-1,8
 382 -228 382 -228 401.5 -194.5 c 128,-1,9
 421 -161 421 -161 443 -112 c 1,10,-1
 481 -12 l 1,11,12
 390 185 390 185 316 343 c 0,13,14
 284 410 284 410 253.5 476 c 128,-1,15
 223 542 223 542 198 598.5 c 128,-1,16
 173 655 173 655 156 691.5 c 128,-1,17
 139 728 139 728 135 736 c 0,18,19
 124 760 124 760 115 773.5 c 128,-1,20
 106 787 106 787 94.5 794.5 c 128,-1,21
 83 802 83 802 65.5 804 c 128,-1,22
 48 806 48 806 19 806 c 2,23,-1
 -17 806 l 1,24,-1
 -17 895 l 1,25,26
 40 895 40 895 95.5 894 c 128,-1,27
 151 893 151 893 200 893 c 0,28,29
 247 893 247 893 306.5 894 c 128,-1,30
 366 895 366 895 441 895 c 1,31,-1
 441 806 l 1,32,-1
 353 806 l 2,33,34
 326 806 326 806 310.5 796.5 c 128,-1,35
 295 787 295 787 294 763 c 1,36,37
 295 743 295 743 303 718 c 128,-1,38
 311 693 311 693 322.5 666.5 c 128,-1,39
 334 640 334 640 346.5 613.5 c 128,-1,40
 359 587 359 587 370 563 c 2,41,-1
 561 155 l 1,42,43
 601 256 601 256 641 354 c 0,44,45
 658 396 658 396 676 440.5 c 128,-1,46
 694 485 694 485 712 529.5 c 128,-1,47
 730 574 730 574 746.5 616 c 128,-1,48
 763 658 763 658 777 692 c 0,49,50
 786 714 786 714 791 730 c 128,-1,51
 796 746 796 746 797 760 c 1,52,53
 796 775 796 775 790.5 784 c 128,-1,54
 785 793 785 793 770 798 c 128,-1,55
 755 803 755 803 727 804.5 c 128,-1,56
 699 806 699 806 654 806 c 1,57,-1
 654 895 l 1,58,59
 706 895 706 895 754.5 894 c 128,-1,60
 803 893 803 893 851 893 c 0,61,62
 904 893 904 893 960 894 c 128,-1,63
 1016 895 1016 895 1074 895 c 1,64,-1
 1074 806 l 1,65,66
 1031 806 1031 806 1006.5 803 c 128,-1,67
 982 800 982 800 967 789.5 c 128,-1,68
 952 779 952 779 942 759.5 c 128,-1,69
 932 740 932 740 917 707 c 2,70,-1
 572 -107 l 2,71,72
 536 -192 536 -192 504 -249 c 128,-1,73
 472 -306 472 -306 439 -340.5 c 128,-1,74
 406 -375 406 -375 369.5 -389.5 c 128,-1,75
 333 -404 333 -404 287 -404 c 0,76,77
 265 -404 265 -404 242 -400 c 128,-1,78
 219 -396 219 -396 199 -391 c 0,79,80
 176 -386 176 -386 154 -378 c 1,81,-1
 161 -272 l 1,0,1
EndSplineSet
EndChar

StartChar: z
Encoding: 122 122 89
Width: 975
Flags: W
LayerCount: 2
Fore
SplineSet
881 894 m 1,0,-1
 881 775 l 1,1,-1
 259 97 l 1,2,-1
 711 97 l 2,3,4
 739 97 739 97 757 98.5 c 128,-1,5
 775 100 775 100 786 109.5 c 128,-1,6
 797 119 797 119 801.5 140.5 c 128,-1,7
 806 162 806 162 806 202 c 2,8,-1
 806 255 l 2,9,10
 806 275 806 275 805.5 291.5 c 128,-1,11
 805 308 805 308 805 309 c 1,12,-1
 892 309 l 1,13,-1
 892 0 l 1,14,-1
 82 0 l 1,15,-1
 82 120 l 1,16,-1
 704 797 l 1,17,-1
 265 797 l 2,18,19
 240 797 240 797 226 788.5 c 128,-1,20
 212 780 212 780 205 758.5 c 128,-1,21
 198 737 198 737 196.5 699 c 128,-1,22
 195 661 195 661 195 601 c 1,23,-1
 109 601 l 1,24,-1
 109 894 l 1,25,-1
 881 894 l 1,0,-1
EndSplineSet
EndChar

StartChar: braceleft
Encoding: 123 123 90
Width: 860
Flags: W
LayerCount: 2
Fore
SplineSet
704 -332 m 0,0,1
 615 -332 615 -332 551 -315.5 c 128,-1,2
 487 -299 487 -299 446.5 -258.5 c 128,-1,3
 406 -218 406 -218 387 -149.5 c 128,-1,4
 368 -81 368 -81 368 22 c 2,5,-1
 368 214 l 2,6,7
 368 282 368 282 356.5 332.5 c 128,-1,8
 345 383 345 383 317.5 417.5 c 128,-1,9
 290 452 290 452 244.5 471 c 128,-1,10
 199 490 199 490 132 493 c 1,11,-1
 132 596 l 1,12,13
 200 599 200 599 245.5 617.5 c 128,-1,14
 291 636 291 636 318 671 c 128,-1,15
 345 706 345 706 356.5 758 c 128,-1,16
 368 810 368 810 368 881 c 2,17,-1
 368 1067 l 2,18,19
 368 1167 368 1167 386.5 1235 c 128,-1,20
 405 1303 405 1303 445.5 1344.5 c 128,-1,21
 486 1386 486 1386 549.5 1403.5 c 128,-1,22
 613 1421 613 1421 703 1421 c 0,23,24
 707 1421 707 1421 714.5 1420.5 c 128,-1,25
 722 1420 722 1420 727 1419 c 1,26,-1
 727 1325 l 1,27,28
 662 1324 662 1324 621 1313.5 c 128,-1,29
 580 1303 580 1303 556 1274 c 128,-1,30
 532 1245 532 1245 523 1192 c 128,-1,31
 514 1139 514 1139 514 1053 c 0,32,33
 513 928 513 928 507 841.5 c 128,-1,34
 501 755 501 755 477.5 696 c 128,-1,35
 454 637 454 637 406.5 601.5 c 128,-1,36
 359 566 359 566 275 545 c 1,37,38
 344 527 344 527 390 497.5 c 128,-1,39
 436 468 436 468 463.5 421.5 c 128,-1,40
 491 375 491 375 502.5 309.5 c 128,-1,41
 514 244 514 244 514 153 c 0,42,43
 514 69 514 69 515.5 8 c 128,-1,44
 517 -53 517 -53 524 -96.5 c 128,-1,45
 531 -140 531 -140 544 -167 c 128,-1,46
 557 -194 557 -194 581 -209.5 c 128,-1,47
 605 -225 605 -225 640.5 -231 c 128,-1,48
 676 -237 676 -237 727 -238 c 1,49,-1
 727 -331 l 1,50,51
 722 -332 722 -332 715.5 -332 c 128,-1,52
 709 -332 709 -332 704 -332 c 0,0,1
EndSplineSet
EndChar

StartChar: bar
Encoding: 124 124 91
Width: 1038
Flags: W
LayerCount: 2
Fore
SplineSet
586 -448 m 1,0,-1
 453 -448 l 1,1,-1
 453 1442 l 1,2,-1
 586 1442 l 1,3,-1
 586 -448 l 1,0,-1
EndSplineSet
EndChar

StartChar: braceright
Encoding: 125 125 92
Width: 860
Flags: W
LayerCount: 2
Fore
SplineSet
492 885 m 2,0,1
 492 813 492 813 503 760.5 c 128,-1,2
 514 708 514 708 541 672.5 c 128,-1,3
 568 637 568 637 613.5 618 c 128,-1,4
 659 599 659 599 728 596 c 1,5,-1
 728 493 l 1,6,7
 660 490 660 490 615 471 c 128,-1,8
 570 452 570 452 542.5 417 c 128,-1,9
 515 382 515 382 503.5 331 c 128,-1,10
 492 280 492 280 492 211 c 2,11,-1
 492 74 l 2,12,13
 492 -43 492 -43 476.5 -121.5 c 128,-1,14
 461 -200 461 -200 422 -246.5 c 128,-1,15
 383 -293 383 -293 318 -312.5 c 128,-1,16
 253 -332 253 -332 154 -332 c 0,17,18
 150 -332 150 -332 143.5 -332 c 128,-1,19
 137 -332 137 -332 133 -331 c 1,20,-1
 133 -238 l 1,21,22
 199 -237 199 -237 240 -226 c 128,-1,23
 281 -215 281 -215 304 -185 c 128,-1,24
 327 -155 327 -155 335.5 -100.5 c 128,-1,25
 344 -46 344 -46 345 43 c 0,26,27
 346 161 346 161 352 245.5 c 128,-1,28
 358 330 358 330 381.5 388.5 c 128,-1,29
 405 447 405 447 452.5 484 c 128,-1,30
 500 521 500 521 584 544 c 1,31,32
 510 564 510 564 463.5 595.5 c 128,-1,33
 417 627 417 627 391 676.5 c 128,-1,34
 365 726 365 726 355.5 796.5 c 128,-1,35
 346 867 346 867 345 963 c 0,36,37
 344 1040 344 1040 342 1097 c 128,-1,38
 340 1154 340 1154 333 1194 c 128,-1,39
 326 1234 326 1234 312.5 1259 c 128,-1,40
 299 1284 299 1284 275.5 1298.5 c 128,-1,41
 252 1313 252 1313 217 1318.5 c 128,-1,42
 182 1324 182 1324 133 1325 c 1,43,-1
 133 1420 l 1,44,45
 137 1421 137 1421 143.5 1421 c 128,-1,46
 150 1421 150 1421 155 1421 c 0,47,48
 243 1421 243 1421 307 1403.5 c 128,-1,49
 371 1386 371 1386 412 1345.5 c 128,-1,50
 453 1305 453 1305 472.5 1238.5 c 128,-1,51
 492 1172 492 1172 492 1073 c 2,52,-1
 492 885 l 2,0,1
EndSplineSet
EndChar

StartChar: asciitilde
Encoding: 126 126 93
Width: 1528
Flags: W
LayerCount: 2
Fore
SplineSet
1375 640 m 1,0,1
 1277 571 1277 571 1196.5 539.5 c 128,-1,2
 1116 508 1116 508 1038 508 c 0,3,4
 993 508 993 508 949 518 c 128,-1,5
 905 528 905 528 854 546 c 0,6,7
 798 565 798 565 748.5 584.5 c 128,-1,8
 699 604 699 604 654 619 c 128,-1,9
 609 634 609 634 569.5 643.5 c 128,-1,10
 530 653 530 653 494 653 c 0,11,12
 456 653 456 653 420 645.5 c 128,-1,13
 384 638 384 638 344 621 c 128,-1,14
 304 604 304 604 258 576.5 c 128,-1,15
 212 549 212 549 155 509 c 1,16,-1
 155 646 l 1,17,18
 252 712 252 712 335.5 744.5 c 128,-1,19
 419 777 419 777 496 777 c 0,20,21
 526 777 526 777 556 772.5 c 128,-1,22
 586 768 586 768 618.5 759.5 c 128,-1,23
 651 751 651 751 688 738 c 128,-1,24
 725 725 725 725 770 708 c 0,25,26
 853 676 853 676 918.5 654.5 c 128,-1,27
 984 633 984 633 1038 633 c 0,28,29
 1074 633 1074 633 1110 640.5 c 128,-1,30
 1146 648 1146 648 1186 664.5 c 128,-1,31
 1226 681 1226 681 1272.5 708 c 128,-1,32
 1319 735 1319 735 1375 774 c 1,33,-1
 1375 640 l 1,0,1
EndSplineSet
EndChar

StartChar: cent
Encoding: 162 162 94
Width: 1122
Flags: W
LayerCount: 2
Fore
SplineSet
514 -27 m 1,0,1
 415 -21 415 -21 335.5 15.5 c 128,-1,2
 256 52 256 52 199.5 113.5 c 128,-1,3
 143 175 143 175 112.5 259 c 128,-1,4
 82 343 82 343 82 445 c 0,5,6
 82 544 82 544 114 629 c 128,-1,7
 146 714 146 714 203.5 777 c 128,-1,8
 261 840 261 840 340 877 c 128,-1,9
 419 914 419 914 514 917 c 1,10,-1
 514 1093 l 1,11,-1
 606 1093 l 1,12,-1
 606 914 l 1,13,14
 670 906 670 906 721 884.5 c 128,-1,15
 772 863 772 863 810 817 c 1,16,-1
 835 895 l 1,17,-1
 932 895 l 1,18,-1
 932 576 l 1,19,-1
 826 576 l 1,20,21
 823 692 823 692 755.5 752 c 128,-1,22
 688 812 688 812 570 812 c 0,23,24
 499 812 499 812 443 787 c 128,-1,25
 387 762 387 762 348 715.5 c 128,-1,26
 309 669 309 669 288.5 602 c 128,-1,27
 268 535 268 535 268 451 c 0,28,29
 268 366 268 366 289.5 298 c 128,-1,30
 311 230 311 230 350.5 182 c 128,-1,31
 390 134 390 134 446 108 c 128,-1,32
 502 82 502 82 571 82 c 0,33,34
 671 82 671 82 739 135 c 128,-1,35
 807 188 807 188 836 286 c 1,36,-1
 962 261 l 1,37,38
 946 198 946 198 914 147 c 128,-1,39
 882 96 882 96 836.5 59.5 c 128,-1,40
 791 23 791 23 733 1.5 c 128,-1,41
 675 -20 675 -20 606 -25 c 1,42,-1
 606 -201 l 1,43,-1
 514 -201 l 1,44,-1
 514 -27 l 1,0,1
EndSplineSet
EndChar

StartChar: sterling
Encoding: 163 163 95
Width: 1135
Flags: W
LayerCount: 2
Fore
SplineSet
1064 306 m 1,0,1
 1063 229 1063 229 1045 169 c 128,-1,2
 1027 109 1027 109 994.5 68 c 128,-1,3
 962 27 962 27 916 5 c 128,-1,4
 870 -17 870 -17 813 -17 c 0,5,6
 742 -17 742 -17 668 21.5 c 128,-1,7
 594 60 594 60 512 143 c 1,8,9
 471 66 471 66 411.5 24.5 c 128,-1,10
 352 -17 352 -17 281 -17 c 0,11,12
 238 -17 238 -17 202.5 -3 c 128,-1,13
 167 11 167 11 141 35.5 c 128,-1,14
 115 60 115 60 100.5 94.5 c 128,-1,15
 86 129 86 129 86 170 c 0,16,17
 86 209 86 209 101 242.5 c 128,-1,18
 116 276 116 276 143.5 300.5 c 128,-1,19
 171 325 171 325 209 339 c 128,-1,20
 247 353 247 353 292 353 c 0,21,22
 333 353 333 353 368.5 341.5 c 128,-1,23
 404 330 404 330 447 302 c 1,24,25
 448 310 448 310 448.5 319 c 128,-1,26
 449 328 449 328 449 338 c 0,27,28
 449 408 449 408 428.5 485 c 128,-1,29
 408 562 408 562 378 628 c 1,30,-1
 107 628 l 1,31,-1
 107 727 l 1,32,-1
 339 727 l 1,33,34
 312 782 312 782 293.5 827.5 c 128,-1,35
 275 873 275 873 263.5 913 c 128,-1,36
 252 953 252 953 247 988 c 128,-1,37
 242 1023 242 1023 242 1057 c 0,38,39
 242 1130 242 1130 268.5 1189.5 c 128,-1,40
 295 1249 295 1249 344 1291 c 128,-1,41
 393 1333 393 1333 462 1355.5 c 128,-1,42
 531 1378 531 1378 616 1378 c 0,43,44
 791 1378 791 1378 886.5 1293 c 128,-1,45
 982 1208 982 1208 986 1049 c 1,46,-1
 855 1043 l 1,47,48
 850 1154 850 1154 788.5 1213.5 c 128,-1,49
 727 1273 727 1273 621 1273 c 0,50,51
 571 1273 571 1273 530 1258 c 128,-1,52
 489 1243 489 1243 459 1216.5 c 128,-1,53
 429 1190 429 1190 412.5 1152.5 c 128,-1,54
 396 1115 396 1115 396 1070 c 0,55,56
 396 1019 396 1019 420 935 c 128,-1,57
 444 851 444 851 497 727 c 1,58,-1
 773 727 l 1,59,-1
 773 628 l 1,60,-1
 531 628 l 1,61,62
 555 565 555 565 565 511 c 128,-1,63
 575 457 575 457 575 406 c 0,64,65
 575 359 575 359 569 320.5 c 128,-1,66
 563 282 563 282 553 241 c 1,67,68
 593 207 593 207 627 180 c 128,-1,69
 661 153 661 153 691 134.5 c 128,-1,70
 721 116 721 116 750 106 c 128,-1,71
 779 96 779 96 809 96 c 0,72,73
 882 96 882 96 917.5 148 c 128,-1,74
 953 200 953 200 958 315 c 1,75,-1
 1064 306 l 1,0,1
427 210 m 1,76,77
 398 239 398 239 362.5 255.5 c 128,-1,78
 327 272 327 272 293 272 c 0,79,80
 246 272 246 272 215.5 243 c 128,-1,81
 185 214 185 214 185 169 c 0,82,83
 185 127 185 127 211.5 101.5 c 128,-1,84
 238 76 238 76 277 76 c 0,85,86
 327 76 327 76 364 107.5 c 128,-1,87
 401 139 401 139 427 210 c 1,76,77
EndSplineSet
EndChar

StartChar: fraction
Encoding: 8260 8260 96
Width: 491
Flags: W
LayerCount: 2
Fore
SplineSet
766 1304 m 1,0,-1
 -166 -14 l 1,1,-1
 -276 -14 l 1,2,-1
 657 1304 l 1,3,-1
 766 1304 l 1,0,-1
EndSplineSet
EndChar

StartChar: yen
Encoding: 165 165 97
Width: 1169
Flags: W
LayerCount: 2
Fore
SplineSet
-6 1290 m 1,0,1
 26 1288 26 1288 59.5 1287.5 c 128,-1,2
 93 1287 93 1287 142 1287 c 0,3,4
 187 1287 187 1287 227 1287.5 c 128,-1,5
 267 1288 267 1288 309 1288.5 c 128,-1,6
 351 1289 351 1289 399 1289.5 c 128,-1,7
 447 1290 447 1290 507 1290 c 1,8,-1
 507 1191 l 1,9,-1
 472 1191 l 2,10,11
 406 1191 406 1191 376.5 1187.5 c 128,-1,12
 347 1184 347 1184 347 1164 c 0,13,14
 347 1150 347 1150 358.5 1129 c 128,-1,15
 370 1108 370 1108 392 1073 c 2,16,-1
 648 661 l 1,17,-1
 902 1063 l 2,18,19
 925 1101 925 1101 938.5 1125 c 128,-1,20
 952 1149 952 1149 952 1163 c 0,21,22
 952 1182 952 1182 924 1186.5 c 128,-1,23
 896 1191 896 1191 830 1191 c 2,24,-1
 796 1191 l 1,25,-1
 796 1290 l 1,26,27
 842 1289 842 1289 878.5 1288.5 c 128,-1,28
 915 1288 915 1288 945.5 1288 c 128,-1,29
 976 1288 976 1288 1003 1288 c 128,-1,30
 1030 1288 1030 1288 1057 1288 c 0,31,32
 1114 1288 1114 1288 1162.5 1288 c 128,-1,33
 1211 1288 1211 1288 1265 1290 c 1,34,-1
 1265 1191 l 1,35,36
 1219 1191 1219 1191 1193 1189.5 c 128,-1,37
 1167 1188 1167 1188 1150.5 1180.5 c 128,-1,38
 1134 1173 1134 1173 1121.5 1157 c 128,-1,39
 1109 1141 1109 1141 1090 1113 c 0,40,41
 1079 1096 1079 1096 1062 1071 c 128,-1,42
 1045 1046 1045 1046 1025.5 1016 c 128,-1,43
 1006 986 1006 986 984.5 954 c 128,-1,44
 963 922 963 922 943 891 c 1,45,-1
 1204 891 l 1,46,-1
 1204 800 l 1,47,-1
 882 800 l 1,48,-1
 805 683 l 1,49,-1
 1204 683 l 1,50,-1
 1204 590 l 1,51,-1
 751 590 l 1,52,53
 743 578 743 578 737.5 568 c 128,-1,54
 732 558 732 558 727 550 c 0,55,56
 722 541 722 541 718 533 c 1,57,-1
 718 159 l 2,58,59
 718 139 718 139 722 127 c 128,-1,60
 726 115 726 115 739.5 109 c 128,-1,61
 753 103 753 103 779 101 c 128,-1,62
 805 99 805 99 849 99 c 2,63,-1
 901 99 l 1,64,-1
 901 0 l 1,65,66
 839 0 839 0 776 0 c 128,-1,67
 713 0 713 0 627 2 c 0,68,69
 586 2 586 2 550.5 1.5 c 128,-1,70
 515 1 515 1 483 1 c 128,-1,71
 451 1 451 1 421.5 0.5 c 128,-1,72
 392 0 392 0 362 0 c 1,73,-1
 362 99 l 1,74,-1
 413 99 l 2,75,76
 460 99 460 99 486 102.5 c 128,-1,77
 512 106 512 106 524.5 113 c 128,-1,78
 537 120 537 120 539.5 131 c 128,-1,79
 542 142 542 142 542 157 c 2,80,-1
 542 535 l 1,81,-1
 510 590 l 1,82,-1
 67 590 l 1,83,-1
 67 683 l 1,84,-1
 456 683 l 1,85,-1
 380 800 l 1,86,-1
 67 800 l 1,87,-1
 67 891 l 1,88,-1
 321 891 l 1,89,-1
 203 1074 l 2,90,91
 176 1116 176 1116 158.5 1140 c 128,-1,92
 141 1164 141 1164 121 1175 c 128,-1,93
 101 1186 101 1186 72.5 1188.5 c 128,-1,94
 44 1191 44 1191 -6 1191 c 1,95,-1
 -6 1290 l 1,0,1
EndSplineSet
EndChar

StartChar: florin
Encoding: 402 402 98
Width: 1136
Flags: W
LayerCount: 2
Fore
SplineSet
1042 1149 m 1,0,-1
 964 1149 l 1,1,2
 964 1185 964 1185 944 1211.5 c 128,-1,3
 924 1238 924 1238 875 1238 c 0,4,5
 842 1238 842 1238 818 1223.5 c 128,-1,6
 794 1209 794 1209 776 1182 c 128,-1,7
 758 1155 758 1155 746 1117.5 c 128,-1,8
 734 1080 734 1080 726 1034 c 2,9,-1
 700 884 l 1,10,-1
 911 884 l 1,11,-1
 897 778 l 1,12,-1
 681 778 l 1,13,14
 649 615 649 615 618.5 454 c 128,-1,15
 588 293 588 293 556 130 c 1,16,17
 532 -1 532 -1 506.5 -101 c 128,-1,18
 481 -201 481 -201 441 -268.5 c 128,-1,19
 401 -336 401 -336 341 -370.5 c 128,-1,20
 281 -405 281 -405 189 -405 c 0,21,22
 145 -405 145 -405 102 -398 c 128,-1,23
 59 -391 59 -391 5 -376 c 1,24,-1
 33 -189 l 1,25,-1
 111 -189 l 1,26,27
 111 -235 111 -235 129.5 -261.5 c 128,-1,28
 148 -288 148 -288 186 -288 c 256,29,30
 224 -288 224 -288 251.5 -271.5 c 128,-1,31
 279 -255 279 -255 300.5 -215 c 128,-1,32
 322 -175 322 -175 339.5 -109.5 c 128,-1,33
 357 -44 357 -44 375 55 c 2,34,-1
 510 778 l 1,35,-1
 333 778 l 1,36,-1
 345 884 l 1,37,-1
 532 884 l 1,38,-1
 551 987 l 2,39,40
 568 1080 568 1080 595 1148 c 128,-1,41
 622 1216 622 1216 662.5 1260.5 c 128,-1,42
 703 1305 703 1305 760 1326 c 128,-1,43
 817 1347 817 1347 894 1347 c 0,44,45
 934 1347 934 1347 979 1339 c 128,-1,46
 1024 1331 1024 1331 1075 1317 c 1,47,-1
 1042 1149 l 1,0,-1
EndSplineSet
EndChar

StartChar: section
Encoding: 167 167 99
Width: 997
Flags: W
LayerCount: 2
Fore
SplineSet
495 1316 m 0,0,1
 566 1316 566 1316 629.5 1298.5 c 128,-1,2
 693 1281 693 1281 741 1242.5 c 128,-1,3
 789 1204 789 1204 817.5 1143.5 c 128,-1,4
 846 1083 846 1083 847 996 c 1,5,-1
 741 996 l 1,6,7
 731 1224 731 1224 495 1224 c 0,8,9
 446 1224 446 1224 405.5 1212 c 128,-1,10
 365 1200 365 1200 335.5 1177.5 c 128,-1,11
 306 1155 306 1155 290 1122.5 c 128,-1,12
 274 1090 274 1090 274 1050 c 0,13,14
 274 1009 274 1009 287 980 c 128,-1,15
 300 951 300 951 330.5 925.5 c 128,-1,16
 361 900 361 900 411 875.5 c 128,-1,17
 461 851 461 851 535 821 c 0,18,19
 624 785 624 785 695.5 749.5 c 128,-1,20
 767 714 767 714 817.5 672 c 128,-1,21
 868 630 868 630 895 577.5 c 128,-1,22
 922 525 922 525 922 455 c 0,23,24
 922 377 922 377 878.5 311.5 c 128,-1,25
 835 246 835 246 752 196 c 1,26,27
 872 112 872 112 872 -31 c 0,28,29
 872 -100 872 -100 846.5 -155 c 128,-1,30
 821 -210 821 -210 773 -248 c 128,-1,31
 725 -286 725 -286 656 -306.5 c 128,-1,32
 587 -327 587 -327 500 -327 c 0,33,34
 395 -327 395 -327 304 -302.5 c 128,-1,35
 213 -278 213 -278 144 -229 c 1,36,-1
 142 -31 l 1,37,-1
 246 -31 l 1,38,39
 247 -130 247 -130 306.5 -182 c 128,-1,40
 366 -234 366 -234 500 -234 c 0,41,42
 552 -234 552 -234 594 -221 c 128,-1,43
 636 -208 636 -208 665 -184 c 128,-1,44
 694 -160 694 -160 710 -127 c 128,-1,45
 726 -94 726 -94 726 -54 c 0,46,47
 726 -15 726 -15 706 18 c 128,-1,48
 686 51 686 51 649.5 79.5 c 128,-1,49
 613 108 613 108 562.5 133.5 c 128,-1,50
 512 159 512 159 451 184 c 0,51,52
 369 217 369 217 300 250.5 c 128,-1,53
 231 284 231 284 181.5 324.5 c 128,-1,54
 132 365 132 365 104 416.5 c 128,-1,55
 76 468 76 468 76 539 c 0,56,57
 76 615 76 615 116 678 c 128,-1,58
 156 741 156 741 245 804 c 1,59,60
 126 885 126 885 126 1031 c 0,61,62
 126 1096 126 1096 152 1148.5 c 128,-1,63
 178 1201 178 1201 226 1238.5 c 128,-1,64
 274 1276 274 1276 342.5 1296 c 128,-1,65
 411 1316 411 1316 495 1316 c 0,0,1
324 757 m 1,66,67
 264 700 264 700 240.5 655 c 128,-1,68
 217 610 217 610 217 568 c 0,69,70
 217 509 217 509 256 465 c 128,-1,71
 295 421 295 421 358.5 384.5 c 128,-1,72
 422 348 422 348 503.5 314.5 c 128,-1,73
 585 281 585 281 670 244 c 1,74,75
 728 288 728 288 755 335 c 128,-1,76
 782 382 782 382 782 434 c 0,77,78
 782 489 782 489 752 528.5 c 128,-1,79
 722 568 722 568 663.5 603 c 128,-1,80
 605 638 605 638 519.5 673.5 c 128,-1,81
 434 709 434 709 324 757 c 1,66,67
EndSplineSet
EndChar

StartChar: currency
Encoding: 164 164 100
Width: 1303
Flags: W
LayerCount: 2
Fore
SplineSet
389 1104 m 1,0,1
 456 1151 456 1151 518 1172.5 c 128,-1,2
 580 1194 580 1194 652 1194 c 256,3,4
 724 1194 724 1194 787 1172.5 c 128,-1,5
 850 1151 850 1151 916 1104 c 1,6,-1
 1085 1270 l 1,7,-1
 1163 1191 l 1,8,-1
 995 1027 l 1,9,10
 1039 972 1039 972 1061.5 907 c 128,-1,11
 1084 842 1084 842 1084 771 c 0,12,13
 1084 743 1084 743 1079 710.5 c 128,-1,14
 1074 678 1074 678 1063.5 644.5 c 128,-1,15
 1053 611 1053 611 1036 578 c 128,-1,16
 1019 545 1019 545 995 515 c 1,17,-1
 1163 352 l 1,18,-1
 1085 273 l 1,19,-1
 917 437 l 1,20,21
 856 393 856 393 790.5 371.5 c 128,-1,22
 725 350 725 350 650 350 c 0,23,24
 576 350 576 350 512.5 371 c 128,-1,25
 449 392 449 392 389 436 c 1,26,-1
 222 273 l 1,27,-1
 142 352 l 1,28,-1
 308 514 l 1,29,30
 262 576 262 576 240.5 638 c 128,-1,31
 219 700 219 700 219 772 c 0,32,33
 219 842 219 842 240.5 903.5 c 128,-1,34
 262 965 262 965 308 1028 c 1,35,-1
 142 1191 l 1,36,-1
 222 1270 l 1,37,-1
 389 1104 l 1,0,1
970 773 m 0,38,39
 970 836 970 836 945 892.5 c 128,-1,40
 920 949 920 949 876.5 991 c 128,-1,41
 833 1033 833 1033 775.5 1057.5 c 128,-1,42
 718 1082 718 1082 652 1082 c 256,43,44
 586 1082 586 1082 528 1057.5 c 128,-1,45
 470 1033 470 1033 427 991 c 128,-1,46
 384 949 384 949 359 892.5 c 128,-1,47
 334 836 334 836 334 773 c 0,48,49
 334 708 334 708 359 651.5 c 128,-1,50
 384 595 384 595 427 552.5 c 128,-1,51
 470 510 470 510 528 485.5 c 128,-1,52
 586 461 586 461 652 461 c 0,53,54
 717 461 717 461 775 485.5 c 128,-1,55
 833 510 833 510 876.5 552.5 c 128,-1,56
 920 595 920 595 945 652 c 128,-1,57
 970 709 970 709 970 773 c 0,38,39
EndSplineSet
EndChar

StartChar: quotesingle
Encoding: 39 39 101
Width: 405
Flags: W
LayerCount: 2
Fore
SplineSet
173 880 m 1,0,1
 166 932 166 932 157 986.5 c 128,-1,2
 148 1041 148 1041 139.5 1095 c 128,-1,3
 131 1149 131 1149 125.5 1201.5 c 128,-1,4
 120 1254 120 1254 120 1303 c 0,5,6
 120 1327 120 1327 127.5 1345.5 c 128,-1,7
 135 1364 135 1364 147.5 1376 c 128,-1,8
 160 1388 160 1388 175.5 1394.5 c 128,-1,9
 191 1401 191 1401 207 1401 c 0,10,11
 237 1401 237 1401 261.5 1378 c 128,-1,12
 286 1355 286 1355 286 1307 c 0,13,14
 286 1212 286 1212 270 1108.5 c 128,-1,15
 254 1005 254 1005 234 880 c 1,16,-1
 173 880 l 1,0,1
EndSplineSet
EndChar

StartChar: guillemotleft
Encoding: 171 171 102
Width: 1003
Flags: W
LayerCount: 2
Fore
SplineSet
516 841 m 1,0,-1
 246 449 l 1,1,-1
 516 59 l 1,2,-1
 349 59 l 1,3,-1
 82 449 l 1,4,-1
 349 841 l 1,5,-1
 516 841 l 1,0,-1
940 841 m 1,6,-1
 669 449 l 1,7,-1
 940 59 l 1,8,-1
 773 59 l 1,9,-1
 516 449 l 1,10,-1
 773 841 l 1,11,-1
 940 841 l 1,6,-1
EndSplineSet
EndChar

StartChar: guilsinglleft
Encoding: 8249 8249 103
Width: 556
Flags: W
LayerCount: 2
Fore
SplineSet
507 841 m 1,0,-1
 229 450 l 1,1,-1
 507 59 l 1,2,-1
 341 59 l 1,3,-1
 65 450 l 1,4,-1
 341 841 l 1,5,-1
 507 841 l 1,0,-1
EndSplineSet
EndChar

StartChar: guilsinglright
Encoding: 8250 8250 104
Width: 556
Flags: W
LayerCount: 2
Fore
SplineSet
222 841 m 1,0,-1
 489 449 l 1,1,-1
 222 59 l 1,2,-1
 55 59 l 1,3,-1
 326 449 l 1,4,-1
 55 841 l 1,5,-1
 222 841 l 1,0,-1
EndSplineSet
EndChar

StartChar: endash
Encoding: 8211 8211 105
Width: 1024
Flags: W
LayerCount: 2
Fore
SplineSet
1030 541 m 1,0,-1
 1030 413 l 1,1,-1
 -6 413 l 1,2,-1
 -6 541 l 1,3,-1
 1030 541 l 1,0,-1
EndSplineSet
EndChar

StartChar: dagger
Encoding: 8224 8224 106
Width: 1027
Flags: W
LayerCount: 2
Fore
SplineSet
444 -304 m 1,0,-1
 436 478 l 1,1,2
 441 552 441 552 451 625 c 128,-1,3
 461 698 461 698 461 776 c 1,4,5
 387 774 387 774 330 770.5 c 128,-1,6
 273 767 273 767 221 756 c 1,7,-1
 75 756 l 1,8,-1
 75 882 l 1,9,-1
 224 882 l 1,10,11
 275 871 275 871 330 867.5 c 128,-1,12
 385 864 385 864 461 863 c 1,13,14
 461 940 461 940 455.5 1000.5 c 128,-1,15
 450 1061 450 1061 436 1115 c 1,16,-1
 436 1290 l 1,17,-1
 591 1290 l 1,18,-1
 591 1115 l 1,19,20
 577 1061 577 1061 572 1001 c 128,-1,21
 567 941 567 941 567 863 c 1,22,23
 643 864 643 864 698 867.5 c 128,-1,24
 753 871 753 871 804 882 c 1,25,-1
 954 882 l 1,26,-1
 954 756 l 1,27,-1
 847 756 l 1,28,29
 813 757 813 757 783.5 760.5 c 128,-1,30
 754 764 754 764 722.5 767 c 128,-1,31
 691 770 691 770 653.5 772.5 c 128,-1,32
 616 775 616 775 567 776 c 1,33,34
 567 698 567 698 577.5 625 c 128,-1,35
 588 552 588 552 592 478 c 1,36,-1
 584 -304 l 1,37,-1
 444 -304 l 1,0,-1
EndSplineSet
EndChar

StartChar: daggerdbl
Encoding: 8225 8225 107
Width: 1041
Flags: W
LayerCount: 2
Fore
SplineSet
467 215 m 1,0,1
 464 299 464 299 457.5 364 c 128,-1,2
 451 429 451 429 434 492 c 1,3,4
 443 529 443 529 448.5 566 c 128,-1,5
 454 603 454 603 457.5 641.5 c 128,-1,6
 461 680 461 680 463 721.5 c 128,-1,7
 465 763 465 763 467 810 c 1,8,9
 398 809 398 809 348 802.5 c 128,-1,10
 298 796 298 796 251 786 c 1,11,-1
 80 786 l 1,12,-1
 80 922 l 1,13,-1
 254 922 l 1,14,15
 299 912 299 912 348.5 906 c 128,-1,16
 398 900 398 900 467 899 c 1,17,18
 467 933 467 933 465 959.5 c 128,-1,19
 463 986 463 986 460 1009 c 128,-1,20
 457 1032 457 1032 452.5 1052.5 c 128,-1,21
 448 1073 448 1073 442 1096 c 1,22,-1
 442 1290 l 1,23,-1
 597 1290 l 1,24,-1
 597 1096 l 1,25,26
 591 1073 591 1073 586.5 1052.5 c 128,-1,27
 582 1032 582 1032 579 1009 c 128,-1,28
 576 986 576 986 574.5 959.5 c 128,-1,29
 573 933 573 933 573 899 c 1,30,31
 642 900 642 900 691.5 906.5 c 128,-1,32
 741 913 741 913 785 922 c 1,33,-1
 960 922 l 1,34,-1
 960 786 l 1,35,-1
 788 786 l 1,36,37
 742 795 742 795 692.5 802 c 128,-1,38
 643 809 643 809 573 810 c 1,39,40
 574 763 574 763 576 721.5 c 128,-1,41
 578 680 578 680 581.5 641.5 c 128,-1,42
 585 603 585 603 590.5 566 c 128,-1,43
 596 529 596 529 605 492 c 1,44,45
 588 429 588 429 582 364 c 128,-1,46
 576 299 576 299 573 215 c 1,47,48
 642 216 642 216 692 223 c 128,-1,49
 742 230 742 230 788 239 c 1,50,-1
 960 239 l 1,51,-1
 960 103 l 1,52,-1
 785 103 l 1,53,54
 741 112 741 112 692 118.5 c 128,-1,55
 643 125 643 125 573 126 c 1,56,57
 573 88 573 88 574.5 56.5 c 128,-1,58
 576 25 576 25 579 -2.5 c 128,-1,59
 582 -30 582 -30 586.5 -55 c 128,-1,60
 591 -80 591 -80 597 -107 c 1,61,-1
 597 -299 l 1,62,-1
 442 -299 l 1,63,-1
 442 -107 l 1,64,65
 448 -80 448 -80 452.5 -55 c 128,-1,66
 457 -30 457 -30 460 -2.5 c 128,-1,67
 463 25 463 25 465 56.5 c 128,-1,68
 467 88 467 88 467 126 c 1,69,70
 432 126 432 126 402.5 124 c 128,-1,71
 373 122 373 122 347.5 119 c 128,-1,72
 322 116 322 116 299 112 c 128,-1,73
 276 108 276 108 254 103 c 1,74,-1
 80 103 l 1,75,-1
 80 239 l 1,76,-1
 251 239 l 1,77,78
 297 229 297 229 348.5 222.5 c 128,-1,79
 400 216 400 216 467 215 c 1,0,1
EndSplineSet
EndChar

StartChar: paragraph
Encoding: 182 182 108
Width: 1214
Flags: W
LayerCount: 2
Fore
SplineSet
985 1284 m 1,0,-1
 985 -213 l 1,1,-1
 860 -213 l 1,2,-1
 860 1284 l 1,3,-1
 642 1284 l 1,4,-1
 642 -213 l 1,5,-1
 516 -213 l 1,6,-1
 516 647 l 1,7,8
 411 649 411 649 331.5 679 c 128,-1,9
 252 709 252 709 198.5 760 c 128,-1,10
 145 811 145 811 117.5 879.5 c 128,-1,11
 90 948 90 948 90 1028 c 0,12,13
 90 1117 90 1117 123 1186.5 c 128,-1,14
 156 1256 156 1256 217 1304 c 128,-1,15
 278 1352 278 1352 362.5 1377 c 128,-1,16
 447 1402 447 1402 551 1402 c 2,17,-1
 1142 1402 l 1,18,-1
 1142 1284 l 1,19,-1
 985 1284 l 1,0,-1
EndSplineSet
EndChar

StartChar: bullet
Encoding: 8226 8226 109
Width: 1125
Flags: W
LayerCount: 2
Fore
SplineSet
282 714 m 256,0,1
 282 770 282 770 304 819.5 c 128,-1,2
 326 869 326 869 364.5 905.5 c 128,-1,3
 403 942 403 942 454 963.5 c 128,-1,4
 505 985 505 985 562 985 c 256,5,6
 619 985 619 985 669.5 963.5 c 128,-1,7
 720 942 720 942 758 905 c 128,-1,8
 796 868 796 868 818 818.5 c 128,-1,9
 840 769 840 769 840 714 c 0,10,11
 840 658 840 658 818 608.5 c 128,-1,12
 796 559 796 559 757.5 522 c 128,-1,13
 719 485 719 485 668.5 463 c 128,-1,14
 618 441 618 441 561 441 c 0,15,16
 503 441 503 441 452.5 462.5 c 128,-1,17
 402 484 402 484 364 521.5 c 128,-1,18
 326 559 326 559 304 608.5 c 128,-1,19
 282 658 282 658 282 714 c 256,0,1
EndSplineSet
EndChar

StartChar: quotesinglbase
Encoding: 8218 8218 110
Width: 560
Flags: W
LayerCount: 2
Fore
SplineSet
421 -139 m 0,0,1
 421 -189 421 -189 407.5 -217.5 c 128,-1,2
 394 -246 394 -246 369 -259.5 c 128,-1,3
 344 -273 344 -273 308 -276.5 c 128,-1,4
 272 -280 272 -280 227 -281 c 1,5,-1
 227 -204 l 1,6,7
 249 -203 249 -203 261.5 -196.5 c 128,-1,8
 274 -190 274 -190 280 -178.5 c 128,-1,9
 286 -167 286 -167 287.5 -152.5 c 128,-1,10
 289 -138 289 -138 289 -121 c 0,11,12
 289 -108 289 -108 288.5 -87 c 128,-1,13
 288 -66 288 -66 287.5 -46.5 c 128,-1,14
 287 -27 287 -27 286.5 -12.5 c 128,-1,15
 286 2 286 2 286 3 c 2,16,-1
 211 0 l 1,17,18
 211 4 211 4 208 29.5 c 128,-1,19
 205 55 205 55 201.5 85 c 128,-1,20
 198 115 198 115 195 140.5 c 128,-1,21
 192 166 192 166 192 170 c 1,22,-1
 378 170 l 1,23,24
 391 95 391 95 406 15 c 128,-1,25
 421 -65 421 -65 421 -139 c 0,0,1
EndSplineSet
EndChar

StartChar: quotedblbase
Encoding: 8222 8222 111
Width: 766
Flags: W
LayerCount: 2
Fore
SplineSet
406 -139 m 0,0,1
 406 -189 406 -189 392.5 -217.5 c 128,-1,2
 379 -246 379 -246 354 -259.5 c 128,-1,3
 329 -273 329 -273 293 -276.5 c 128,-1,4
 257 -280 257 -280 212 -281 c 1,5,-1
 212 -204 l 1,6,7
 234 -203 234 -203 246.5 -196.5 c 128,-1,8
 259 -190 259 -190 265 -178.5 c 128,-1,9
 271 -167 271 -167 272.5 -152.5 c 128,-1,10
 274 -138 274 -138 274 -121 c 0,11,12
 274 -108 274 -108 273.5 -87 c 128,-1,13
 273 -66 273 -66 272.5 -46.5 c 128,-1,14
 272 -27 272 -27 271.5 -12.5 c 128,-1,15
 271 2 271 2 271 3 c 2,16,-1
 196 0 l 1,17,18
 196 4 196 4 193 29.5 c 128,-1,19
 190 55 190 55 186.5 85 c 128,-1,20
 183 115 183 115 180 140.5 c 128,-1,21
 177 166 177 166 177 170 c 1,22,-1
 363 170 l 1,23,24
 376 95 376 95 391 15 c 128,-1,25
 406 -65 406 -65 406 -139 c 0,0,1
700 -139 m 0,26,27
 700 -189 700 -189 686.5 -217.5 c 128,-1,28
 673 -246 673 -246 648 -259.5 c 128,-1,29
 623 -273 623 -273 587 -276.5 c 128,-1,30
 551 -280 551 -280 506 -281 c 1,31,-1
 506 -204 l 1,32,33
 528 -203 528 -203 540.5 -196.5 c 128,-1,34
 553 -190 553 -190 559 -178.5 c 128,-1,35
 565 -167 565 -167 566.5 -152.5 c 128,-1,36
 568 -138 568 -138 568 -121 c 0,37,38
 568 -108 568 -108 567.5 -87 c 128,-1,39
 567 -66 567 -66 566.5 -46.5 c 128,-1,40
 566 -27 566 -27 565.5 -12.5 c 128,-1,41
 565 2 565 2 565 3 c 2,42,-1
 490 0 l 1,43,44
 490 4 490 4 487 29.5 c 128,-1,45
 484 55 484 55 480.5 85 c 128,-1,46
 477 115 477 115 474 140.5 c 128,-1,47
 471 166 471 166 471 170 c 1,48,-1
 657 170 l 1,49,50
 670 95 670 95 685 15 c 128,-1,51
 700 -65 700 -65 700 -139 c 0,26,27
EndSplineSet
EndChar

StartChar: guillemotright
Encoding: 187 187 112
Width: 1003
Flags: W
LayerCount: 2
Fore
SplineSet
249 841 m 1,0,-1
 506 449 l 1,1,-1
 249 59 l 1,2,-1
 82 59 l 1,3,-1
 353 449 l 1,4,-1
 82 841 l 1,5,-1
 249 841 l 1,0,-1
673 841 m 1,6,-1
 940 449 l 1,7,-1
 673 59 l 1,8,-1
 506 59 l 1,9,-1
 776 449 l 1,10,-1
 506 841 l 1,11,-1
 673 841 l 1,6,-1
EndSplineSet
EndChar

StartChar: perthousand
Encoding: 8240 8240 113
Width: 2270
Flags: W
LayerCount: 2
Fore
SplineSet
376 1315 m 0,0,1
 447 1315 447 1315 502.5 1291 c 128,-1,2
 558 1267 558 1267 595.5 1222 c 128,-1,3
 633 1177 633 1177 652.5 1112 c 128,-1,4
 672 1047 672 1047 672 964 c 0,5,6
 672 792 672 792 594.5 701 c 128,-1,7
 517 610 517 610 371 610 c 0,8,9
 226 610 226 610 149 701.5 c 128,-1,10
 72 793 72 793 72 963 c 0,11,12
 72 1131 72 1131 151 1223 c 128,-1,13
 230 1315 230 1315 376 1315 c 0,0,1
1278 1304 m 1,14,-1
 379 -14 l 1,15,-1
 270 -14 l 1,16,-1
 1169 1304 l 1,17,-1
 1278 1304 l 1,14,-1
371 1243 m 0,18,19
 202 1243 202 1243 202 960 c 0,20,21
 202 822 202 822 245 752 c 128,-1,22
 288 682 288 682 373 682 c 256,23,24
 458 682 458 682 501 752 c 128,-1,25
 544 822 544 822 544 961 c 0,26,27
 544 1105 544 1105 502 1174 c 128,-1,28
 460 1243 460 1243 371 1243 c 0,18,19
1177 677 m 0,29,30
 1320 677 1320 677 1396.5 585 c 128,-1,31
 1473 493 1473 493 1473 319 c 0,32,33
 1473 154 1473 154 1394.5 63 c 128,-1,34
 1316 -28 1316 -28 1170 -28 c 0,35,36
 1027 -28 1027 -28 950 63 c 128,-1,37
 873 154 873 154 873 325 c 0,38,39
 873 494 873 494 951.5 585.5 c 128,-1,40
 1030 677 1030 677 1177 677 c 0,29,30
1901 677 m 0,41,42
 1972 677 1972 677 2027 653.5 c 128,-1,43
 2082 630 2082 630 2120 585 c 128,-1,44
 2158 540 2158 540 2178 475 c 128,-1,45
 2198 410 2198 410 2198 327 c 0,46,47
 2198 154 2198 154 2120.5 63 c 128,-1,48
 2043 -28 2043 -28 1897 -28 c 0,49,50
 1752 -28 1752 -28 1675.5 63 c 128,-1,51
 1599 154 1599 154 1599 325 c 0,52,53
 1599 494 1599 494 1677.5 585.5 c 128,-1,54
 1756 677 1756 677 1901 677 c 0,41,42
1171 604 m 0,55,56
 1002 604 1002 604 1002 321 c 0,57,58
 1002 183 1002 183 1045 114 c 128,-1,59
 1088 45 1088 45 1173 45 c 256,60,61
 1258 45 1258 45 1302 114 c 128,-1,62
 1346 183 1346 183 1346 321 c 0,63,64
 1346 466 1346 466 1303 535 c 128,-1,65
 1260 604 1260 604 1171 604 c 0,55,56
1897 604 m 0,66,67
 1813 604 1813 604 1770.5 534 c 128,-1,68
 1728 464 1728 464 1728 328 c 0,69,70
 1728 45 1728 45 1899 45 c 0,71,72
 1984 45 1984 45 2028 114 c 128,-1,73
 2072 183 2072 183 2072 321 c 0,74,75
 2072 466 2072 466 2028.5 535 c 128,-1,76
 1985 604 1985 604 1897 604 c 0,66,67
EndSplineSet
EndChar

StartChar: grave
Encoding: 96 96 114
Width: 853
Flags: W
LayerCount: 2
Fore
SplineSet
582 1029 m 1,0,-1
 499 1029 l 1,1,2
 476 1049 476 1049 445 1073.5 c 128,-1,3
 414 1098 414 1098 380 1124.5 c 128,-1,4
 346 1151 346 1151 312 1178 c 128,-1,5
 278 1205 278 1205 251 1231.5 c 128,-1,6
 224 1258 224 1258 206.5 1281.5 c 128,-1,7
 189 1305 189 1305 187 1324 c 1,8,9
 187 1340 187 1340 209 1351 c 128,-1,10
 231 1362 231 1362 261 1362 c 0,11,12
 288 1362 288 1362 314.5 1353 c 128,-1,13
 341 1344 341 1344 352 1330 c 2,14,-1
 582 1029 l 1,0,-1
EndSplineSet
EndChar

StartChar: acute
Encoding: 180 180 115
Width: 853
Flags: W
LayerCount: 2
Fore
SplineSet
457 1271 m 2,0,1
 469 1287 469 1287 484.5 1302 c 128,-1,2
 500 1317 500 1317 517.5 1328.5 c 128,-1,3
 535 1340 535 1340 553.5 1347 c 128,-1,4
 572 1354 572 1354 590 1354 c 0,5,6
 616 1354 616 1354 634 1344.5 c 128,-1,7
 652 1335 652 1335 652 1319 c 0,8,9
 652 1305 652 1305 637 1291 c 2,10,-1
 354 1029 l 1,11,-1
 270 1029 l 1,12,-1
 457 1271 l 2,0,1
EndSplineSet
EndChar

StartChar: circumflex
Encoding: 710 710 116
Width: 853
Flags: W
LayerCount: 2
Fore
SplineSet
490 1350 m 1,0,-1
 729 1033 l 1,1,-1
 643 1033 l 1,2,-1
 423 1228 l 1,3,-1
 207 1033 l 1,4,-1
 124 1033 l 1,5,-1
 354 1350 l 1,6,-1
 490 1350 l 1,0,-1
EndSplineSet
EndChar

StartChar: tilde
Encoding: 732 732 117
Width: 853
Flags: W
LayerCount: 2
Fore
SplineSet
743 1295 m 1,0,1
 724 1200 724 1200 672.5 1148 c 128,-1,2
 621 1096 621 1096 546 1096 c 0,3,4
 514 1096 514 1096 479 1107.5 c 128,-1,5
 444 1119 444 1119 409 1132.5 c 128,-1,6
 374 1146 374 1146 341 1157.5 c 128,-1,7
 308 1169 308 1169 280 1169 c 0,8,9
 241 1169 241 1169 216 1147.5 c 128,-1,10
 191 1126 191 1126 175 1079 c 1,11,-1
 109 1079 l 1,12,13
 156 1281 156 1281 301 1281 c 0,14,15
 334 1281 334 1281 369 1269.5 c 128,-1,16
 404 1258 404 1258 439 1244 c 128,-1,17
 474 1230 474 1230 507.5 1218.5 c 128,-1,18
 541 1207 541 1207 573 1207 c 0,19,20
 646 1207 646 1207 678 1295 c 1,21,-1
 743 1295 l 1,0,1
EndSplineSet
EndChar

StartChar: macron
Encoding: 175 175 118
Width: 682
Flags: W
LayerCount: 2
Fore
SplineSet
-11 1274 m 1,0,-1
 694 1274 l 1,1,-1
 694 1199 l 1,2,-1
 -11 1199 l 1,3,-1
 -11 1274 l 1,0,-1
EndSplineSet
EndChar

StartChar: breve
Encoding: 728 728 119
Width: 853
Flags: W
LayerCount: 2
Fore
SplineSet
201 1316 m 1,0,1
 226 1245 226 1245 281.5 1211.5 c 128,-1,2
 337 1178 337 1178 428 1178 c 0,3,4
 517 1178 517 1178 571 1211.5 c 128,-1,5
 625 1245 625 1245 651 1316 c 1,6,-1
 731 1316 l 1,7,8
 705 1195 705 1195 624.5 1127.5 c 128,-1,9
 544 1060 544 1060 426 1060 c 0,10,11
 368 1060 368 1060 318 1077.5 c 128,-1,12
 268 1095 268 1095 228.5 1128 c 128,-1,13
 189 1161 189 1161 161.5 1208.5 c 128,-1,14
 134 1256 134 1256 121 1316 c 1,15,-1
 201 1316 l 1,0,1
EndSplineSet
EndChar

StartChar: dotaccent
Encoding: 729 729 120
Width: 853
Flags: W
LayerCount: 2
Fore
SplineSet
427 1278 m 0,0,1
 472 1278 472 1278 497.5 1253 c 128,-1,2
 523 1228 523 1228 523 1185 c 0,3,4
 523 1143 523 1143 497 1117.5 c 128,-1,5
 471 1092 471 1092 428 1092 c 0,6,7
 383 1092 383 1092 357 1118 c 128,-1,8
 331 1144 331 1144 331 1186 c 256,9,10
 331 1228 331 1228 357 1253 c 128,-1,11
 383 1278 383 1278 427 1278 c 0,0,1
EndSplineSet
EndChar

StartChar: dieresis
Encoding: 168 168 121
Width: 853
Flags: W
LayerCount: 2
Fore
SplineSet
613 1274 m 256,0,1
 655 1274 655 1274 680 1250 c 128,-1,2
 705 1226 705 1226 705 1185 c 0,3,4
 705 1145 705 1145 680 1120.5 c 128,-1,5
 655 1096 655 1096 612 1096 c 0,6,7
 570 1096 570 1096 545.5 1121 c 128,-1,8
 521 1146 521 1146 521 1186 c 256,9,10
 521 1226 521 1226 546 1250 c 128,-1,11
 571 1274 571 1274 613 1274 c 256,0,1
240 1274 m 256,12,13
 282 1274 282 1274 306.5 1250.5 c 128,-1,14
 331 1227 331 1227 331 1185 c 0,15,16
 331 1145 331 1145 306.5 1120.5 c 128,-1,17
 282 1096 282 1096 239 1096 c 0,18,19
 197 1096 197 1096 172.5 1121 c 128,-1,20
 148 1146 148 1146 148 1186 c 256,21,22
 148 1226 148 1226 173 1250 c 128,-1,23
 198 1274 198 1274 240 1274 c 256,12,13
EndSplineSet
EndChar

StartChar: ring
Encoding: 730 730 122
Width: 853
Flags: W
LayerCount: 2
Fore
SplineSet
426 1428 m 0,0,1
 472 1428 472 1428 512 1411.5 c 128,-1,2
 552 1395 552 1395 581.5 1366.5 c 128,-1,3
 611 1338 611 1338 628 1299 c 128,-1,4
 645 1260 645 1260 645 1216 c 0,5,6
 645 1171 645 1171 628 1131.5 c 128,-1,7
 611 1092 611 1092 581 1063 c 128,-1,8
 551 1034 551 1034 511 1017.5 c 128,-1,9
 471 1001 471 1001 426 1001 c 0,10,11
 380 1001 380 1001 340.5 1017.5 c 128,-1,12
 301 1034 301 1034 271.5 1063 c 128,-1,13
 242 1092 242 1092 225 1131.5 c 128,-1,14
 208 1171 208 1171 208 1216 c 256,15,16
 208 1261 208 1261 225 1299.5 c 128,-1,17
 242 1338 242 1338 271.5 1366.5 c 128,-1,18
 301 1395 301 1395 341 1411.5 c 128,-1,19
 381 1428 381 1428 426 1428 c 0,0,1
426 1345 m 256,20,21
 398 1345 398 1345 373.5 1335 c 128,-1,22
 349 1325 349 1325 331 1307.5 c 128,-1,23
 313 1290 313 1290 303 1266.5 c 128,-1,24
 293 1243 293 1243 293 1216 c 0,25,26
 293 1188 293 1188 303 1164 c 128,-1,27
 313 1140 313 1140 331 1122 c 128,-1,28
 349 1104 349 1104 373 1094 c 128,-1,29
 397 1084 397 1084 426 1084 c 0,30,31
 454 1084 454 1084 478.5 1094 c 128,-1,32
 503 1104 503 1104 521 1122 c 128,-1,33
 539 1140 539 1140 549.5 1164 c 128,-1,34
 560 1188 560 1188 560 1216 c 0,35,36
 560 1243 560 1243 549.5 1266.5 c 128,-1,37
 539 1290 539 1290 521 1307.5 c 128,-1,38
 503 1325 503 1325 478.5 1335 c 128,-1,39
 454 1345 454 1345 426 1345 c 256,20,21
EndSplineSet
EndChar

StartChar: cedilla
Encoding: 184 184 123
Width: 853
Flags: W
LayerCount: 2
Fore
SplineSet
451 -6 m 1,0,-1
 445 -96 l 2,1,2
 446 -96 446 -96 453.5 -95.5 c 128,-1,3
 461 -95 461 -95 466 -95 c 0,4,5
 507 -95 507 -95 540 -107 c 128,-1,6
 573 -119 573 -119 596 -140 c 128,-1,7
 619 -161 619 -161 631.5 -190.5 c 128,-1,8
 644 -220 644 -220 644 -255 c 0,9,10
 644 -297 644 -297 626.5 -329 c 128,-1,11
 609 -361 609 -361 576.5 -382 c 128,-1,12
 544 -403 544 -403 498.5 -413.5 c 128,-1,13
 453 -424 453 -424 396 -424 c 0,14,15
 355 -424 355 -424 311.5 -417.5 c 128,-1,16
 268 -411 268 -411 211 -391 c 1,17,-1
 230 -320 l 1,18,19
 272 -336 272 -336 309 -343 c 128,-1,20
 346 -350 346 -350 378 -350 c 0,21,22
 444 -350 444 -350 479 -327 c 128,-1,23
 514 -304 514 -304 514 -256 c 0,24,25
 514 -214 514 -214 481.5 -195 c 128,-1,26
 449 -176 449 -176 388 -174 c 0,27,28
 383 -174 383 -174 378.5 -174 c 128,-1,29
 374 -174 374 -174 369 -175 c 1,30,-1
 383 -6 l 1,31,-1
 451 -6 l 1,0,-1
EndSplineSet
EndChar

StartChar: hungarumlaut
Encoding: 733 733 124
Width: 853
Flags: W
LayerCount: 2
Fore
SplineSet
637 1327 m 2,0,1
 657 1362 657 1362 687 1377 c 128,-1,2
 717 1392 717 1392 745 1392 c 0,3,4
 766 1392 766 1392 784.5 1381 c 128,-1,5
 803 1370 803 1370 803 1350 c 0,6,7
 803 1334 803 1334 789.5 1314.5 c 128,-1,8
 776 1295 776 1295 757 1276 c 1,9,-1
 549 1029 l 1,10,-1
 470 1029 l 1,11,-1
 637 1327 l 2,0,1
386 1334 m 1,12,13
 409 1366 409 1366 437 1379 c 128,-1,14
 465 1392 465 1392 491 1392 c 0,15,16
 512 1392 512 1392 530.5 1381 c 128,-1,17
 549 1370 549 1370 549 1350 c 0,18,19
 549 1333 549 1333 536 1314.5 c 128,-1,20
 523 1296 523 1296 504 1277 c 1,21,-1
 291 1029 l 1,22,-1
 213 1029 l 1,23,-1
 386 1334 l 1,12,13
EndSplineSet
EndChar

StartChar: ogonek
Encoding: 731 731 125
Width: 853
Flags: W
LayerCount: 2
Fore
SplineSet
480 17 m 1,0,1
 417 -40 417 -40 387 -88.5 c 128,-1,2
 357 -137 357 -137 357 -184 c 0,3,4
 357 -239 357 -239 386.5 -270.5 c 128,-1,5
 416 -302 416 -302 469 -302 c 0,6,7
 534 -302 534 -302 602 -251 c 1,8,-1
 615 -304 l 1,9,10
 573 -351 573 -351 529 -373 c 128,-1,11
 485 -395 485 -395 428 -395 c 0,12,13
 384 -395 384 -395 349 -382.5 c 128,-1,14
 314 -370 314 -370 290 -347.5 c 128,-1,15
 266 -325 266 -325 253 -293.5 c 128,-1,16
 240 -262 240 -262 240 -225 c 0,17,18
 240 -162 240 -162 281.5 -104.5 c 128,-1,19
 323 -47 323 -47 406 17 c 1,20,-1
 480 17 l 1,0,1
EndSplineSet
EndChar

StartChar: caron
Encoding: 711 711 126
Width: 853
Flags: W
LayerCount: 2
Fore
SplineSet
207 1351 m 1,0,-1
 423 1153 l 1,1,-1
 644 1351 l 1,2,-1
 729 1351 l 1,3,-1
 490 1034 l 1,4,-1
 354 1034 l 1,5,-1
 124 1351 l 1,6,-1
 207 1351 l 1,0,-1
EndSplineSet
EndChar

StartChar: emdash
Encoding: 8212 8212 127
Width: 2048
Flags: W
LayerCount: 2
Fore
SplineSet
2054 541 m 1,0,-1
 2054 413 l 1,1,-1
 -6 413 l 1,2,-1
 -6 541 l 1,3,-1
 2054 541 l 1,0,-1
EndSplineSet
EndChar

StartChar: AE
Encoding: 198 198 128
Width: 1897
Flags: W
LayerCount: 2
Fore
SplineSet
623 1070 m 1,0,-1
 761 1290 l 1,1,-1
 1804 1290 l 1,2,-1
 1804 962 l 1,3,-1
 1690 962 l 1,4,-1
 1690 1011 l 2,5,6
 1690 1074 1690 1074 1686 1108.5 c 128,-1,7
 1682 1143 1682 1143 1674 1159 c 128,-1,8
 1666 1175 1666 1175 1652 1177.5 c 128,-1,9
 1638 1180 1638 1180 1619 1180 c 2,10,-1
 1085 1180 l 1,11,-1
 1085 713 l 1,12,-1
 1433 713 l 2,13,14
 1442 713 1442 713 1450 714.5 c 128,-1,15
 1458 716 1458 716 1464.5 723.5 c 128,-1,16
 1471 731 1471 731 1474.5 748 c 128,-1,17
 1478 765 1478 765 1478 797 c 1,18,-1
 1558 797 l 1,19,-1
 1558 526 l 1,20,-1
 1478 526 l 1,21,22
 1478 558 1478 558 1474 575 c 128,-1,23
 1470 592 1470 592 1463.5 600 c 128,-1,24
 1457 608 1457 608 1447.5 609.5 c 128,-1,25
 1438 611 1438 611 1428 611 c 2,26,-1
 1085 611 l 1,27,-1
 1085 114 l 1,28,-1
 1641 114 l 2,29,30
 1660 114 1660 114 1670.5 120 c 128,-1,31
 1681 126 1681 126 1686.5 149.5 c 128,-1,32
 1692 173 1692 173 1693.5 219.5 c 128,-1,33
 1695 266 1695 266 1695 348 c 1,34,-1
 1807 348 l 1,35,-1
 1807 0 l 1,36,-1
 699 0 l 1,37,-1
 699 99 l 1,38,-1
 763 99 l 2,39,40
 815 99 815 99 843.5 103.5 c 128,-1,41
 872 108 872 108 885 115.5 c 128,-1,42
 898 123 898 123 900.5 133 c 128,-1,43
 903 143 903 143 903 154 c 2,44,-1
 903 537 l 1,45,-1
 451 537 l 1,46,-1
 269 221 l 2,47,48
 252 191 252 191 240.5 170 c 128,-1,49
 229 149 229 149 229 134 c 0,50,51
 229 115 229 115 249 107 c 128,-1,52
 269 99 269 99 321 99 c 2,53,-1
 378 99 l 1,54,-1
 378 0 l 1,55,56
 343 1 343 1 315.5 1.5 c 128,-1,57
 288 2 288 2 263.5 2 c 128,-1,58
 239 2 239 2 217 2 c 128,-1,59
 195 2 195 2 171 2 c 0,60,61
 142 2 142 2 114.5 2 c 128,-1,62
 87 2 87 2 57.5 2 c 128,-1,63
 28 2 28 2 -5 1.5 c 128,-1,64
 -38 1 -38 1 -78 0 c 1,65,-1
 -78 99 l 1,66,67
 -35 99 -35 99 -10 102.5 c 128,-1,68
 15 106 15 106 34.5 120.5 c 128,-1,69
 54 135 54 135 73 164 c 128,-1,70
 92 193 92 193 123 244 c 2,71,-1
 623 1070 l 1,0,-1
511 642 m 1,72,-1
 902 642 l 1,73,-1
 902 1183 l 1,74,-1
 835 1183 l 1,75,-1
 511 642 l 1,72,-1
EndSplineSet
EndChar

StartChar: Oslash
Encoding: 216 216 129
Width: 1528
Flags: W
LayerCount: 2
Fore
SplineSet
1375 1318 m 1,0,-1
 1232 1141 l 1,1,2
 1425 968 1425 968 1425 646 c 0,3,4
 1425 504 1425 504 1382.5 381.5 c 128,-1,5
 1340 259 1340 259 1256.5 169 c 128,-1,6
 1173 79 1173 79 1049.5 27.5 c 128,-1,7
 926 -24 926 -24 765 -24 c 0,8,9
 700 -24 700 -24 645.5 -17.5 c 128,-1,10
 591 -11 591 -11 543.5 3 c 128,-1,11
 496 17 496 17 453 38 c 128,-1,12
 410 59 410 59 370 89 c 1,13,-1
 241 -72 l 1,14,-1
 146 -45 l 1,15,-1
 297 146 l 1,16,17
 199 242 199 242 152 363.5 c 128,-1,18
 105 485 105 485 105 643 c 0,19,20
 105 786 105 786 148 909 c 128,-1,21
 191 1032 191 1032 275 1122 c 128,-1,22
 359 1212 359 1212 482 1263.5 c 128,-1,23
 605 1315 605 1315 765 1315 c 0,24,25
 825 1315 825 1315 877.5 1308.5 c 128,-1,26
 930 1302 930 1302 978 1287.5 c 128,-1,27
 1026 1273 1026 1273 1071.5 1250.5 c 128,-1,28
 1117 1228 1117 1228 1162 1197 c 1,29,-1
 1280 1345 l 1,30,-1
 1375 1318 l 1,0,-1
1072 1091 m 1,31,32
 1038 1122 1038 1122 1003.5 1143.5 c 128,-1,33
 969 1165 969 1165 932 1178.5 c 128,-1,34
 895 1192 895 1192 854.5 1198 c 128,-1,35
 814 1204 814 1204 767 1204 c 0,36,37
 657 1204 657 1204 570 1165.5 c 128,-1,38
 483 1127 483 1127 422 1054.5 c 128,-1,39
 361 982 361 982 329 878 c 128,-1,40
 297 774 297 774 297 643 c 0,41,42
 297 588 297 588 303 540 c 128,-1,43
 309 492 309 492 322 447.5 c 128,-1,44
 335 403 335 403 356 362.5 c 128,-1,45
 377 322 377 322 407 282 c 1,46,-1
 1072 1091 l 1,31,32
462 201 m 1,47,48
 579 90 579 90 763 90 c 0,49,50
 886 90 886 90 974.5 135.5 c 128,-1,51
 1063 181 1063 181 1120 257.5 c 128,-1,52
 1177 334 1177 334 1204.5 435.5 c 128,-1,53
 1232 537 1232 537 1232 650 c 0,54,55
 1232 762 1232 762 1205.5 851.5 c 128,-1,56
 1179 941 1179 941 1128 1010 c 1,57,-1
 462 201 l 1,47,48
EndSplineSet
EndChar

StartChar: OE
Encoding: 338 338 130
Width: 2035
Flags: W
LayerCount: 2
Fore
SplineSet
1925 1290 m 1,0,-1
 1925 964 l 1,1,-1
 1813 964 l 1,2,3
 1813 1044 1813 1044 1812 1087.5 c 128,-1,4
 1811 1131 1811 1131 1806 1151.5 c 128,-1,5
 1801 1172 1801 1172 1790.5 1176 c 128,-1,6
 1780 1180 1780 1180 1761 1180 c 2,7,-1
 1210 1180 l 1,8,-1
 1210 715 l 1,9,-1
 1562 715 l 2,10,11
 1572 715 1572 715 1581 716.5 c 128,-1,12
 1590 718 1590 718 1597 727.5 c 128,-1,13
 1604 737 1604 737 1608 757.5 c 128,-1,14
 1612 778 1612 778 1612 816 c 1,15,-1
 1680 816 l 1,16,-1
 1680 493 l 1,17,-1
 1612 493 l 1,18,19
 1612 538 1612 538 1608 562 c 128,-1,20
 1604 586 1604 586 1597.5 597.5 c 128,-1,21
 1591 609 1591 609 1582 610.5 c 128,-1,22
 1573 612 1573 612 1563 612 c 2,23,-1
 1210 612 l 1,24,-1
 1210 114 l 1,25,-1
 1755 114 l 2,26,27
 1778 114 1778 114 1790.5 119.5 c 128,-1,28
 1803 125 1803 125 1809 148 c 128,-1,29
 1815 171 1815 171 1816.5 217.5 c 128,-1,30
 1818 264 1818 264 1818 347 c 1,31,-1
 1929 347 l 1,32,-1
 1929 0 l 1,33,-1
 903 0 l 2,34,35
 790 0 790 0 687 14 c 128,-1,36
 584 28 584 28 495 59.5 c 128,-1,37
 406 91 406 91 333.5 141 c 128,-1,38
 261 191 261 191 210 263 c 128,-1,39
 159 335 159 335 131 430 c 128,-1,40
 103 525 103 525 103 647 c 0,41,42
 103 804 103 804 150 924 c 128,-1,43
 197 1044 197 1044 288 1125.5 c 128,-1,44
 379 1207 379 1207 513 1248.5 c 128,-1,45
 647 1290 647 1290 821 1290 c 2,46,-1
 1925 1290 l 1,0,-1
851 1180 m 2,47,48
 695 1180 695 1180 588.5 1141 c 128,-1,49
 482 1102 482 1102 416.5 1031 c 128,-1,50
 351 960 351 960 322.5 861.5 c 128,-1,51
 294 763 294 763 294 645 c 0,52,53
 294 490 294 490 339 387.5 c 128,-1,54
 384 285 384 285 465 224 c 128,-1,55
 546 163 546 163 658.5 137.5 c 128,-1,56
 771 112 771 112 905 112 c 2,57,-1
 1028 112 l 1,58,-1
 1028 1180 l 1,59,-1
 851 1180 l 2,47,48
EndSplineSet
EndChar

StartChar: ordmasculine
Encoding: 186 186 131
Width: 771
Flags: W
LayerCount: 2
Fore
SplineSet
384 1311 m 256,0,1
 459 1311 459 1311 520.5 1289 c 128,-1,2
 582 1267 582 1267 626 1226.5 c 128,-1,3
 670 1186 670 1186 694 1129.5 c 128,-1,4
 718 1073 718 1073 718 1003 c 256,5,6
 718 933 718 933 694 876 c 128,-1,7
 670 819 670 819 626.5 778.5 c 128,-1,8
 583 738 583 738 522 716 c 128,-1,9
 461 694 461 694 386 694 c 256,10,11
 311 694 311 694 249.5 716 c 128,-1,12
 188 738 188 738 144.5 778.5 c 128,-1,13
 101 819 101 819 77 876 c 128,-1,14
 53 933 53 933 53 1003 c 256,15,16
 53 1073 53 1073 76.5 1129.5 c 128,-1,17
 100 1186 100 1186 143.5 1226.5 c 128,-1,18
 187 1267 187 1267 248 1289 c 128,-1,19
 309 1311 309 1311 384 1311 c 256,0,1
386 1243 m 0,20,21
 288 1243 288 1243 232 1179 c 128,-1,22
 176 1115 176 1115 176 1003 c 0,23,24
 176 947 176 947 190.5 903 c 128,-1,25
 205 859 205 859 232.5 827.5 c 128,-1,26
 260 796 260 796 299 779.5 c 128,-1,27
 338 763 338 763 386 763 c 256,28,29
 434 763 434 763 472.5 780 c 128,-1,30
 511 797 511 797 538 828 c 128,-1,31
 565 859 565 859 579.5 903.5 c 128,-1,32
 594 948 594 948 594 1004 c 0,33,34
 594 1115 594 1115 538.5 1179 c 128,-1,35
 483 1243 483 1243 386 1243 c 0,20,21
EndSplineSet
EndChar

StartChar: ae
Encoding: 230 230 132
Width: 1721
Flags: W
LayerCount: 2
Fore
SplineSet
814 171 m 1,0,1
 772 117 772 117 726 80.5 c 128,-1,2
 680 44 680 44 629 21 c 128,-1,3
 578 -2 578 -2 521.5 -12 c 128,-1,4
 465 -22 465 -22 402 -22 c 0,5,6
 331 -22 331 -22 273 -2 c 128,-1,7
 215 18 215 18 173 54 c 128,-1,8
 131 90 131 90 108 140 c 128,-1,9
 85 190 85 190 85 251 c 0,10,11
 85 315 85 315 111.5 367 c 128,-1,12
 138 419 138 419 187.5 456 c 128,-1,13
 237 493 237 493 309 513.5 c 128,-1,14
 381 534 381 534 472 534 c 0,15,16
 595 534 595 534 729 499 c 1,17,-1
 729 645 l 2,18,19
 729 739 729 739 670 787.5 c 128,-1,20
 611 836 611 836 484 836 c 0,21,22
 377 836 377 836 317.5 795.5 c 128,-1,23
 258 755 258 755 240 669 c 1,24,-1
 141 680 l 1,25,-1
 156 856 l 1,26,27
 307 922 307 922 503 922 c 0,28,29
 640 922 640 922 725.5 884 c 128,-1,30
 811 846 811 846 850 768 c 1,31,32
 910 840 910 840 998 881 c 128,-1,33
 1086 922 1086 922 1195 922 c 0,34,35
 1301 922 1301 922 1384.5 889 c 128,-1,36
 1468 856 1468 856 1525 793.5 c 128,-1,37
 1582 731 1582 731 1612.5 640.5 c 128,-1,38
 1643 550 1643 550 1644 435 c 1,39,-1
 1582 416 l 1,40,-1
 901 416 l 1,41,42
 902 336 902 336 925.5 272 c 128,-1,43
 949 208 949 208 991.5 162.5 c 128,-1,44
 1034 117 1034 117 1094 92.5 c 128,-1,45
 1154 68 1154 68 1228 68 c 0,46,47
 1326 68 1326 68 1398 115 c 128,-1,48
 1470 162 1470 162 1511 253 c 1,49,-1
 1633 234 l 1,50,51
 1588 107 1588 107 1477.5 39.5 c 128,-1,52
 1367 -28 1367 -28 1205 -28 c 0,53,54
 1073 -28 1073 -28 973.5 23.5 c 128,-1,55
 874 75 874 75 814 171 c 1,0,1
729 415 m 1,56,57
 669 431 669 431 614 440 c 128,-1,58
 559 449 559 449 508 449 c 0,59,60
 449 449 449 449 401.5 436 c 128,-1,61
 354 423 354 423 320.5 398 c 128,-1,62
 287 373 287 373 269 336.5 c 128,-1,63
 251 300 251 300 251 254 c 0,64,65
 251 213 251 213 265.5 179.5 c 128,-1,66
 280 146 280 146 306.5 122 c 128,-1,67
 333 98 333 98 370 84.5 c 128,-1,68
 407 71 407 71 451 71 c 0,69,70
 500 71 500 71 549.5 86.5 c 128,-1,71
 599 102 599 102 639 133 c 128,-1,72
 679 164 679 164 704 211 c 128,-1,73
 729 258 729 258 729 321 c 2,74,-1
 729 415 l 1,56,57
1481 506 m 1,75,76
 1468 660 1468 660 1396.5 743 c 128,-1,77
 1325 826 1325 826 1196 826 c 0,78,79
 1071 826 1071 826 994.5 743 c 128,-1,80
 918 660 918 660 901 506 c 1,81,-1
 1481 506 l 1,75,76
EndSplineSet
EndChar

StartChar: dotlessi
Encoding: 305 305 133
Width: 559
Flags: W
LayerCount: 2
Fore
SplineSet
373 152 m 2,0,1
 373 130 373 130 381 117.5 c 128,-1,2
 389 105 389 105 407 99 c 128,-1,3
 425 93 425 93 453.5 92 c 128,-1,4
 482 91 482 91 523 91 c 1,5,-1
 523 0 l 1,6,7
 497 0 497 0 453 0.5 c 128,-1,8
 409 1 409 1 365 1 c 128,-1,9
 321 1 321 1 287 1.5 c 128,-1,10
 253 2 253 2 247 2 c 0,11,12
 190 2 190 2 146.5 1 c 128,-1,13
 103 0 103 0 57 0 c 1,14,-1
 57 91 l 1,15,16
 111 91 111 91 141 94 c 128,-1,17
 171 97 171 97 185.5 104 c 128,-1,18
 200 111 200 111 202.5 123.5 c 128,-1,19
 205 136 205 136 205 156 c 2,20,-1
 205 769 l 2,21,22
 205 783 205 783 197.5 790 c 128,-1,23
 190 797 190 797 173 800.5 c 128,-1,24
 156 804 156 804 128.5 804.5 c 128,-1,25
 101 805 101 805 62 806 c 1,26,-1
 62 895 l 1,27,28
 147 895 147 895 222 896 c 128,-1,29
 297 897 297 897 373 900 c 1,30,-1
 373 152 l 2,0,1
EndSplineSet
EndChar

StartChar: oslash
Encoding: 248 248 134
Width: 1115
Flags: W
LayerCount: 2
Fore
SplineSet
1043 972 m 1,0,-1
 899 795 l 1,1,2
 1036 666 1036 666 1036 446 c 0,3,4
 1036 340 1036 340 1002 253 c 128,-1,5
 968 166 968 166 905.5 103.5 c 128,-1,6
 843 41 843 41 755.5 6.5 c 128,-1,7
 668 -28 668 -28 562 -28 c 0,8,9
 484 -28 484 -28 412.5 -8.5 c 128,-1,10
 341 11 341 11 281 49 c 1,11,-1
 153 -110 l 1,12,-1
 68 -84 l 1,13,-1
 216 99 l 1,14,15
 150 164 150 164 116 252.5 c 128,-1,16
 82 341 82 341 82 449 c 0,17,18
 82 554 82 554 116 641.5 c 128,-1,19
 150 729 150 729 212.5 791 c 128,-1,20
 275 853 275 853 362 887.5 c 128,-1,21
 449 922 449 922 555 922 c 0,22,23
 636 922 636 922 705 902 c 128,-1,24
 774 882 774 882 834 844 c 1,25,-1
 960 996 l 1,26,-1
 1043 972 l 1,0,-1
753 750 m 1,27,28
 715 786 715 786 665 804.5 c 128,-1,29
 615 823 615 823 559 823 c 0,30,31
 489 823 489 823 432.5 797 c 128,-1,32
 376 771 376 771 336 723 c 128,-1,33
 296 675 296 675 274.5 607 c 128,-1,34
 253 539 253 539 253 456 c 0,35,36
 253 317 253 317 313 214 c 1,37,-1
 753 750 l 1,27,28
363 143 m 1,38,39
 405 108 405 108 454 90.5 c 128,-1,40
 503 73 503 73 559 73 c 0,41,42
 628 73 628 73 684.5 99.5 c 128,-1,43
 741 126 741 126 781 174.5 c 128,-1,44
 821 223 821 223 843 291.5 c 128,-1,45
 865 360 865 360 865 444 c 0,46,47
 865 516 865 516 849 576.5 c 128,-1,48
 833 637 833 637 804 682 c 1,49,-1
 363 143 l 1,38,39
EndSplineSet
EndChar

StartChar: oe
Encoding: 339 339 135
Width: 1833
Flags: W
LayerCount: 2
Fore
SplineSet
923 165 m 1,0,1
 872 74 872 74 772 23 c 128,-1,2
 672 -28 672 -28 543 -28 c 0,3,4
 432 -28 432 -28 345.5 6.5 c 128,-1,5
 259 41 259 41 200 103.5 c 128,-1,6
 141 166 141 166 110.5 253.5 c 128,-1,7
 80 341 80 341 80 448 c 0,8,9
 80 559 80 559 112.5 646.5 c 128,-1,10
 145 734 145 734 205.5 795.5 c 128,-1,11
 266 857 266 857 351.5 889.5 c 128,-1,12
 437 922 437 922 543 922 c 0,13,14
 674 922 674 922 773.5 869 c 128,-1,15
 873 816 873 816 927 719 c 1,16,17
 987 817 987 817 1086 869.5 c 128,-1,18
 1185 922 1185 922 1310 922 c 0,19,20
 1406 922 1406 922 1488 891.5 c 128,-1,21
 1570 861 1570 861 1630.5 799 c 128,-1,22
 1691 737 1691 737 1725 642 c 128,-1,23
 1759 547 1759 547 1759 417 c 1,24,-1
 1009 417 l 1,25,26
 1009 334 1009 334 1032 269.5 c 128,-1,27
 1055 205 1055 205 1097 161 c 128,-1,28
 1139 117 1139 117 1199 93.5 c 128,-1,29
 1259 70 1259 70 1333 70 c 0,30,31
 1548 70 1548 70 1625 253 c 1,32,-1
 1748 234 l 1,33,34
 1701 106 1701 106 1593.5 39 c 128,-1,35
 1486 -28 1486 -28 1318 -28 c 0,36,37
 1182 -28 1182 -28 1084 19 c 128,-1,38
 986 66 986 66 923 165 c 1,0,1
252 454 m 0,39,40
 252 273 252 273 328 174.5 c 128,-1,41
 404 76 404 76 544 76 c 0,42,43
 606 76 606 76 659.5 97 c 128,-1,44
 713 118 713 118 753 162.5 c 128,-1,45
 793 207 793 207 815.5 276.5 c 128,-1,46
 838 346 838 346 838 444 c 0,47,48
 838 532 838 532 818.5 601.5 c 128,-1,49
 799 671 799 671 761.5 719 c 128,-1,50
 724 767 724 767 669.5 792.5 c 128,-1,51
 615 818 615 818 546 818 c 0,52,53
 481 818 481 818 427 795 c 128,-1,54
 373 772 373 772 334 726 c 128,-1,55
 295 680 295 680 273.5 612 c 128,-1,56
 252 544 252 544 252 454 c 0,39,40
1597 507 m 1,57,58
 1594 580 1594 580 1572.5 639.5 c 128,-1,59
 1551 699 1551 699 1514.5 740.5 c 128,-1,60
 1478 782 1478 782 1426 804.5 c 128,-1,61
 1374 827 1374 827 1309 827 c 0,62,63
 1246 827 1246 827 1192.5 804.5 c 128,-1,64
 1139 782 1139 782 1099.5 740 c 128,-1,65
 1060 698 1060 698 1036 639 c 128,-1,66
 1012 580 1012 580 1008 507 c 1,67,-1
 1597 507 l 1,57,58
EndSplineSet
EndChar

StartChar: germandbls
Encoding: 223 223 136
Width: 1217
Flags: W
LayerCount: 2
Fore
SplineSet
827 741 m 1,0,1
 978 721 978 721 1057.5 627 c 128,-1,2
 1137 533 1137 533 1137 376 c 0,3,4
 1137 284 1137 284 1111.5 211 c 128,-1,5
 1086 138 1086 138 1037.5 86 c 128,-1,6
 989 34 989 34 918.5 6.5 c 128,-1,7
 848 -21 848 -21 759 -21 c 0,8,9
 714 -21 714 -21 658 -11 c 1,10,-1
 658 80 l 1,11,12
 671 77 671 77 687.5 76 c 128,-1,13
 704 75 704 75 721 75 c 0,14,15
 767 76 767 76 810.5 93 c 128,-1,16
 854 110 854 110 888 145.5 c 128,-1,17
 922 181 922 181 943 236 c 128,-1,18
 964 291 964 291 964 368 c 0,19,20
 964 442 964 442 946.5 501 c 128,-1,21
 929 560 929 560 888.5 601.5 c 128,-1,22
 848 643 848 643 782 665.5 c 128,-1,23
 716 688 716 688 618 689 c 1,24,-1
 618 779 l 1,25,26
 684 782 684 782 729 799 c 128,-1,27
 774 816 774 816 802 844.5 c 128,-1,28
 830 873 830 873 842 913.5 c 128,-1,29
 854 954 854 954 854 1005 c 0,30,31
 854 1054 854 1054 837 1093.5 c 128,-1,32
 820 1133 820 1133 788.5 1161 c 128,-1,33
 757 1189 757 1189 712 1204 c 128,-1,34
 667 1219 667 1219 611 1219 c 0,35,36
 557 1219 557 1219 511.5 1206 c 128,-1,37
 466 1193 466 1193 432.5 1161.5 c 128,-1,38
 399 1130 399 1130 380 1077.5 c 128,-1,39
 361 1025 361 1025 361 945 c 2,40,-1
 361 158 l 2,41,42
 361 136 361 136 367.5 123.5 c 128,-1,43
 374 111 374 111 390.5 105 c 128,-1,44
 407 99 407 99 435 97 c 128,-1,45
 463 95 463 95 506 95 c 1,46,-1
 506 0 l 1,47,48
 480 0 480 0 457 0.5 c 128,-1,49
 434 1 434 1 409 1 c 128,-1,50
 384 1 384 1 356 1.5 c 128,-1,51
 328 2 328 2 293 2 c 0,52,53
 254 2 254 2 221 1.5 c 128,-1,54
 188 1 188 1 158 1 c 128,-1,55
 128 1 128 1 99.5 0.5 c 128,-1,56
 71 0 71 0 42 0 c 1,57,-1
 42 95 l 1,58,59
 99 95 99 95 129.5 97.5 c 128,-1,60
 160 100 160 100 174 107 c 128,-1,61
 188 114 188 114 190.5 126.5 c 128,-1,62
 193 139 193 139 193 159 c 2,63,-1
 193 857 l 2,64,65
 193 968 193 968 212 1053.5 c 128,-1,66
 231 1139 231 1139 279 1197 c 128,-1,67
 327 1255 327 1255 408 1285 c 128,-1,68
 489 1315 489 1315 613 1315 c 0,69,70
 709 1315 709 1315 784.5 1294 c 128,-1,71
 860 1273 860 1273 912.5 1232.5 c 128,-1,72
 965 1192 965 1192 992.5 1133.5 c 128,-1,73
 1020 1075 1020 1075 1020 999 c 0,74,75
 1020 901 1020 901 969.5 837 c 128,-1,76
 919 773 919 773 822 741 c 1,77,-1
 827 741 l 1,0,1
EndSplineSet
EndChar

StartChar: logicalnot
Encoding: 172 172 137
Width: 1536
Flags: W
LayerCount: 2
Fore
SplineSet
1338 349 m 1,0,-1
 1217 349 l 1,1,-1
 1217 771 l 1,2,-1
 197 771 l 1,3,-1
 197 892 l 1,4,-1
 1338 892 l 1,5,-1
 1338 349 l 1,0,-1
EndSplineSet
EndChar

StartChar: mu
Encoding: 181 181 138
Width: 1145
Flags: W
LayerCount: 2
Fore
SplineSet
233 -413 m 0,0,1
 205 -413 205 -413 181 -390 c 128,-1,2
 157 -367 157 -367 157 -321 c 0,3,4
 157 -264 157 -264 161.5 -183.5 c 128,-1,5
 166 -103 166 -103 171 -12 c 128,-1,6
 176 79 176 79 180 176 c 128,-1,7
 184 273 184 273 184 363 c 2,8,-1
 183 738 l 2,9,10
 183 763 183 763 178.5 777 c 128,-1,11
 174 791 174 791 159 797 c 128,-1,12
 144 803 144 803 115.5 804 c 128,-1,13
 87 805 87 805 40 805 c 1,14,-1
 40 893 l 1,15,16
 84 893 84 893 122 893 c 128,-1,17
 160 893 160 893 196.5 893.5 c 128,-1,18
 233 894 233 894 270.5 895.5 c 128,-1,19
 308 897 308 897 351 899 c 1,20,-1
 351 371 l 2,21,22
 351 308 351 308 356.5 256.5 c 128,-1,23
 362 205 362 205 380.5 168.5 c 128,-1,24
 399 132 399 132 433.5 112 c 128,-1,25
 468 92 468 92 526 92 c 0,26,27
 580 92 580 92 625.5 103.5 c 128,-1,28
 671 115 671 115 708 135 c 128,-1,29
 745 155 745 155 773 182.5 c 128,-1,30
 801 210 801 210 820 242 c 0,31,32
 821 243 821 243 821 261 c 128,-1,33
 821 279 821 279 821.5 305.5 c 128,-1,34
 822 332 822 332 822 363 c 128,-1,35
 822 394 822 394 822 421 c 128,-1,36
 822 448 822 448 822 466 c 128,-1,37
 822 484 822 484 822 486 c 2,38,-1
 822 733 l 2,39,40
 822 760 822 760 817.5 774.5 c 128,-1,41
 813 789 813 789 797.5 796 c 128,-1,42
 782 803 782 803 753 804 c 128,-1,43
 724 805 724 805 675 805 c 1,44,-1
 675 893 l 1,45,46
 751 893 751 893 830.5 894 c 128,-1,47
 910 895 910 895 990 900 c 1,48,-1
 990 140 l 2,49,50
 990 122 990 122 995 111.5 c 128,-1,51
 1000 101 1000 101 1015.5 96 c 128,-1,52
 1031 91 1031 91 1059 90 c 128,-1,53
 1087 89 1087 89 1133 89 c 1,54,-1
 1133 0 l 1,55,56
 1043 0 1043 0 970 -1 c 128,-1,57
 897 -2 897 -2 829 -4 c 1,58,-1
 829 130 l 1,59,60
 760 54 760 54 669 17 c 128,-1,61
 578 -20 578 -20 472 -20 c 0,62,63
 420 -20 420 -20 381.5 -11.5 c 128,-1,64
 343 -3 343 -3 314 14 c 1,65,66
 316 -45 316 -45 317 -111 c 128,-1,67
 318 -177 318 -177 318 -232 c 0,68,69
 318 -282 318 -282 314 -316.5 c 128,-1,70
 310 -351 310 -351 300 -372.5 c 128,-1,71
 290 -394 290 -394 273.5 -403.5 c 128,-1,72
 257 -413 257 -413 233 -413 c 0,0,1
EndSplineSet
EndChar

StartChar: trademark
Encoding: 8482 8482 139
Width: 1800
Flags: W
LayerCount: 2
Fore
SplineSet
784 1248 m 1,0,-1
 750 1248 l 1,1,2
 750 1293 750 1293 737.5 1308 c 128,-1,3
 725 1323 725 1323 712 1323 c 2,4,-1
 560 1323 l 1,5,-1
 560 782 l 2,6,7
 560 778 560 778 561 773 c 128,-1,8
 562 768 562 768 568.5 764 c 128,-1,9
 575 760 575 760 589.5 757 c 128,-1,10
 604 754 604 754 630 754 c 1,11,-1
 630 720 l 1,12,-1
 378 720 l 1,13,-1
 378 754 l 1,14,15
 404 754 404 754 418.5 756.5 c 128,-1,16
 433 759 433 759 439.5 763 c 128,-1,17
 446 767 446 767 447 772 c 128,-1,18
 448 777 448 777 448 783 c 2,19,-1
 448 1323 l 1,20,-1
 294 1323 l 2,21,22
 281 1323 281 1323 268.5 1308 c 128,-1,23
 256 1293 256 1293 256 1248 c 1,24,-1
 227 1248 l 1,25,-1
 227 1379 l 1,26,-1
 784 1379 l 1,27,-1
 784 1248 l 1,0,-1
1220 882 m 1,28,-1
 1222 882 l 1,29,-1
 1394 1379 l 1,30,-1
 1596 1379 l 1,31,-1
 1596 1335 l 1,32,33
 1573 1335 1573 1335 1561 1332 c 128,-1,34
 1549 1329 1549 1329 1543.5 1324.5 c 128,-1,35
 1538 1320 1538 1320 1537 1314.5 c 128,-1,36
 1536 1309 1536 1309 1536 1303 c 2,37,-1
 1536 799 l 2,38,39
 1536 793 1536 793 1537 787 c 128,-1,40
 1538 781 1538 781 1543.5 776.5 c 128,-1,41
 1549 772 1549 772 1561.5 769.5 c 128,-1,42
 1574 767 1574 767 1597 767 c 1,43,-1
 1597 720 l 1,44,-1
 1377 720 l 1,45,-1
 1377 767 l 1,46,47
 1398 767 1398 767 1410 769 c 128,-1,48
 1422 771 1422 771 1427.5 775 c 128,-1,49
 1433 779 1433 779 1434.5 785 c 128,-1,50
 1436 791 1436 791 1436 798 c 2,51,-1
 1436 1296 l 1,52,-1
 1434 1296 l 1,53,-1
 1234 720 l 1,54,-1
 1183 720 l 1,55,-1
 989 1296 l 1,56,-1
 987 1296 l 1,57,-1
 987 792 l 2,58,59
 987 786 987 786 988 781.5 c 128,-1,60
 989 777 989 777 996 773.5 c 128,-1,61
 1003 770 1003 770 1017 768.5 c 128,-1,62
 1031 767 1031 767 1057 767 c 1,63,-1
 1057 720 l 1,64,-1
 830 720 l 1,65,-1
 830 767 l 1,66,67
 860 767 860 767 876 769.5 c 128,-1,68
 892 772 892 772 899.5 776.5 c 128,-1,69
 907 781 907 781 908 786.5 c 128,-1,70
 909 792 909 792 909 799 c 2,71,-1
 909 1308 l 2,72,73
 909 1311 909 1311 908 1315 c 128,-1,74
 907 1319 907 1319 900.5 1323 c 128,-1,75
 894 1327 894 1327 879.5 1329.5 c 128,-1,76
 865 1332 865 1332 839 1332 c 1,77,-1
 839 1379 l 1,78,-1
 1054 1379 l 1,79,-1
 1220 882 l 1,28,-1
EndSplineSet
EndChar

StartChar: plusminus
Encoding: 177 177 140
Width: 1536
Flags: W
LayerCount: 2
Fore
SplineSet
830 846 m 1,0,-1
 1338 846 l 1,1,-1
 1338 726 l 1,2,-1
 830 726 l 1,3,-1
 830 328 l 1,4,-1
 707 328 l 1,5,-1
 707 726 l 1,6,-1
 197 726 l 1,7,-1
 197 846 l 1,8,-1
 707 846 l 1,9,-1
 707 1244 l 1,10,-1
 830 1244 l 1,11,-1
 830 846 l 1,0,-1
1338 5 m 1,12,-1
 197 5 l 1,13,-1
 197 124 l 1,14,-1
 1338 124 l 1,15,-1
 1338 5 l 1,12,-1
EndSplineSet
EndChar

StartChar: Thorn
Encoding: 222 222 141
Width: 1174
Flags: W
LayerCount: 2
Fore
SplineSet
57 1290 m 1,0,1
 88 1290 88 1290 125.5 1289.5 c 128,-1,2
 163 1289 163 1289 202 1289 c 128,-1,3
 241 1289 241 1289 281 1288.5 c 128,-1,4
 321 1288 321 1288 357 1288 c 0,5,6
 415 1288 415 1288 474.5 1288 c 128,-1,7
 534 1288 534 1288 593 1290 c 1,8,-1
 593 1205 l 1,9,-1
 544 1205 l 2,10,11
 514 1205 514 1205 490 1204 c 128,-1,12
 466 1203 466 1203 449.5 1198 c 128,-1,13
 433 1193 433 1193 424.5 1183.5 c 128,-1,14
 416 1174 416 1174 416 1156 c 2,15,-1
 416 1032 l 1,16,-1
 649 1032 l 2,17,18
 770 1032 770 1032 858.5 1004.5 c 128,-1,19
 947 977 947 977 1005 928 c 128,-1,20
 1063 879 1063 879 1091 811 c 128,-1,21
 1119 743 1119 743 1119 663 c 0,22,23
 1119 575 1119 575 1092 506 c 128,-1,24
 1065 437 1065 437 1005 389.5 c 128,-1,25
 945 342 945 342 850 317 c 128,-1,26
 755 292 755 292 619 292 c 2,27,-1
 416 292 l 1,28,-1
 416 148 l 2,29,30
 416 128 416 128 418 116 c 128,-1,31
 420 104 420 104 432 97 c 128,-1,32
 444 90 444 90 470 88 c 128,-1,33
 496 86 496 86 544 86 c 2,34,-1
 593 86 l 1,35,-1
 593 0 l 1,36,37
 566 0 566 0 540 0 c 128,-1,38
 514 0 514 0 485.5 0 c 128,-1,39
 457 0 457 0 425 0.5 c 128,-1,40
 393 1 393 1 354 2 c 1,41,42
 307 2 307 2 268 1.5 c 128,-1,43
 229 1 229 1 194 1 c 128,-1,44
 159 1 159 1 125.5 0.5 c 128,-1,45
 92 0 92 0 57 0 c 1,46,-1
 57 86 l 1,47,-1
 106 86 l 2,48,49
 154 86 154 86 180 92.5 c 128,-1,50
 206 99 206 99 218 109.5 c 128,-1,51
 230 120 230 120 232 133 c 128,-1,52
 234 146 234 146 234 158 c 2,53,-1
 234 1166 l 2,54,55
 234 1188 234 1188 204 1196.5 c 128,-1,56
 174 1205 174 1205 110 1205 c 2,57,-1
 57 1205 l 1,58,-1
 57 1290 l 1,0,1
416 396 m 1,59,-1
 606 396 l 2,60,61
 696 396 696 396 759 414 c 128,-1,62
 822 432 822 432 862 465.5 c 128,-1,63
 902 499 902 499 920.5 548 c 128,-1,64
 939 597 939 597 939 659 c 0,65,66
 939 791 939 791 860 857.5 c 128,-1,67
 781 924 781 924 612 924 c 2,68,-1
 416 924 l 1,69,-1
 416 396 l 1,59,-1
EndSplineSet
EndChar

